<?xml version="1.0" encoding="iso-8859-1"?>
<!-- Generator: Adobe Illustrator 19.0.0, SVG Export Plug-In . SVG Version: 6.00 Build 0)  -->
<svg version="1.1" id="Capa_1" xmlns="http://www.w3.org/2000/svg" xmlns:xlink="http://www.w3.org/1999/xlink" x="0px" y="0px"
	 viewBox="0 0 512 512" style="enable-background:new 0 0 512 512;" xml:space="preserve">
<g>
	<g>
		<g>
			<path d="M494.035,462.597H71.86c-14.876-0.016-26.931-12.071-26.947-26.947V13.474c-0.006-4.958-4.024-8.976-8.982-8.982H8.982
				C4.024,4.498,0.006,8.516,0,13.474v485.053c0.006,4.958,4.024,8.976,8.982,8.982h485.053c4.958-0.006,8.976-4.024,8.982-8.982
				v-26.947C503.011,466.621,498.993,462.603,494.035,462.597z"/>
			<path d="M508.589,78.992c-5.924-12.596-18.599-20.628-32.519-20.606c-14.786-0.041-28.079,9.005-33.467,22.774
				s-1.764,29.435,9.124,39.439c-0.286,0.295-0.549,0.611-0.789,0.945L377.64,256.105c-0.149,0.381-0.27,0.772-0.362,1.17
				c-10.193-2.848-21.128-0.876-29.684,5.354c-0.209-0.308-0.438-0.601-0.686-0.879l-71.325-61.079
				c-0.328-0.213-0.669-0.404-1.023-0.57c2.527-4.943,3.861-10.409,3.896-15.961c0.089-15.669-9.987-29.589-24.899-34.399
				c-14.912-4.81-31.223,0.598-40.307,13.365c-9.084,12.767-8.847,29.949,0.586,42.461c-0.324,0.231-0.631,0.484-0.919,0.758
				l-71.5,88.026c-0.202,0.328-0.381,0.669-0.536,1.022c-16.579-7.815-36.384-2.032-46.153,13.477
				c-9.769,15.509-6.431,35.868,7.778,47.447s34.823,10.736,48.04-1.964c13.217-12.699,14.881-33.263,3.879-47.923
				c0.33-0.222,0.644-0.467,0.939-0.734l71.5-88.026c0.202-0.328,0.381-0.669,0.536-1.022c11.626,5.547,25.349,4.326,35.813-3.186
				c0.209,0.308,0.439,0.602,0.687,0.879l71.325,61.079c0.323,0.22,0.661,0.417,1.011,0.59c-2.52,4.938-3.85,10.397-3.885,15.94
				c-0.063,16.452,11.057,30.845,26.992,34.938s32.614-3.161,40.487-17.607s4.927-32.394-7.149-43.567
				c0.267-0.313,0.512-0.644,0.732-0.991L466.71,130.14c0.149-0.381,0.27-0.772,0.362-1.17c13.469,3.513,27.754-1.082,36.648-11.789
				S514.513,91.588,508.589,78.992z"/>
		</g>
	</g>
</g>
<g>
</g>
<g>
</g>
<g>
</g>
<g>
</g>
<g>
</g>
<g>
</g>
<g>
</g>
<g>
</g>
<g>
</g>
<g>
</g>
<g>
</g>
<g>
</g>
<g>
</g>
<g>
</g>
<g>
</g>
</svg>
