<?xml version="1.0" encoding="iso-8859-1"?>
<!-- Generator: Adobe Illustrator 19.0.0, SVG Export Plug-In . SVG Version: 6.00 Build 0)  -->
<svg version="1.1" id="Capa_1" xmlns="http://www.w3.org/2000/svg" xmlns:xlink="http://www.w3.org/1999/xlink" x="0px" y="0px"
	 viewBox="0 0 511.768 511.768" style="enable-background:new 0 0 511.768 511.768;" xml:space="preserve">
<g>
	<g>
		<g>
			<path d="M511.657,283.018c-1.994-51.918-22.477-101.415-57.752-139.561L314.343,283.018H511.657z"/>
			<path d="M283.129,0C128.938,4.993,5.105,128.827,0.111,283.018h283.018V0z"/>
			<path d="M301.415,72.776v197.313l139.561-139.561C402.83,95.252,353.333,74.769,301.415,72.776z"/>
			<path d="M453.904,440.864c35.276-38.146,55.758-87.643,57.752-139.561H314.343L453.904,440.864z"/>
			<path d="M143.568,453.793c84.067,77.3,213.34,77.3,297.407,0L292.272,305.089L143.568,453.793z"/>
			<path d="M72.888,301.304c1.993,51.919,22.476,101.415,57.752,139.561l139.561-139.561H72.888z"/>
		</g>
	</g>
</g>
<g>
</g>
<g>
</g>
<g>
</g>
<g>
</g>
<g>
</g>
<g>
</g>
<g>
</g>
<g>
</g>
<g>
</g>
<g>
</g>
<g>
</g>
<g>
</g>
<g>
</g>
<g>
</g>
<g>
</g>
</svg>
