<?xml version="1.0" encoding="iso-8859-1"?>
<!-- Generator: Adobe Illustrator 19.0.0, SVG Export Plug-In . SVG Version: 6.00 Build 0)  -->
<svg version="1.1" id="Capa_1" xmlns="http://www.w3.org/2000/svg" xmlns:xlink="http://www.w3.org/1999/xlink" x="0px" y="0px"
	 viewBox="0 0 512 512" style="enable-background:new 0 0 512 512;" xml:space="preserve">
<g>
	<g>
		<rect y="283.894" width="123.077" height="62.356"/>
	</g>
</g>
<g>
	<g>
		<rect y="192" width="123.077" height="62.356"/>
	</g>
</g>
<g>
	<g>
		<rect x="152.615" y="192" width="93.539" height="62.356"/>
	</g>
</g>
<g>
	<g>
		<rect x="152.615" y="283.894" width="93.539" height="62.356"/>
	</g>
</g>
<g>
	<g>
		<rect x="398.769" y="283.894" width="113.231" height="62.356"/>
	</g>
</g>
<g>
	<g>
		<path d="M467.692,44.308H44.308C19.876,44.308,0,64.184,0,88.615v73.846h512V88.615C512,64.184,492.124,44.308,467.692,44.308z"/>
	</g>
</g>
<g>
	<g>
		<rect x="398.769" y="192" width="113.231" height="62.356"/>
	</g>
</g>
<g>
	<g>
		<path d="M0,375.795v47.589c0,24.431,19.876,44.308,44.308,44.308h78.769v-91.897H0z"/>
	</g>
</g>
<g>
	<g>
		<rect x="275.692" y="192" width="93.538" height="62.356"/>
	</g>
</g>
<g>
	<g>
		<rect x="152.615" y="375.798" width="93.539" height="91.894"/>
	</g>
</g>
<g>
	<g>
		<path d="M398.769,375.795v91.897h68.923c24.431,0,44.308-19.876,44.308-44.308v-47.589H398.769z"/>
	</g>
</g>
<g>
	<g>
		<rect x="275.692" y="283.894" width="93.538" height="62.356"/>
	</g>
</g>
<g>
	<g>
		<rect x="275.692" y="375.798" width="93.538" height="91.894"/>
	</g>
</g>
<g>
</g>
<g>
</g>
<g>
</g>
<g>
</g>
<g>
</g>
<g>
</g>
<g>
</g>
<g>
</g>
<g>
</g>
<g>
</g>
<g>
</g>
<g>
</g>
<g>
</g>
<g>
</g>
<g>
</g>
</svg>
