<?xml version="1.0" encoding="UTF-8" standalone="no"?>
<svg
   xmlns:dc="http://purl.org/dc/elements/1.1/"
   xmlns:cc="http://creativecommons.org/ns#"
   xmlns:rdf="http://www.w3.org/1999/02/22-rdf-syntax-ns#"
   xmlns:svg="http://www.w3.org/2000/svg"
   xmlns="http://www.w3.org/2000/svg"
   xmlns:sodipodi="http://sodipodi.sourceforge.net/DTD/sodipodi-0.dtd"
   xmlns:inkscape="http://www.inkscape.org/namespaces/inkscape"
   height="512pt"
   viewBox="0 0 512 512"
   width="512pt"
   version="1.1"
   id="svg4">
  <metadata
     id="metadata10">
    <rdf:RDF>
      <cc:Work
         rdf:about="">
        <dc:format>image/svg+xml</dc:format>
        <dc:type
           rdf:resource="http://purl.org/dc/dcmitype/StillImage" />
        <dc:title />
      </cc:Work>
    </rdf:RDF>
  </metadata>
  <defs
     id="defs8" />
  <path
     id="path2"
     d="m 39.635586,192.14406 v -121.5 c 0,-11.02734 8.972656,-20 20,-20 H 451.63559 c 11.02734,0 20,8.97266 20,20 v 124.5 c 0.12034,13.37352 -6.39932,19.5 -20.25,19.5 H 59.135594 c -10.737655,-0.64627 -19.125008,-6.77676 -19.500008,-22.5 z m 412.000004,-181.5 H 59.635586 c -33.085938,0 -60.00000006,26.91406 -60.00000006,60 v 122.00001 c 0,33.08594 26.91406206,60 60.00000006,60 H 451.63559 c 33.08593,0 60,-26.91406 60,-60 V 70.64406 c 0,-33.08594 -26.91407,-60 -60,-60 z"
      />
  <path
     id="path828"
     style="stroke-width:0.26517147"
     d="m 414.75835,100.45401 h 7.91067 c 2.39954,0 4.34639,-1.98717 4.34639,-4.44163 v -25.9536 c 2.6e-4,-2.45474 -1.94659,-4.44325 -4.34639,-4.44325 h -7.91067 c -2.40086,0 -4.34771,1.98851 -4.34771,4.44325 v 25.9536 c 0,2.45446 1.94685,4.44163 4.34771,4.44163 z m -69.478,0 h 7.91068 c 2.40111,0 4.34796,-1.98717 4.34796,-4.44163 v -25.9536 c 0,-2.45474 -1.94685,-4.44325 -4.34796,-4.44325 h -7.91068 c -2.40137,0 -4.34796,1.98851 -4.34796,4.44325 v 25.9536 c 0,2.45446 1.94659,4.44163 4.34796,4.44163 z m 90.25501,-20.26608 v 15.83142 c 0,7.15563 -5.67875,12.92197 -12.67776,12.92197 h -7.99749 c -6.99955,0 -12.75356,-5.76634 -12.75356,-12.92197 V 80.1311 h -36.04683 v 15.88825 c 0,7.15563 -5.75375,12.92197 -12.75224,12.92197 h -7.99907 c -6.99875,0 -12.67723,-5.76634 -12.67723,-12.92197 V 80.18793 c -6.117,0.18848 -11.14346,5.36258 -11.14346,11.72221 v 92.77958 c 0,6.47922 5.1374,11.80051 11.47576,11.80051 h 102.23931 c 6.32892,0 11.47576,-5.33228 11.47576,-11.80051 V 91.91014 c 0,-6.35963 -5.0262,-11.53373 -11.14319,-11.72221 z m -3.71458,98.72421 c 0,2.80005 -2.22093,5.07167 -4.96116,5.07167 h -85.77144 c -2.74023,0 -4.96116,-2.27162 -4.96116,-5.07167 v -47.92401 c 0,-2.80112 2.22067,-5.07276 4.96116,-5.07276 h 85.77118 c 2.74023,0 4.96116,2.27164 4.96116,5.07276 z m -14.41821,-15.18476 c 0,-1.64212 -1.30113,-2.96922 -2.90309,-2.96922 h -10.1421 c -1.60512,0 -2.90599,1.3271 -2.90599,2.96922 v 10.36294 c 0,1.64051 1.30087,2.96896 2.90599,2.96896 h 10.1421 c 1.60196,0 2.90309,-1.32871 2.90309,-2.96896 z m -25.3445,0 c 0,-1.64212 -1.30113,-2.96922 -2.90309,-2.96922 h -10.14211 c -1.60328,0 -2.90441,1.3271 -2.90441,2.96922 v 10.36294 c 0,1.64051 1.30113,2.96896 2.90441,2.96896 h 10.14211 c 1.60196,0 2.90309,-1.32871 2.90309,-2.96896 z m -25.34319,0 c 0,-1.64212 -1.30087,-2.96922 -2.90598,-2.96922 h -10.14079 c -1.60328,0 -2.90441,1.3271 -2.90441,2.96922 v 10.36294 c 0,1.64051 1.30113,2.96896 2.90441,2.96896 h 10.14079 c 1.60511,0 2.90598,-1.32871 2.90598,-2.96896 z m 50.68769,-25.90909 c 0,-1.63944 -1.30113,-2.96762 -2.90441,-2.96762 h -10.14078 c -1.60512,0 -2.90599,1.32818 -2.90599,2.96762 v 10.36481 c 0,1.64159 1.30087,2.9703 2.90599,2.9703 h 10.14078 c 1.60328,0 2.90441,-1.32871 2.90441,-2.9703 z m -25.3445,0 c 0,-1.63944 -1.30113,-2.96762 -2.90309,-2.96762 h -10.14211 c -1.60328,0 -2.90441,1.32818 -2.90441,2.96762 v 10.36481 c 0,1.64159 1.30113,2.9703 2.90441,2.9703 h 10.14211 c 1.60196,0 2.90309,-1.32871 2.90309,-2.9703 z m -25.34319,0 c 0,-1.63944 -1.30087,-2.96762 -2.90598,-2.96762 h -10.14079 c -1.60328,0 -2.90441,1.32818 -2.90441,2.96762 v 10.36481 c 0,1.64159 1.30113,2.9703 2.90441,2.9703 h 10.14079 c 1.60511,0 2.90598,-1.32871 2.90598,-2.9703 z"
      />
  <path
     style="stroke-width:1"
     id="path2-1"
     d="m 39.406999,445.86086 v -121.5 c 0,-11.02734 8.97266,-20 20,-20 H 451.40701 c 11.02734,0 20,8.97266 20,20 v 124.5 c 0.12034,13.37352 -6.39932,19.5 -20.25,19.5 H 58.907009 c -10.73765,-0.64627 -19.12501,-6.77676 -19.50001,-22.5 z m 412.000011,-181.5 H 59.406999 c -33.08593,0 -59.99999904,26.91406 -59.99999904,60 v 122.00001 c 0,33.08594 26.91406904,60.00001 59.99999904,60.00001 H 451.40701 c 33.08594,0 60.00001,-26.91407 60.00001,-60.00001 V 324.36086 c 0,-33.08594 -26.91407,-60 -60.00001,-60 z"
      />
  <path
     id="path828-9"
     style="stroke-width:0.26517147"
     d="m 414.52978,354.17081 h 7.91066 c 2.39954,0 4.34639,-1.98717 4.34639,-4.44163 v -25.9536 c 2.6e-4,-2.45474 -1.94659,-4.44325 -4.34639,-4.44325 h -7.91066 c -2.40087,0 -4.34772,1.98851 -4.34772,4.44325 v 25.9536 c 0,2.45446 1.94685,4.44163 4.34772,4.44163 z m -69.47801,0 h 7.91068 c 2.40111,0 4.34796,-1.98717 4.34796,-4.44163 v -25.9536 c 0,-2.45474 -1.94685,-4.44325 -4.34796,-4.44325 h -7.91068 c -2.40137,0 -4.34796,1.98851 -4.34796,4.44325 v 25.9536 c 0,2.45446 1.94659,4.44163 4.34796,4.44163 z m 90.25501,-20.26608 v 15.83142 c 0,7.15563 -5.67875,12.92197 -12.67776,12.92197 h -7.99748 c -6.99956,0 -12.75357,-5.76634 -12.75357,-12.92197 V 333.8479 h -36.04683 v 15.88825 c 0,7.15563 -5.75375,12.92197 -12.75224,12.92197 h -7.99907 c -6.99875,0 -12.67723,-5.76634 -12.67723,-12.92197 v -15.83142 c -6.117,0.18848 -11.14346,5.36258 -11.14346,11.72221 v 92.77958 c 0,6.47922 5.1374,11.80052 11.47576,11.80052 h 102.23931 c 6.32892,0 11.47577,-5.33229 11.47577,-11.80052 v -92.77958 c 0,-6.35963 -5.02621,-11.53373 -11.1432,-11.72221 z m -3.71458,98.72421 c 0,2.80005 -2.22093,5.07167 -4.96116,5.07167 H 340.8596 c -2.74023,0 -4.96116,-2.27162 -4.96116,-5.07167 v -47.92401 c 0,-2.80112 2.22067,-5.07276 4.96116,-5.07276 h 85.77118 c 2.74023,0 4.96116,2.27164 4.96116,5.07276 z m -14.41821,-15.18476 c 0,-1.64212 -1.30113,-2.96922 -2.90308,-2.96922 h -10.1421 c -1.60512,0 -2.906,1.3271 -2.906,2.96922 v 10.36295 c 0,1.6405 1.30088,2.96895 2.906,2.96895 h 10.1421 c 1.60195,0 2.90308,-1.3287 2.90308,-2.96895 z m -25.3445,0 c 0,-1.64212 -1.30113,-2.96922 -2.90309,-2.96922 h -10.14211 c -1.60328,0 -2.90441,1.3271 -2.90441,2.96922 v 10.36295 c 0,1.6405 1.30113,2.96895 2.90441,2.96895 h 10.14211 c 1.60196,0 2.90309,-1.3287 2.90309,-2.96895 z m -25.34319,0 c 0,-1.64212 -1.30087,-2.96922 -2.90598,-2.96922 h -10.14079 c -1.60328,0 -2.90441,1.3271 -2.90441,2.96922 v 10.36295 c 0,1.6405 1.30113,2.96895 2.90441,2.96895 h 10.14079 c 1.60511,0 2.90598,-1.3287 2.90598,-2.96895 z m 50.68769,-25.90909 c 0,-1.63944 -1.30113,-2.96762 -2.9044,-2.96762 h -10.14078 c -1.60512,0 -2.906,1.32818 -2.906,2.96762 v 10.36482 c 0,1.64158 1.30088,2.9703 2.906,2.9703 h 10.14078 c 1.60327,0 2.9044,-1.32872 2.9044,-2.9703 z m -25.3445,0 c 0,-1.63944 -1.30113,-2.96762 -2.90309,-2.96762 h -10.14211 c -1.60328,0 -2.90441,1.32818 -2.90441,2.96762 v 10.36482 c 0,1.64158 1.30113,2.9703 2.90441,2.9703 h 10.14211 c 1.60196,0 2.90309,-1.32872 2.90309,-2.9703 z m -25.34319,0 c 0,-1.63944 -1.30087,-2.96762 -2.90598,-2.96762 h -10.14079 c -1.60328,0 -2.90441,1.32818 -2.90441,2.96762 v 10.36482 c 0,1.64158 1.30113,2.9703 2.90441,2.9703 h 10.14079 c 1.60511,0 2.90598,-1.32872 2.90598,-2.9703 z" />
  <g
     aria-label="FROM"
     style="font-style:normal;font-weight:normal;font-size:30px;line-height:1.25;font-family:sans-serif;letter-spacing:0px;word-spacing:0px;fill:#000000;fill-opacity:1;stroke:none;stroke-width:0.75"
     id="text836">
    <path
       d="M 101.38548,135.60909 H 76.324928 v 26.37304 h -7.875 v -59.71875 h 36.996092 v 6.48047 H 76.324928 v 20.42578 h 25.060552 z"
       style="font-style:normal;font-variant:normal;font-weight:normal;font-stretch:normal;font-size:84px;font-family:roboto;-inkscape-font-specification:roboto;stroke-width:0.75"
       id="path861" />
    <path
       d="m 136.78196,137.82393 h -14.02734 v 24.1582 h -7.91602 v -59.71875 h 19.76953 q 10.08985,0 15.50391,4.59375 5.45508,4.59375 5.45508,13.3711 0,5.57812 -3.03516,9.7207 -2.99414,4.14258 -8.36719,6.19336 l 14.02735,25.34765 v 0.49219 h -8.44922 z m -14.02734,-6.43945 h 12.09961 q 5.86523,0 9.31054,-3.03516 3.48633,-3.03516 3.48633,-8.12109 0,-5.53711 -3.32227,-8.49024 -3.28125,-2.95312 -9.51562,-2.99414 h -12.05859 z"
       style="font-style:normal;font-variant:normal;font-weight:normal;font-stretch:normal;font-size:84px;font-family:roboto;-inkscape-font-specification:roboto;stroke-width:0.75"
       id="path863" />
    <path
       d="m 212.4968,134.05049 q 0,8.77735 -2.95312,15.33985 -2.95313,6.52148 -8.36719,9.96679 -5.41406,3.44531 -12.63281,3.44531 -7.05469,0 -12.50977,-3.44531 -5.45508,-3.48633 -8.49023,-9.88476 -2.99414,-6.43946 -3.07617,-14.88868 v -4.30664 q 0,-8.61328 2.99414,-15.21679 2.99414,-6.60352 8.44922,-10.08985 5.49609,-3.52734 12.55078,-3.52734 7.17773,0 12.63281,3.48633 5.49609,3.44531 8.44922,10.04883 2.95312,6.5625 2.95312,15.29882 z m -7.83398,-3.85547 q 0,-10.62304 -4.26563,-16.2832 -4.26562,-5.70117 -11.93554,-5.70117 -7.46485,0 -11.77149,5.70117 -4.26562,5.66016 -4.38867,15.75 v 4.38867 q 0,10.29492 4.30664,16.20117 4.34766,5.86524 11.93555,5.86524 7.6289,0 11.8125,-5.53711 4.18359,-5.57813 4.30664,-15.95508 z"
       style="font-style:normal;font-variant:normal;font-weight:normal;font-stretch:normal;font-size:84px;font-family:roboto;-inkscape-font-specification:roboto;stroke-width:0.75"
       id="path865" />
    <path
       d="m 234.48118,102.26338 19.52344,48.72656 19.52343,-48.72656 h 10.21289 v 59.71875 h -7.875 v -23.25586 l 0.73829,-25.10156 -19.60547,48.35742 h -6.0293 l -19.56445,-48.23437 0.77929,24.97851 v 23.25586 h -7.875 v -59.71875 z"
       style="font-style:normal;font-variant:normal;font-weight:normal;font-stretch:normal;font-size:84px;font-family:roboto;-inkscape-font-specification:roboto;stroke-width:0.75"
       id="path867" />
  </g>
  <g
     aria-label="TO"
     style="font-style:normal;font-weight:normal;font-size:30.00000191px;line-height:1.25;font-family:sans-serif;letter-spacing:0px;word-spacing:0px;fill:#000000;fill-opacity:1;stroke:none;stroke-width:0.75"
     id="text836-4">
    <path
       d="M 109.6858,368.32715 H 90.490486 v 53.23828 H 82.656502 V 368.32715 H 63.502205 v -6.48047 H 109.6858 Z"
       style="font-style:normal;font-variant:normal;font-weight:normal;font-stretch:normal;font-size:84px;font-family:roboto;-inkscape-font-specification:roboto;stroke-width:0.75"
       id="path856" />
    <path
       d="m 163.41627,393.63379 q 0,8.77734 -2.95313,15.33984 -2.95312,6.52149 -8.36719,9.9668 -5.41406,3.44531 -12.63281,3.44531 -7.05469,0 -12.50976,-3.44531 -5.45508,-3.48633 -8.49024,-9.88477 -2.99414,-6.43945 -3.07617,-14.88867 v -4.30664 q 0,-8.61328 2.99414,-15.2168 2.99414,-6.60351 8.44922,-10.08984 5.49609,-3.52734 12.55078,-3.52734 7.17774,0 12.63281,3.48633 5.4961,3.44531 8.44922,10.04882 2.95313,6.5625 2.95313,15.29883 z m -7.83399,-3.85547 q 0,-10.62305 -4.26562,-16.2832 -4.26563,-5.70117 -11.93555,-5.70117 -7.46484,0 -11.77148,5.70117 -4.26563,5.66015 -4.38868,15.75 v 4.38867 q 0,10.29492 4.30665,16.20117 4.34765,5.86524 11.93554,5.86524 7.62891,0 11.8125,-5.53711 4.1836,-5.57813 4.30664,-15.95508 z"
       style="font-style:normal;font-variant:normal;font-weight:normal;font-stretch:normal;font-size:84px;font-family:roboto;-inkscape-font-specification:roboto;stroke-width:0.75"
       id="path858" />
  </g>
</svg>
