<?xml version="1.0" standalone="no"?>
<!DOCTYPE svg PUBLIC "-//W3C//DTD SVG 20010904//EN"
 "http://www.w3.org/TR/2001/REC-SVG-20010904/DTD/svg10.dtd">
<svg version="1.0" xmlns="http://www.w3.org/2000/svg"
 width="220.000000pt" height="220.000000pt" viewBox="0 0 220.000000 220.000000"
 preserveAspectRatio="xMidYMid meet">
<metadata>
Created by potrace 1.13, written by Peter Selinger 2001-2015
</metadata>
<g transform="translate(0.000000,220.000000) scale(0.100000,-0.100000)"
fill="#000000" stroke="none">
<path d="M978 2190 c-330 -60 -579 -331 -607 -659 l-6 -74 -42 -12 c-64 -19
-129 -61 -192 -124 -247 -248 -128 -666 216 -756 31 -8 70 -15 85 -15 l28 0 0
89 0 89 -50 11 c-102 22 -163 69 -201 156 -47 107 -19 239 67 315 62 54 108
70 206 70 48 0 89 3 91 8 2 4 -2 36 -10 72 -50 230 73 487 287 595 155 78 345
78 500 0 119 -61 222 -178 268 -308 26 -74 34 -178 22 -307 l-5 -55 95 -6 c52
-3 109 -12 125 -19 138 -64 198 -226 136 -365 -39 -87 -99 -134 -201 -156
l-50 -11 0 -89 0 -89 28 0 c15 0 54 7 85 15 169 44 288 163 332 332 60 229
-72 468 -300 545 l-50 17 -6 73 c-25 295 -232 547 -524 638 -79 24 -249 35
-327 20z"/>
<path d="M867 1142 l-227 -227 65 -65 65 -65 120 120 120 120 0 -423 0 -422
90 0 90 0 0 422 0 423 120 -120 120 -120 65 65 65 65 -227 227 c-125 126 -230
228 -233 228 -3 0 -108 -102 -233 -228z"/>
</g>
</svg>
