<?xml version="1.0" encoding="utf-8"?>
<!-- Generator: Adobe Illustrator 22.0.1, SVG Export Plug-In . SVG Version: 6.00 Build 0)  -->
<svg version="1.1" id="Capa_1" xmlns="http://www.w3.org/2000/svg" xmlns:xlink="http://www.w3.org/1999/xlink" x="0px" y="0px"
	viewBox="0 0 513.3 513.3" style="enable-background:new 0 0 513.3 513.3;" xml:space="preserve">
	<style type="text/css">
		.st0{fill:#37474F;}
	</style>
	<g>
		<path class="st0" d="M346.5,316.5c49.2-29.9,81.3-83.4,81.3-145.4C427.8,77,350.8,0,256.7,0S85.6,77,85.6,171.1
			c0,62,32.1,115.5,81.3,145.4C81.3,348.6,17.1,423.5,0,513.3h42.8c21.4-98.4,109.1-171.1,213.9-171.1s192.5,72.7,213.9,171.1h42.8
			C496.2,421.3,432,346.5,346.5,316.5z M128.3,171.1c0-70.6,57.7-128.3,128.3-128.3S385,100.5,385,171.1s-57.7,128.3-128.3,128.3
			S128.3,241.7,128.3,171.1z"/>
	</g>
</svg>
