<?xml version="1.0" encoding="UTF-8" standalone="no"?>
<!-- Created with Inkscape (http://www.inkscape.org/) -->

<svg
   xmlns:dc="http://purl.org/dc/elements/1.1/"
   xmlns:cc="http://creativecommons.org/ns#"
   xmlns:rdf="http://www.w3.org/1999/02/22-rdf-syntax-ns#"
   xmlns:svg="http://www.w3.org/2000/svg"
   xmlns="http://www.w3.org/2000/svg"
   xmlns:sodipodi="http://sodipodi.sourceforge.net/DTD/sodipodi-0.dtd"
   xmlns:inkscape="http://www.inkscape.org/namespaces/inkscape"
   width="119.49327mm"
   height="68.04818mm"
   viewBox="0 0 423.40134 241.11558"
   id="svg2"
   version="1.1"
   inkscape:version="0.91 r13725"
   sodipodi:docname="markers.svg"
   inkscape:export-filename="C:\Users\vernassa\Desktop\cluster.png"
   inkscape:export-xdpi="13.215899"
   inkscape:export-ydpi="13.215899">
  <defs
     id="defs4" />
  <sodipodi:namedview
     id="base"
     pagecolor="#ffffff"
     bordercolor="#666666"
     borderopacity="1.0"
     inkscape:pageopacity="0.0"
     inkscape:pageshadow="2"
     inkscape:zoom="2"
     inkscape:cx="149.55613"
     inkscape:cy="54.902039"
     inkscape:document-units="px"
     inkscape:current-layer="layer1"
     showgrid="false"
     fit-margin-top="10"
     fit-margin-left="10"
     fit-margin-right="10"
     fit-margin-bottom="10"
     inkscape:window-width="1920"
     inkscape:window-height="1028"
     inkscape:window-x="-8"
     inkscape:window-y="-8"
     inkscape:window-maximized="1" />
  <metadata
     id="metadata7">
    <rdf:RDF>
      <cc:Work
         rdf:about="">
        <dc:format>image/svg+xml</dc:format>
        <dc:type
           rdf:resource="http://purl.org/dc/dcmitype/StillImage" />
        <dc:title></dc:title>
      </cc:Work>
    </rdf:RDF>
  </metadata>
  <g
     inkscape:label="Livello 1"
     inkscape:groupmode="layer"
     id="layer1"
     transform="translate(-80.442181,-243.37582)">
    <path
       style="fill-opacity:1;fill-rule:evenodd;stroke:none;stroke-width:1px;stroke-linecap:butt;stroke-linejoin:miter;stroke-opacity:1;"
       d="m 147.36532,384.99105 c -13.51079,0 -17.2994,12.12132 -17.04687,17.92969 0.25254,5.80838 1.38994,7.32461 1.38994,7.32461 l 11.74287,23.9918 c 0,0 1.38741,2.39775 4.03906,2.27148 0,0 2.14688,7.7e-4 3.66211,-2.01953 1.51523,-2.02031 11.61797,-24.24326 11.61797,-24.24326 0,0 2.02002,-3.28401 1.89375,-7.95596 -0.12627,-4.67196 -3.78803,-17.29883 -17.29883,-17.29883 z m 0.31446,8.58594 c 4.77796,-5.4e-4 8.65129,3.92964 8.65039,8.77735 -1.7e-4,4.84694 -3.87319,8.77593 -8.65039,8.77539 -4.77644,-5.6e-4 -8.64827,-3.92922 -8.64844,-8.77539 -9e-4,-4.84694 3.87124,-8.77679 8.64844,-8.77735 z"
       id="path4280"
       inkscape:connector-curvature="0"
       sodipodi:nodetypes="sscccscssscscs" />
    <path
       style="fill-opacity:1;fill-rule:evenodd;stroke:none;stroke-width:1px;stroke-linecap:butt;stroke-linejoin:miter;stroke-opacity:1;"
       d="m 364.81916,345.23021 c -13.51079,0 -17.2994,12.12132 -17.04687,17.92969 0.25254,5.80838 1.38994,7.32461 1.38994,7.32461 l 11.74287,23.99179 c 0,0 1.38741,2.39775 4.03906,2.27148 0,0 2.14688,7.7e-4 3.66211,-2.01953 1.51523,-2.02031 11.61797,-24.24325 11.61797,-24.24325 0,0 2.02001,-3.28401 1.89374,-7.95596 -0.12627,-4.67196 -3.78802,-17.29883 -17.29882,-17.29883 z m 0.31446,8.58594 c 4.77796,-5.4e-4 8.65129,3.92964 8.65039,8.77735 -1.7e-4,4.84694 -3.87319,8.77593 -8.65039,8.77539 -4.77644,-5.6e-4 -8.64827,-3.92922 -8.64844,-8.77539 -9e-4,-4.84694 3.87124,-8.77679 8.64844,-8.77735 z"
       id="path4280-8"
       inkscape:connector-curvature="0"
       sodipodi:nodetypes="sscccscssscscs" />
    <path
       style="fill-opacity:1;fill-rule:evenodd;stroke:none;stroke-width:1px;stroke-linecap:butt;stroke-linejoin:miter;stroke-opacity:1;"
       d="m 432.31916,287.73022 c -13.51079,0 -17.2994,12.12132 -17.04687,17.92969 0.25254,5.80838 1.38994,7.32461 1.38994,7.32461 l 11.74287,23.99178 c 0,0 1.38741,2.39775 4.03906,2.27148 0,0 2.14688,7.7e-4 3.66212,-2.01953 1.51523,-2.02031 11.61797,-24.24324 11.61797,-24.24324 0,0 2.02,-3.28401 1.89373,-7.95596 -0.12627,-4.67196 -3.78801,-17.29883 -17.29882,-17.29883 z m 0.31446,8.58594 c 4.77797,-5.4e-4 8.6513,3.92964 8.6504,8.77735 -1.7e-4,4.84694 -3.87319,8.77593 -8.6504,8.77539 -4.77644,-5.6e-4 -8.64827,-3.92922 -8.64844,-8.77539 -9e-4,-4.84694 3.87124,-8.77679 8.64844,-8.77735 z"
       id="path4280-8-0"
       inkscape:connector-curvature="0"
       sodipodi:nodetypes="sscccscssscscs" />
    <path
       style="fill-opacity:1;fill-rule:evenodd;stroke:none;stroke-width:1px;stroke-linecap:butt;stroke-linejoin:miter;stroke-opacity:1;"
       d="m 430.81916,387.23022 c -13.51079,0 -17.2994,12.12132 -17.04687,17.92969 0.25254,5.80838 1.38994,7.32461 1.38994,7.32461 l 11.74287,23.99177 c 0,0 1.38741,2.39775 4.03906,2.27148 0,0 2.14688,7.7e-4 3.66212,-2.01953 1.51523,-2.02031 11.61797,-24.24323 11.61797,-24.24323 0,0 2.01999,-3.28401 1.89372,-7.95596 -0.12627,-4.67196 -3.788,-17.29883 -17.29881,-17.29883 z m 0.31446,8.58594 c 4.77797,-5.4e-4 8.6513,3.92964 8.6504,8.77735 -1.7e-4,4.84694 -3.87319,8.77593 -8.6504,8.77539 -4.77644,-5.6e-4 -8.64827,-3.92922 -8.64844,-8.77539 -9e-4,-4.84694 3.87124,-8.77679 8.64844,-8.77735 z"
       id="path4280-8-0-1"
       inkscape:connector-curvature="0"
       sodipodi:nodetypes="sscccscssscscs" />
  </g>
</svg>
