<?xml version="1.0" encoding="UTF-8" standalone="no"?>
<!-- Created with Inkscape (http://www.inkscape.org/) -->

<svg
   width="110.46216mm"
   height="70.305962mm"
   viewBox="0 0 391.40134 249.11559"
   id="svg2"
   version="1.1"
   xmlns="http://www.w3.org/2000/svg"
   xmlns:svg="http://www.w3.org/2000/svg"
   xmlns:rdf="http://www.w3.org/1999/02/22-rdf-syntax-ns#"
   xmlns:cc="http://creativecommons.org/ns#"
   xmlns:dc="http://purl.org/dc/elements/1.1/">
  <defs
     id="defs4" />
  <metadata
     id="metadata7">
    <rdf:RDF>
      <cc:Work
         rdf:about="">
        <dc:format>image/svg+xml</dc:format>
        <dc:type
           rdf:resource="http://purl.org/dc/dcmitype/StillImage" />
      </cc:Work>
    </rdf:RDF>
  </metadata>
  <path
     style="opacity:1;fill:#dbe6f0;fill-opacity:1;stroke-width:0;stroke-dasharray:none"
     id="path1398"
     d="m -55.027422,-242.73363 a 66.73497,66.73497 0 0 1 -52.331148,-59.25074 66.73497,66.73497 0 0 1 40.935472,-67.62756 l 25.531943,61.65774 z"
     transform="rotate(116.08348)" />
  <path
     style="opacity:1;fill:#b7cfe1;fill-opacity:1;stroke-width:0;stroke-dasharray:none"
     id="path1396"
     d="m 278.8145,86.093362 a 66.73497,66.73497 0 0 1 -35.3988,-56.868283 66.73497,66.73497 0 0 1 31.80614,-58.952916 l 34.89675,56.883856 z"
     transform="rotate(13.43174)" />
  <path
     style="opacity:1;fill:#dbe6f0;fill-opacity:1;stroke-width:0;stroke-dasharray:none"
     id="path1575"
     d="M 111.95332,-40.400113 A 34.577511,34.577511 0 0 1 84.838888,-71.099807 34.577511,34.577511 0 0 1 106.04886,-106.1398 l 13.22891,31.946837 z"
     transform="rotate(57.219605)" />
  <path
     style="opacity:1;fill:#b7cfe1;fill-opacity:1;stroke-width:0;stroke-dasharray:none"
     id="path1577"
     d="M 30.982701,162.3031 A 34.044495,34.044495 0 0 1 12.924188,133.29205 34.044495,34.044495 0 0 1 29.149922,103.21753 l 17.802394,29.019 z"
     transform="rotate(-45.432135)" />
  <path
     style="opacity:1;fill:#94b6d1;fill-opacity:1;stroke-width:0;stroke-dasharray:none"
     id="path1579"
     d="m 48.376541,139.52591 a 33.425266,33.425266 0 0 1 -20.116924,30.66164 33.425266,33.425266 0 0 1 -36.136118,-6.24564 l 22.827776,-24.416 z"
     transform="rotate(-58.863875)" />
  <circle
     style="fill:none;fill-opacity:0.922705;fill-rule:nonzero;stroke:#3b678c;stroke-width:8;stroke-miterlimit:4;stroke-dasharray:none;stroke-dashoffset:2.1;stroke-opacity:1"
     id="path4136"
     cx="127.15688"
     cy="59.347683"
     r="34.124748" />
  <path
     style="opacity:1;fill:#dbe6f0;fill-opacity:1;stroke-width:0;stroke-dasharray:none"
     id="path1581"
     d="m -111.57684,-119.19173 a 43.421665,43.421665 0 0 1 -34.0497,-38.55199 43.421665,43.421665 0 0 1 26.63501,-44.00244 l 16.61257,40.11812 z"
     transform="rotate(-170.19715)" />
  <path
     style="opacity:1;fill:#b7cfe1;fill-opacity:1;stroke-width:0;stroke-dasharray:none"
     id="path1583"
     d="m 160.61302,-26.857217 a 43.062206,43.062206 0 0 1 -22.84186,-36.695509 43.062206,43.062206 0 0 1 20.52361,-38.040664 l 22.5179,36.705557 z"
     transform="rotate(87.151108)" />
  <path
     style="opacity:1;fill:#94b6d1;fill-opacity:1;stroke-width:0;stroke-dasharray:none"
     id="path1585"
     d="M 232.76729,-21.112579 A 41.827713,41.827713 0 0 1 207.59337,17.256793 41.827713,41.827713 0 0 1 162.37335,9.4411176 l 28.56623,-30.5536966 z"
     transform="rotate(73.719368)" />
  <circle
     style="fill:none;fill-opacity:0.922705;fill-rule:nonzero;stroke:#3b678c;stroke-width:8;stroke-miterlimit:4;stroke-dasharray:none;stroke-dashoffset:2.1;stroke-opacity:1"
     id="path4136-2"
     cx="73.794395"
     cy="177.36417"
     r="43.499748" />
  <path
     style="opacity:1;fill:#94b6d1;fill-opacity:1;stroke-width:0;stroke-dasharray:none"
     id="path239"
     d="m 362.06303,98.449684 a 66.73497,66.73497 0 0 1 -40.16429,61.217286 66.73497,66.73497 0 0 1 -72.1473,-12.4697 l 45.57662,-48.747586 z" />
  <circle
     style="fill:none;fill-opacity:0.922705;fill-rule:nonzero;stroke:#3b678c;stroke-width:8;stroke-miterlimit:4;stroke-dasharray:none;stroke-dashoffset:2.1;stroke-opacity:1"
     id="path4136-2-2"
     cx="295.32806"
     cy="98.449684"
     r="68.946175" />
  <path
     style="opacity:1;fill:#dce6ef;fill-opacity:1;stroke-width:0;stroke-dasharray:none"
     id="path1559"
     d="m -251.81208,-42.366081 a 17.930382,17.930382 0 0 1 -10.79136,16.447887 17.930382,17.930382 0 0 1 -19.38457,-3.350364 l 12.24555,-13.097523 z"
     transform="rotate(-144.29337)" />
  <path
     style="opacity:1;fill:#b8cee0;fill-opacity:1;stroke-width:0;stroke-dasharray:none"
     id="path1557"
     d="m 200.62798,-202.9223 a 17.930382,17.930382 0 0 1 -10.79136,16.44788 17.930382,17.930382 0 0 1 -19.38457,-3.35036 l 12.24555,-13.09752 z"
     transform="rotate(92.634908)" />
  <path
     style="opacity:1;fill:#94b6d1;fill-opacity:1;stroke-width:0;stroke-dasharray:none"
     id="path1555"
     d="m 57.595146,270.15289 a 17.930382,17.930382 0 0 1 -10.791361,16.44789 17.930382,17.930382 0 0 1 -19.38457,-3.35036 l 12.245549,-13.09753 z"
     transform="rotate(-37.014664)" />
  <circle
     style="fill:none;fill-opacity:0.922705;fill-rule:nonzero;stroke:#3b678c;stroke-width:8;stroke-miterlimit:4;stroke-dasharray:none;stroke-dashoffset:2.1;stroke-opacity:1"
     id="path4136-2-21"
     cx="194.30885"
     cy="191.8331"
     r="18.053322" />
</svg>
