<?xml version="1.0" standalone="no"?>
<!DOCTYPE svg PUBLIC "-//W3C//DTD SVG 1.1//EN" "http://www.w3.org/Graphics/SVG/1.1/DTD/svg11.dtd" >
<svg xmlns="http://www.w3.org/2000/svg">
<metadata>Generated by IcoMoon</metadata>
<defs>
<font id="icomoon" horiz-adv-x="1024">
<font-face units-per-em="1024" ascent="960" descent="-64" />
<missing-glyph horiz-adv-x="1024" />
<glyph unicode="&#x20;" horiz-adv-x="512" d="" />
<glyph unicode="&#xe900;" glyph-name="microsoft-sql" d="M44.522 915.478v-445.217h445.217v445.217h-445.217zM534.261 915.478v-445.217h445.217v445.217h-445.217zM44.522 425.739v-445.217h445.217v445.217h-445.217zM534.261 425.739v-445.217h445.217v445.217h-445.217z" />
<glyph unicode="&#xe901;" glyph-name="azure-synapse" d="M511.089 959.87l-463.478-263.59-2.197-496.427 463.478-267.982 459.085 267.982v494.23l-456.888 265.786zM502.302 874.203l155.866-89.445-269.774-152.561c-17.11 12.559-38.577 20.112-61.807 20.153h-0.010c0 0-0.001 0-0.001 0-58.23 0-105.436-47.205-105.436-105.436v0c0-58.23 47.205-105.436 105.436-105.436 0 0 0.001 0 0.001 0v0c39.699 0.001 74.273 21.941 92.258 54.358l0.275 0.54c26.455-3.504 63.921-12.438 94.175-35.129 32.949-24.712 65.042-51.999 84.477-68.988-10.236-15.924-16.335-35.354-16.382-56.205v-0.012c0.045-4.025 0.308-7.936 0.779-11.783l-0.051 0.509-311.042-167.641-150.968 88.855v404.171l382.204 224.050zM736.982 739.529l151.918-87.179-2.197-410.76-382.204-221.855-158.397 93.228 267.602 147.271c18.905-18.292 44.685-29.581 73.102-29.627h0.009c58.23 0 105.435 47.205 105.436 105.436v0c0 0 0 0.001 0 0.001 0 58.23-47.205 105.436-105.436 105.436v0c-12.248-0.047-23.984-2.175-34.893-6.048l0.737 0.228c-20.411 22.774-54.307 57.031-95.441 84.896-54.55 36.954-108.857 48.479-128.387 51.621-0.248 1.228-0.369 1.754-0.494 2.278l0.144-0.717 308.501 165.794z" />
<glyph unicode="&#xe902;" glyph-name="apache-spark" d="M914.161 451.835c-0.844 1.803-1.223 2.709-1.678 3.574-12.197 23.202-24.362 46.404-36.684 69.606-1.235 2.326-1.079 3.7 0.612 5.706 19.408 22.669 38.565 45.463 58.005 68.038 0.687 0.796 1.298 1.64 1.555 3.060-5.644-1.471-11.287-2.925-16.963-4.421-23.422-6.208-47.031-12.385-70.233-18.687-2.179-0.586-3.167 0.050-4.264 1.862-13.294 22.23-26.682 44.523-40.133 66.471-0.687 1.151-1.436 2.267-2.903 3.229-1.079-5.926-2.17-11.82-3.229-17.746-3.731-20.913-7.462-41.701-11.162-62.708-0.404-2.254-0.956-4.515-1.151-6.772-0.185-2.157-1.298-2.954-3.261-3.574-27.623-8.685-55.183-17.433-82.775-26.181-1.21-0.379-2.399-0.881-3.7-2.057 22.575-8.967 45.15-17.935 68.038-27.059-0.834-0.662-1.386-1.176-1.997-1.568-14.109-9.124-28.25-18.248-42.328-27.403-1.69-1.104-3.026-1.26-4.923-0.404-16.868 7.588-33.862 15.050-50.794 22.575-7.588 3.386-14.392 7.87-19.69 14.392-12.009 14.674-9.626 31.354 6.365 41.701 5.236 3.355 11.193 5.832 17.119 7.776 27.059 8.81 54.243 17.307 81.207 25.836 2.276 0.724 3.324 1.74 3.763 4.201 3.637 20.945 7.368 42.014 11.162 62.708 2.019 11.193 3.085 22.638 8.528 32.922 2.085 3.951 4.578 7.807 7.588 11.099 10.786 11.977 25.804 12.416 37.311 1.028 3.857-3.857 7.149-8.372 10.002-13.043 12.542-20.474 24.895-41.074 37.311-61.768 1.458-2.436 2.769-2.925 5.456-2.217 30.257 8.121 60.513 16.116 90.927 24.111 6.271 1.652 12.573 2.251 19.001 1.050 13.953-2.609 20.067-13.231 15.332-26.745-2.141-6.145-5.863-11.319-10.033-16.241-21.133-24.864-42.328-49.853-63.335-74.623-1.728-2.032-1.762-3.48-0.565-5.769 12.667-23.86 25.209-47.658 37.938-71.801 3.013-5.706 5.33-11.664 5.393-18.217 0.148-14.925-10.786-27.153-25.616-29.347-8.309-1.213-16.022 0.561-23.829 2.963-18.969 5.863-37.938 11.632-57.064 17.37-1.765 0.527-2.439 1.226-2.756 3.123-2.182 13.388-4.578 26.745-6.898 40.133-0.054 0.367 0.048 0.759 0.113 1.58 21.666-5.989 43.269-11.883 65.53-18.060zM876.536 255.872c-17.119 0.020-34.176 0.109-51.421 0.034-2.267 0-3.543 0.649-4.797 2.574-20.255 30.852-40.76 61.767-60.827 92.494-0.649 0.978-1.336 1.922-2.486 3.574-4.358-33.235-8.654-65.843-12.949-98.452h-44.836c0.526 4.358 0.994 8.591 1.546 12.792 4.358 33.549 8.779 66.784 13.169 100.333 4.201 31.981 8.372 63.962 12.636 95.943 0.122 0.944 0.759 2.157 1.53 2.659 15.426 10.065 30.915 20.035 46.404 30.006 0.223 0.147 0.539 0.16 1.336 0.392-4.672-35.744-9.312-71.174-13.984-106.604 0.185-0.122 0.366-0.257 0.552-0.379 24.299 26.902 48.599 53.929 73.369 81.207 0.711-4.139 1.336-7.682 1.947-11.225 1.74-10.127 3.418-20.317 5.267-30.445 0.379-2.044-0.172-3.292-1.53-4.734-15.708-16.43-31.354-32.922-47.031-49.539-0.687-0.724-1.336-1.47-2.119-2.33 0.502-0.793 0.931-1.568 1.433-2.276 26.996-37.938 53.929-75.877 80.893-113.815 0.489-0.687 1.198-1.226 1.8-1.837v-0.599zM346.652 356.205c-0.687 3.48-1.176 8.622-2.731 13.42-7.525 23.171-31.26 35.744-55.81 30.131-26.996-6.271-46.404-27.498-48.912-55.183-2.069-20.38 8.905-40.133 29.285-47.345 16.43-5.926 32.295-3.449 47.031 5.362 19.471 11.664 30.006 29.003 31.354 53.615zM228.134 269.981c-1.323-9.971-2.596-19.345-3.825-28.752-1.64-12.479-3.292-24.989-4.86-37.625-0.182-1.458-0.624-2.107-2.192-2.094-12.322 0.041-24.644 0.034-36.998 0.054-0.282 0-0.564 0.147-1.226 0.342 0.746 5.895 1.471 11.82 2.242 17.715 2.718 20.694 5.424 41.387 8.183 62.081 3.167 23.704 5.644 47.345 9.688 70.86 7.149 41.701 42.642 77.445 84.029 86.537 24.049 5.205 47.031 2.794 68.038-10.754 20.944-13.482 32.922-33.235 35.744-57.691 3.888-34.803-8.936-63.649-33.549-87.791-16.241-15.708-35.744-25.679-58.005-29.065-23.108-3.48-44.836 0.366-64.276 13.984-0.712 0.502-1.483 0.941-2.706 1.712zM207.44 467.512c-13.796-10.284-27.121-20.192-40.447-30.131-2.154 3.386-4.076 6.772-6.334 9.939-5.801 8.121-13.012 14.172-23.484 14.893-8.716 0.614-16.179-2.251-22.105-8.685-5.299-5.738-5.989-13.921-1.041-20.411 5.456-7.149 11.413-13.921 17.527-20.537 10.127-10.974 20.694-21.509 30.727-32.608 9.124-10.033 16.43-21.258 18.687-35.117 2.684-16.304-0.574-31.668-8.277-46.091-14.266-26.494-36.684-42.014-66.471-46.718-13.106-2.116-26.149-1.703-38.879 2.060-16.963 4.985-28.783 16.116-36.371 31.668-2.681 5.55-4.734 11.413-7.149 17.37 14.83 7.933 29.285 15.677 43.896 23.484 0.502-1.213 0.869-2.229 1.336-3.198 2.499-4.985 4.546-10.284 7.619-14.893 9.187-13.639 23.986-17.778 38.879-11.037 3.857 1.74 7.588 4.17 10.754 6.992 9.657 8.591 11.476 20.568 4.327 31.354-4.107 6.208-9.249 11.789-14.266 17.339-11.977 13.294-24.456 26.181-36.057 39.82-8.058 9.344-13.545 20.192-15.301 32.608-1.897 13.67 0.834 26.526 7.933 37.938 17.652 28.564 43.269 43.269 77.131 42.328 19.345-0.699 34.803-9.751 46.718-24.801 3.543-4.452 6.867-9.061 10.472-13.89zM534.777 315.445c-2.254-17.213-4.39-33.549-6.584-49.853-0.122-0.834-0.771-1.96-1.471-2.279-33.549-15.489-77.445-13.326-104.723 17.84-14.736 16.743-20.913 36.684-20.004 58.632 2.141 51.107 44.523 95.943 95.316 102.214 29.63 3.637 55.497-4.358 75.563-27.403 13.67-15.677 20.004-34.489 19.063-55.183-0.612-13.67-2.756-27.247-4.452-40.76-2.414-19.251-5.048-38.565-7.588-57.691-0.097-0.671-0.232-1.358-0.392-2.229h-39.82c0.527 4.421 1.016 8.748 1.58 13.075 2.891 22.23 6.083 44.523 8.622 66.784 1.58 13.858 0.586 27.623-5.769 40.447-6.741 13.639-18.029 20.882-32.922 22.45-30.79 3.261-60.2-18.123-66.471-48.285-4.327-20.004 2.499-39.193 18.436-49.853 15.52-10.316 31.981-10.347 48.912-3.668 8.591 3.386 15.865 8.779 22.826 16.022zM704.089 436.785c-1.825-13.858-3.637-27.498-5.456-41.387-8.466 0-16.743 0.047-25.021-0.012-6.71-0.050-12.824-4.39-14.862-10.66-0.784-2.449-1.075-5.079-1.42-7.65-4.201-31.981-8.372-63.649-12.542-95.316-1.054-8.027-2.069-16.053-3.123-24.205h-41.701c0.771 6.114 1.505 12.040 2.276 17.966 2.706 20.631 5.424 41.387 8.152 61.767 2.364 17.84 4.484 35.744 7.274 53.615 3.731 23.829 27.435 45.15 51.421 46.090 11.476 0.502 22.983 0.085 34.803 0.085zM926.702 255.872v17.558h-0.097l-6.898-17.558h-2.192l-6.898 17.558h-0.109v-17.558h-3.449v21.039h5.362l6.271-15.991 6.177 15.991h5.33v-21.039zM896.164 274.089v-18.217h-3.449v18.217h-6.584v2.819h16.649v-2.819h-6.584zM262.937 496.985h10.315l-2.439 15.614zM274.883 486.889h-17.151l-5.456-10.692h-12.165l26.808 50.166h11.726l9.124-50.166h-11.256l-1.618 10.692zM336.305 516.111h-6.114l-2.057-11.57h6.114c3.7 0 6.616 2.424 6.616 6.992 0 3.026-1.837 4.578-4.578 4.578zM321.506 526.207h16.053c8.403 0 14.266-5.017 14.266-13.608 0-10.849-7.65-18.123-18.562-18.123h-6.929l-3.261-18.342h-10.472l8.842 50.167zM387.413 496.985h10.315l-2.436 15.614zM399.327 486.889h-17.151l-5.456-10.692h-12.165l26.808 50.166h11.726l9.124-50.166h-11.256l-1.618 10.692zM465.798 477.859c-3.543-1.618-7.431-2.584-11.35-2.584-13.263 0-21.572 9.939-21.572 22.387 0 15.928 13.388 29.316 29.316 29.316 3.982 0 7.588-0.956 10.535-2.571l-1.471-12.009c-2.204 2.436-5.769 4.139-10.159 4.139-9.124 0-17.245-8.246-17.245-17.809 0-7.274 4.578-12.981 11.789-12.981 4.421 0 8.685 1.703 11.57 4.045l-1.395-11.915zM531.641 496.358h-21.791l-3.543-20.161h-10.441l8.842 50.166h10.472l-3.512-19.816h21.791l3.543 19.816h10.472l-8.842-50.166h-10.472l3.512 20.161zM569.266 476.291l8.842 50.166h27.78l-1.765-10.096h-17.307l-1.765-9.72h15.897l-1.765-10.096h-15.897l-1.765-10.096h17.307l-1.765-10.096h-27.78z" />
<glyph unicode="&#xe903;" glyph-name="apache-impala" d="M616.060 910.29c5.427-6.55 10.219-12.96 15.3-19.769 66.149-88.659 86.027-194.854 66.779-302.995-1.224-6.877-4.847-7.173-9.982-12.128-31.764-30.649-62.34-62.412-81.328-102.75-7.979-16.955-12.031-35.994-15.915-54.496-1.16-5.534 2.784-15.929 7.126-17.822 4.875-2.125 15.112 0.775 19.091 5.099 20.243 21.996 39.735 44.744 58.45 68.064 12.77 15.912 23.832 33.194 36.862 49.272 3.523-35.183 2.913-69.763-13.207-101.294-6.784-20.081-15.524-22.457-26.431-34.556-12.411-9.308-26.71-23.464-35.497-35.282-13.73-22.006-12.999-39.786 7.576-55.202 1.292-0.791 8.072-4.039 10.268-4.527-4.654-3.115-8.749-4.13-19.414-7.231-0.379-15.989-13.703-26.647-17.599-34.12-1.843-7.164-2.53-8.246-3.114-16.233-5.029-68.716-15.178-143.080-40.739-207.754-8.641-21.863-19.057-35.555-40.697-44.618-2.588-1.086-14.713-7.375-16.273-7.708 5.327 8.461 6.337 20.956-0.722 30.545-5.067 6.881-25.284 6.497-31.824 12.792 1.245 0.286 9.921-0.37 11.156-0.411 10.309-0.355 20.062 0.169 23.086 12.862 2.425 10.182-2.996 20.351-13.254 27.486-6.971 4.852-11.779 6.229-17.733 12.306-1.44 1.47-3.614 9.554-2.107 14.886 0.116 0.436 0.507 0.751 0.972 0.751 0.258 0 0.492-0.097 0.67-0.256l-0.001 0.001c6.723-6.028 15.494-12.414 21.11-19.127 3.603-3.297 8.149-7.081 11.288-7.041 3.316 0.042 5.225 4.072 9.103 6.809 8.927 7.945 12.094 11.815 17.714 22.672 0.974 5.972-1.146 16.106-3.012 23.463-7.815 30.776-10.285 62.79-2.254 93.666 5.757 22.13 13.992 44.728 26.282 63.788 19.657 30.482 20.566 58.372-0.025 87.563-35.202 49.897-31.152 100.32-2.629 151.456 20.326 36.443 46.477 68.161 75.433 97.96 5.992 6.168 9.902 6.797 11.557 15.24 21.199 97.723 8.158 196.827-38.52 283.728-2.068 3.749-19.513 27.973-19.777 29.342 0.549 0.369 21.684-24.799 22.233-24.431zM425.163 381.847c-1.129 14.293-1.271 27.78-3.401 40.943-8.502 52.544-36.357 94.827-71.916 132.831-2.823 3.020-5.43 6.441-8.779 8.739-17.763 12.189-23.179 30.114-25.48 50.352-12.82 112.783 15.838 212.818 90.766 298.865 0.499 0.574 15.334 19.93 17.753 20.886-21.011-36.619-46.016-72.385-57.874-133.593-11.48-59.26-11.603-118.031 0.794-176.877 1.266-6.008 5.67-11.982 10.061-16.603 31.122-32.763 60.425-67.109 78.282-108.954 8.565-20.062 14.34-42.109 16.822-63.777 3.366-29.395-14.87-48.328-47.023-52.811zM393.525 289.351c28.401 18.897 49.462 13.024 61.347-12.726 12.643-27.391 20.682-66.891 22.067-97.076-7.153 17.496-17.087 45.218-24.062 62.784-3.278 8.259-7.608 14.258-17.761 14.073-9.493-0.171-15.75 5.387-17.805 14.274-0.944 4.086-2.075 10.204-4.554 12.969-4.13 4.608-10.957 4.7-19.232 5.702zM383.619 379.168c-37.066 24.81-63.881 56.598-68.958 103.975 20.401-8.753 57.398-63.79 68.96-103.975z" />
<glyph unicode="&#xe904;" glyph-name="apache-hive" d="M221.428 908.74c-12.422-8.115-24.391-19.718-37.266-32.906-21.343-22.093-35.531-43.645-57.256-59.622-4.345-3.747-16.539-9.779-31.868-10.674-7.221-0.36-11.925-1.556-25.194 0.11-11.702 6.337-22.82 2.216-33.67-10.762-11.898-17.11-26.966-49.6-33.232-70.052-12.914-52.159 20.009-95.135 51.582-128.256 28.087-27.439 44.282-44.587 55.814-69.742 8.732-16.315 15.199-38.705 22.202-54.404 2.525-4.977 2.001-4.952 8.798-6.452 14.677-3.132 35.037-3.156 53.162-4.714 7.842-0.109 18.61 0.182 28.814 1.246 14.061 2.655 30.58 5.257 44.426 10.046 13.53 3.332 25.585 7.945 36.452 12.192-1.401-4.756-11.755-9.334-15.636-15.362-36.833-52.726-46.922-99.643-40.51-173.67 3.628-32.811 11.158-60.013 22.52-91.134 5.199-14.242 16.264-36.796 26.866-51.778 20.968-29.628 59.208-64.845 111.342-91.598 0.472-0.302 0.931-0.602 1.406-0.904 0.368-0.12 0.741-0.248 1.11-0.37 24.184-12.179 51.281-22.526 81.004-29.654 19.541-6.394 46.085-6.587 105.024 11.438 4.561 1.966 9.169 3.834 13.802 5.642v-57.538h48.482v74.596c3.341 1.115 6.671 2.237 10.002 3.36v-77.958h49.030v96.28c0.4 0.174 0.806 0.338 1.206 0.514l-1.206-0.056v100.742h-49.030v-73.27h-10.002v73.27h-48.482v-104.49c-33.573-0.381-58.201 1.62-68.48 13.072 0.083 0.471 0.331 0.761 0.808 0.774 3.477 0.097 13.458 4.24 28.868 5.614-32.9 3.542-32.431 3.499-34.832 9.492-3.735 9.303-9.452 22.018-15.338 33.144 14.457-1.22 46.465-3.015 57.328 8.196 0 0-18.94-2.187-35.678-0.224-5.639 0.661-15.249 4.090-18.136 5.15-7.514 2.927-13.7 3.836-15.142 5.744-2.609 6.641-4.379 8.875-7.528 17.772-4.266 11.78-4.604 24.922-5.416 36.95 10.95-13.496 24.901-24.858 43.372-30.66 0.237 0.499 23.962-10.314 41.192-4.754l3.296 1.064c-1.689-0.327-11.504-0.73-15.326 1.162-35.040 14.894-40.316 27.929-45.974 34.404l-15.13 22.664c4.602 9.176 7.203 9.525 13.3 9.61 18.315-2.034 26.359-3.598 37.46-0.968 0.123-0.083 0.246-0.165 0.368-0.248 7.466-15.507 9.604-31.079 26.758-42.364 57.514-17.072 70.009 5.071 83.94 24.636 41.382-30.37 108.749-39.735 155.536-0.528 59.48 68.825 78.311 177.327 73.036 183.522-7.429 12.602-17.175 25.598-25.544 23.802-29.816-8.139-40.818-23.262-70.346-19.828 0 0.002 0.002 0.004 0.002 0.006 3.524 0.198 9.399 0.294 9.444 0.628 2.277 25.028-0.183 37.137-1.282 39.216-8.969 19.781-20.747 40.597-28.956 56.198-2.116 3.237-8.333 27.817-18.748 37.528-4.467 3.814-15.4 13.872-15.4 13.872l-0.462-5.332c-0.002 0.004-0.004 0.008-0.006 0.012l0.46 5.296c0 0-0.586 2.83-0.48 3.952 0.698 7.359 2.504 13.547 3.034 17.762 5.169 32.005 14.154 55.045 24.346 83.13 3.029 7.088 6.99 11.030 6.788 16.426 0.167 9.576-8.402 22.431-14.594 34.984-6.246 12.687-13.71 26.831-23.51 41.738-22.344 32.129-41.391 57.267-76.268 73-9.759 4.282-48.159 8.47-61.42 5.982-16.087-3.351-29.922-6.657-40.95-13.72-17.357-11.114-30.995-28.324-46.99-38.464-35.389 17.697-52.471 30.942-55.656 32.768-21.033 11.27-46.283 24.349-73.45 36.752-13.025 12.147-93.912 41.197-167.978 46.992l-0.008 0.006zM132.124 799.706c-0.591-0.679-1.185-1.355-1.784-2.022-0.112 0.242-0.232 0.476-0.328 0.734 0.726 0.427 1.405 0.859 2.112 1.288zM837.654 187.302l-50.948-0.002 37.304-197.478h56.302l37.304 197.478h-50.126l-12.356-84.498c-1.030-3.236-4.509-3.236-5.13 0l-12.35 84.5zM731.752 187.3v-197.478h47.222v197.478h-47.222zM927.64 187.3v-197.478h93.736v51.782l-52.12 0.444v22.2h24.83v51.408h-24.83v19.862h52.12v51.782h-93.736zM658.839 794.084c6.35-0.577 40.524-54.633 42.129-63.628 2.842-19.663 9.85-41.705 11.735-62.279-5.629 19.731-11.762 39.462-19.429 59.193-2.242 5.434-7.909 17.717-23.662 35.091-7.335 12.246-8.918 21.872-10.772 31.621zM799.772 425.697l-4.625-2.318c-0.656 13.549-15.207 12.554-27.478 12.679l-10.066 2.454c3.061-2.833 12.522-2.611 8.706-8.726-3.212-1.717-4.69-9.083-6.529-15.27l-5.441-0.273c9.612-3.756 18.529-7.049 29.11-11.452l6.257-0.954 14.963 8.044zM306.286 141.169l6.922-0.677c41.033-20.147 108.595-50.019 206.408-33.967l15.348-24.15c-43.077-20.933-89.407-16.116-132.823-17.584zM247.375 300.442l20.555-86.29c55.030-34.399 149.033-73.8 227.389-70.62l-17.316 39.731c-163.564 34.734-177.398 78.643-230.625 117.187z" />
<glyph unicode="&#xe905;" glyph-name="apache-cassandra" d="M742.030 710.3c0 0-47.734-54.866-70.68-63.8-2.407 0.644-4.838 1.271-7.29 1.88l29.36 59.55c0 0-26.15-52.993-62.64-52.63-2.333 0.397-4.682 0.778-7.040 1.15 5.162 7.823 9.124 14.993 11.93 20.77 8.63 14.823 12.32 25.78 12.32 25.78s-31.594-50.766-70.66-37.040c-2.33 0.818-2.733 2.94-2.050 5.64 3.488 4.922 7.010 8.98 7.010 8.98s-2.097-2.001-5.34-4.73c3.805 7.61 11.79 16.67 11.79 16.67s-26.194-25.5-44.14-22.33c-17.95 3.166 1.060 35.89 1.060 35.89s-20.522-32.14-31.83-43.57c-2.703-0.1-5.43-0.255-8.15-0.39-1.337 8.932 5.14 31.29 5.14 31.29s-14.618-23.883-26.99-32.71c-0.509-0.042-1.011-0.066-1.52-0.11-3.606-0.309-7.168-0.694-10.74-1.060-6.557 8.068 3.35 37.040 3.35 37.040s-4.111-12.142-9.52-22.75c1.49 6.086 3.080 10.82 3.080 10.82s-3.096-9.166-7.42-18.5c-3.43-5.145-7.079-8.569-10.41-7.57-10.565 3.161-12.68 27.45-12.68 27.45s-1.059-11.201-4.89-21.13c-1.152 5.047-1.55 9.19-1.55 9.19s-0.969-9.982-4.27-19.46c-0.46-0.509-0.922-1.011-1.42-1.45-44.62-7.881-85.522-20.145-120.63-35.6-83.686-32.369-175.655-88.988-282.15-195.48 4.583 2.47 9.068 4.982 13.49 7.52-6.596-6.32-13.22-12.76-19.93-19.47 67.339 36.294 116.345 80.346 175.59 118.71-9.338-16.534-13.793-33.743-12.3-51.14 3.472-40.499 37.983-74.69 91.72-97.99-2.413 0.679-4.961 1.37-7.34 2.040-95.807 27.005-171.82-21.025-254.96 20.68 11.611-9.198 24.278-18.24 46.39-24.020-14.286 2.683-28.641 7.207-43.22 14.52 19.228-15.232 41.177-30.094 104.52-30.29 20.601-0.058 84.573 3.050 100.96-6.47-5.091-18.394-43.95-55.090-43.95-55.090s17.705 14.961 38.47 29.67c-13.082-18.196-35.31-39.18-35.31-39.18s82.592 69.837 100.32 56.080c-0.966-19.499-27.47-56.080-27.47-56.080s11.824 15.93 26.47 30.74c-7.747-18.807-23.3-40.24-23.3-40.24s32.724 44.375 57.010 53.84c15.508 6.043 28.745 5.78 40.17-7.76-3.698-17.836-38.59-58.74-38.59-58.74s15.659 15.24 32.62 29.98c-11.522-18.478-29.45-39.49-29.45-39.49s61.768 60.18 72.85 57.010c0.569-0.163 1.063-0.484 1.52-0.9 1.507-16.51-4.69-46.6-4.69-46.6s2.901 6.903 7.080 15.84c-1.437-13.117-3.91-25.35-3.91-25.35s22.081 52.956 34.31 58.3c-4.699-29.891-40.65-116.89-40.65-116.89s9.863 18.062 22.67 40.41c-9.918-26.553-19.5-49.92-19.5-49.92s66.717 122.345 79.18 125.11c8.172 1.818 15.299-10.282 20.99-25.89 7.259-23.559 11.48-50.13 11.48-50.13s-0.814 6.413-1.74 15.38c3.1-13.879 4.9-24.88 4.9-24.88s-10.414 78.871 0.79 83.93c19.008 8.601 29.941 2.736 35.83-10.36 9.576-40.039-8.9-116.32-8.9-116.32s5.010 12.67 10.66 29.88c-3.352-22.25-7.49-39.38-7.49-39.38s40.229 99.074 22.69 133.11c-0.254 1.26-0.55 2.481-0.89 3.65 27.982-19.868 43.472-45.291 52.060-68.87 9.487-32.036 6.9-58.39 6.9-58.39s1.973 4.333 2.92 13.55c1.151-13.956 0.25-23.050 0.25-23.050s11.917 26.238-9.28 87.73c-5.201 16.869-13.178 36.807-24.77 59.86 30.064-1.248 73.63-77.91 73.63-77.91s-5.792 10.452-12.010 23.9c5.388-8.417 8.84-14.4 8.84-14.4s-12.306 21.838-20.42 43.84c-5.581 18.4-6.427 34.664 7.76 35.34 31.711 1.508 49.67-25.080 59.87-53.12 8.246-27.208 9.81-52.99 9.81-52.99s0.907 0.855 1.81 3.18c0.912-7.289 1.36-12.68 1.36-12.68s12.258 10.629-8.85 72.64c-4.989 15.958-12.639 36.105-23.57 60.8 34.264 19.099 114.76-108.1 114.76-108.1s-8.436 14.201-18.98 32.85c9.485-13.484 15.82-23.35 15.82-23.35s-45.703 76.446-60.19 114.26c-1.497 5.582-1.78 9.604 0.010 10.85 12.136 8.448 56.48-40.12 56.48-40.12s-6.76 9.387-13.43 20.090c5.988-5.956 10.27-10.58 10.27-10.58s-15.915 21.878-23 37.14c-0.276 2.202 0.037 3.865 1.35 4.56 8.966 4.751 98.72-92.39 98.72-92.39s-13.572 16.411-28.47 36.27c14.348-14.934 25.31-26.76 25.31-26.76s-50.206 60.28-63.67 90.66c-0.46 2.958-0.106 5.22 1.37 6.47 8.127 6.877 31.66-5.86 49.62-17.4-10.611 7.588-22.869 16.765-33.040 25.61 9.458-3.691 20.377-9.993 29.81-16.050-17.238 12.329-39.594 29.4-48.22 40.9 0.358 0.725 0.921 1.368 1.83 1.84 24.286 12.612 93.43-30.16 93.43-30.16s-11.494 9.528-21.44 19.77c10.644-5.64 18.28-10.26 18.28-10.26s-23.272 19.161-32.18 32.37c0.123 0.32 0.291 0.621 0.51 0.89 6.858 8.444 88.67-53.85 88.67-53.85s-30.316 23.951-52.71 44.71c23.833-15.729 49.55-35.21 49.55-35.21s-56.926 44.906-72.28 64.95c6.632 7.658 56.45-7.93 56.45-7.93s-17.862 8.31-35.3 17.58c15.388-2.907 32.13-8.080 32.13-8.080s-44.092 20.483-61.32 33.010c10.577 0.194 40.73-12.43 40.73-12.43s-14.445 11.814-31.11 19.47c12.644-3.61 27.94-9.96 27.94-9.96s-17.451 14.258-36.14 21.58c90.673 5.083 146.89 91.7 146.89 91.7s-8.813-10.157-22.22-21.9c18.466 18.282 28.67 33.84 28.67 33.84s-55.558-63.995-99.98-56.43c33.5 26.976 57.64 71.93 57.64 71.93s-1.167-1.154-1.77-1.76c5.095 8.060 8.22 13.7 8.22 13.7s-73.554-75.964-128.030-70.59c22.036 21.164 37.852 46.747 47.98 66.27 13.25 22.997 19.86 41.27 19.86 41.27s-55.567-85.761-94.96-99.6c17.25 18.642 29.497 38.665 37.7 54.58 13.273 22.849 19.26 40.81 19.26 40.81s-45.234-66.463-83.91-79.41c20.617 20.991 31.107 37.824 36.32 49.12 10.926 17.938 11.7 28.17 11.7 28.17s-51.678-66.75-86.29-80.41c-2.91 1.933-6.006 3.78-9.12 5.62 23.563 30.061 38.782 58.89 42.66 66.5 0.028 0.050 0.042 0.081 0.070 0.13 5.363 9.503 8.33 15.55 8.33 15.55s-47.598-64.54-70.86-71.61c-3.531 1.673-7.157 3.289-10.87 4.86 0.097 1.466 0.688 3.315 1.5 5.31 6.157 9.627 13.61 18.88 13.61 18.88s-2.395-2.086-5.73-4.82c5.819 8.813 12.17 16.77 12.17 16.77s-28.737-25.535-43.17-26.63c18.295 20.342 39.9 57.97 39.9 57.97s-1.98-2.183-2.4-2.66c5.237 8.405 8.84 14.6 8.84 14.6zM841.2 399.35c12.312-8.806 22.23-15.39 22.23-15.39s-9.823 7.424-22.23 15.39zM844.43 389.79c12.28-8.781 22.17-15.34 22.17-15.34s-9.797 7.39-22.17 15.34zM809.48 543.43c9.34-5.012 17.242-9.134 23.72-11.77-6.241-1.942-11.455-6.551-14.63-15.2-3.853-7.332-8.081-14.382-12.58-21.21 4.529 12.007 6.511 24.275 5.45 36.64-0.336 3.913-1.055 7.749-1.96 11.54z" />
<glyph unicode="&#xe906;" glyph-name="AWS-Redshift" d="M414.34 954.41l-146.98-73.49v-104.97l-140.83 33.53-73.49-36.74v-649.17l73.49-36.74 140.83 33.53v-107.020l146.98-73.49 0.17 2.050h195.67l0.17-2.050 146.97 73.49v107.020l140.84-33.53 73.48 36.74v649.17l-73.48 36.74-140.84-33.53v104.97l-144.98 72.49v1h-198z" />
<glyph unicode="&#xe907;" glyph-name="google-spanner" d="M297.31 888.92c-22.673-0.030-43.612-12.136-54.95-31.77l-212.44-368c-11.352-19.662-11.352-43.888 0-63.55l212.44-367.99c11.318-19.6 32.207-31.701 54.84-31.77h425c22.672 0.031 43.612 12.136 54.95 31.77l212.44 367.99c11.352 19.662 11.352 43.888 0 63.55l-212.44 368c-11.297 19.563-32.13 31.659-54.72 31.77h-425.12zM540.49 648.73l49.26-25.23v-70.89l-42.050-26.43v-69.68l63.88-36.89 40.49 23.38 60.65-35.020-4.030-52.39-48.25 27.85-28.86-16.66 1.42-18.4 52.87-28.84-43.26-34.84-66.080 38.45 2.41 45.65-58.87 37.25-66.080-36.050 3.6-49.26-61.27-37.24-48.060 34.84 54.060 31.24-2.4 22.83-20.42 10.81-50.47-31.24-6 57.67 66.080 37.25 39.64-27.64 62.48 36.050-1.2 74.49-40.85 19.22-2.4 73.29 52.86 25.23v-58.87l18.020-13.22 22.83 12.020v61.27z" />
<glyph unicode="&#xe908;" d="M297.31 888.92c-23.364-0.031-43.771-12.667-54.788-31.47l-0.162-0.3-212.44-368c-5.353-9.115-8.514-20.076-8.514-31.775s3.161-22.66 8.677-32.075l-0.162 0.3 212.44-367.99c11.161-19.072 31.518-31.697 54.83-31.77h425.010c23.364 0.031 43.771 12.667 54.788 31.47l0.162 0.3 212.44 367.99c5.353 9.115 8.514 20.076 8.514 31.775s-3.161 22.66-8.677 32.075l0.162-0.3-212.44 368c-11.141 19.038-31.444 31.652-54.703 31.77h-425.137zM509.23 639.010c95.787-2.841 172.356-81.171 172.356-177.384 0-41.052-13.94-78.849-37.344-108.914l0.298 0.398c0.924-0.514 1.717-1.126 2.407-1.837l65.273-65.273c1.851-1.848 2.996-4.403 2.996-7.225s-1.145-5.377-2.996-7.225v0l-17.090-17.090c-1.849-1.854-4.405-3.001-7.23-3.001s-5.381 1.147-7.23 3.001v0l-65.27 65.27c-0.662 0.662-1.233 1.415-1.693 2.238l-0.027 0.052c-29.853-23.597-68.037-37.851-109.55-37.851-98.007 0-177.457 79.45-177.457 177.457s79.45 177.457 177.457 177.457c1.793 0 3.581-0.027 5.361-0.079l-0.261 0.006zM498.7 595.15c-71.418-2.936-128.203-61.545-128.203-133.417 0-73.743 59.78-133.523 133.523-133.523 0.081 0 0.162 0 0.243 0h-0.012c73.741 0.002 133.52 59.781 133.52 133.523 0 0.002 0 0.005 0 0.007v0c0 0.001 0 0.001 0 0.002 0 73.743-59.78 133.523-133.523 133.523-1.951 0-3.892-0.042-5.822-0.125l0.275 0.009zM485.67 514.62h35.67v-149.12c-5.362-1.036-11.529-1.629-17.835-1.629s-12.473 0.593-18.448 1.726l0.613-0.097v149.12zM454.58 469.19v-91.76c-14.936 8.881-27.011 21.136-35.427 35.763l-0.253 0.477v55.18l35.68 0.34zM553.23 446.48h35.68v-32.69c-8.682-15.061-20.755-27.278-35.228-35.881l-0.452-0.249v68.82z" />
<glyph unicode="&#xe909;" d="M418.904 468.85v-55.176c8.666-15.107 20.74-27.365 35.225-36l0.45-0.249v91.768z" />
<glyph unicode="&#xe90a;" d="M485.666 514.62v-149.124c5.363-1.037 11.531-1.63 17.837-1.63s12.474 0.593 18.451 1.727l-0.614-0.097v149.124z" />
<glyph unicode="&#xe90b;" d="M588.905 413.789v32.693h-35.675v-68.826c14.923 8.854 26.995 21.072 35.423 35.66l0.252 0.474z" />
<glyph unicode="&#xe90c;" d="M506.481 611.627h-188.363c6.453-35.645 31.65-57.462 62.071-57.462 19.359 0 43.634 2.458 61.456 32.879l58.383-12.291c-21.817-51.623-66.065-76.513-120.147-76.513-70.060 0-126.907 53.16-126.907 130.902s57.154 131.516 127.829 131.516c66.065 0 122.912-51.009 125.371-126.6v-22.432zM319.961 657.719h119.532c-8.297 31.65-32.265 45.785-58.383 45.785-24.89-0.307-53.16-15.057-61.149-45.785z" />
<glyph unicode="&#xe90d;" d="M295.736 122.914h-62.413v20.218c-19.046-17.581-44.832-27.544-77.942-27.544-60.068 0-115.742 50.692-115.742 124.825s55.673 125.411 115.742 125.411c33.111 0 59.189-9.963 77.942-27.544v111.346h62.413v-326.713zM233.323 240.706c0 43.659-33.697 70.91-67.101 70.91-37.799 0-66.222-27.544-66.222-70.91 0-43.659 28.423-70.324 66.222-70.324 33.697 0 67.101 26.958 67.101 70.324z" />
<glyph unicode="&#xe90e;" d="M806.463 358.499v0h-86.147v-52.157h86.147c24.027 0 40.143-10.256 40.143-33.99v-3.809h-67.98c-59.482 0-93.765-30.181-93.765-75.598 0-46.297 36.041-77.063 89.956-77.063 32.232 0 55.673 10.842 71.789 26.371v-19.339h59.775v154.127c0 56.259-39.557 80.287-99.919 81.459zM846.607 218.437c0-30.181-28.716-53.036-61.826-53.036-24.027 0-40.143 11.428-40.143 28.716 0 16.116 13.186 26.958 33.111 26.958h69.152v-2.637z" />
<glyph unicode="&#xe90f;" d="M437.556 358.499v0h-86.147v-52.157h86.147c24.027 0 40.143-10.256 40.143-33.99v-3.809h-67.98c-59.482 0-93.765-30.181-93.765-75.598 0-46.297 36.041-77.063 89.956-77.063 32.232 0 55.673 10.842 71.789 26.371v-19.339h59.482v154.127c0 56.259-39.557 80.287-99.626 81.459zM477.699 218.437c0-30.181-28.716-53.036-61.826-53.036-24.027 0-40.143 11.428-40.143 28.716 0 16.116 13.186 26.958 33.111 26.958h69.152v-2.637z" />
<glyph unicode="&#xe910;" d="M809.46 752.361v0h-90.341v-54.696h90.341c25.197 0 42.098-10.755 42.098-35.645v-3.995h-71.289c-62.378 0-98.33-31.65-98.33-79.279 0-48.55 37.796-80.815 94.335-80.815 33.801 0 58.383 11.369 75.284 27.655v-20.281h62.685v161.63c0 58.998-41.483 84.195-104.783 85.424zM851.557 605.481c0-31.65-30.114-55.618-64.836-55.618-25.197 0-42.098 11.984-42.098 30.114 0 16.9 13.828 28.27 34.723 28.27h72.518v-2.766z" />
<glyph unicode="&#xe911;" d="M684.089 752.669c-40.254 0-68.831-15.979-88.804-44.863v45.17h-65.451v-247.361h65.451v79.893c0 68.831 27.655 112.158 88.19 112.158h3.073v55.003c-0.922 0-1.536 0-2.458 0z" />
<glyph unicode="&#xe912;" d="M240.682 565.227c-9.833-3.687-20.281-6.146-28.27-6.146-21.817 0-36.259 12.906-36.259 42.712v97.715h66.987v53.467h-66.987v60.534h-65.451v-216.94c0-67.909 38.717-98.637 97.101-98.637 20.588 0 40.561 4.302 65.758 18.13-13.213 13.52-25.812 30.114-32.879 49.165z" />
<glyph unicode="&#xe913;" d="M665.229 174.777c-2.637-0.293-4.981-0.586-7.032-0.586-20.804 0-34.576 12.307-34.576 40.729v93.179h65.636v50.985h-65.636v57.724h-62.413v-206.87c0-64.757 36.92-94.058 92.593-94.058 13.772 0 25.785 2.051 40.143 7.618-18.46 13.186-25.492 34.869-28.716 51.278z" />
<glyph unicode="&#xe914;" d="M1010.403 158.955c0-22.269-16.995-39.557-41.022-39.557-23.734 0-41.022 16.995-41.022 39.557 0 21.39 16.995 39.85 41.022 39.85s41.022-18.753 41.022-39.85z" />
<glyph unicode="&#xe915;" glyph-name="vertica" d="M415.091 577.872h231.156v62.345h-267.604l-150.587-266.165-150.108 266.165h-71.457l222.044-392.773zM646.247 419.612v62.345h-265.686v-217.248h265.686v62.345h-203.341v92.558zM945.503 264.708h62.345l-92.079 168.811c39.325 15.826 67.141 54.672 67.141 99.272 0 59.468-47.958 107.425-107.425 107.425h-203.341v-375.509h62.345v161.138h123.251l87.763-161.138zM734.489 577.872h140.996c24.938 0 45.080-20.142 45.080-45.080s-20.142-45.080-45.080-45.080h-140.996v90.16z" />
<glyph unicode="&#xe916;" glyph-name="orientDB" d="M572.169 951.8c0 0-57.576-58.69-84.875-119.587-21.296-47.504-39.493-130.747-39.493-130.747s39.862 9.568 62.184 9.568c22.323 0 63.781-11.16 63.781-11.16s-22.694 80.561-24.755 113.208c-1.82 28.82 23.159 138.718 23.159 138.718zM201.98 842.454c0 0 1.189-82.206 25.251-144.453 18.77-48.557 65.115-120.061 65.115-120.061s21.251 35.058 36.958 50.92c15.707 15.862 52.807 37.465 52.807 37.465s-73.211 40.559-97.859 62.066c-21.759 18.985-82.272 114.064-82.272 114.064zM908.378 761.167c0 0-82.212-0.937-144.532-24.809-48.614-18.622-120.259-64.751-120.259-64.751s34.991-21.358 50.805-37.113c15.814-15.755 37.307-52.919 37.307-52.919s40.783 73.086 62.364 97.668c19.052 21.701 114.315 81.924 114.315 81.924zM765.431 513.893c0 0 9.301-39.923 9.151-62.245s-11.588-63.705-11.588-63.705c0 0 80.714 22.154 113.374 23.996 28.831 1.627 138.56-24.086 138.56-24.086s-58.302 57.967-119.015 85.674c-47.36 21.613-130.481 40.367-130.481 40.367zM262.053 510.1c0 0-80.423-23.174-113.057-25.431-28.808-1.992-138.855 22.328-138.855 22.328s59.031-57.225 120.090-84.16c47.631-21.011 130.984-38.709 130.984-38.709s-9.809 39.804-9.942 62.127c-0.133 22.322 10.779 63.845 10.779 63.845zM734.884 315.744c0 0-21.501-34.905-37.321-50.653s-53.073-37.088-53.073-37.088c0 0 72.919-41.081 97.413-62.763 21.623-19.14 81.456-114.646 81.456-114.646s-0.602 82.212-24.219 144.629c-18.423 48.69-64.255 120.521-64.255 120.521zM293.525 313.771c0 0-41.639-72.604-63.507-96.931-19.305-21.476-115.268-80.575-115.268-80.575s82.216-0.027 144.813 23.112c48.83 18.050 121.010 63.331 121.010 63.331s-34.739 21.766-50.366 37.706c-15.628 15.94-36.681 53.357-36.681 53.357zM450.724 198.207c0 0 23.704-80.27 26.175-112.888 2.182-28.795-21.415-138.999-21.415-138.999s56.833 59.405 83.365 120.64c20.697 47.768 37.846 131.232 37.846 131.232s-39.738-10.065-62.058-10.344c-22.321-0.28-63.914 10.359-63.914 10.359z" />
<glyph unicode="&#xe917;" glyph-name="Postgresql" d="M730.107 959.996c-34.916-0.189-65.433-4.834-88.223-9.704-12.155-2.597-22.096-5.268-29.397-7.446-1.084-0.323-1.708-0.552-2.675-0.852-22.539 3.953-46.522 6.608-72.974 7.036h-0.011c-50.273 0.825-93.484-11.365-128.27-31.738-34.348 11.928-105.504 32.49-180.573 28.412-52.164-2.834-109.274-18.754-151.468-63.349s-64.461-113.642-59.764-207.529c1.296-25.909 8.637-68.172 20.893-122.873s29.414-118.759 50.898-177.197c21.484-58.438 44.999-110.953 81.74-146.664 18.37-17.856 43.616-32.918 73.456-31.651 20.91 0.887 39.766 10.082 56.097 23.536 7.946-10.431 16.41-15.020 24.133-19.247 9.743-5.332 19.224-8.872 29.037-11.326 17.627-4.408 47.774-10.314 83.128-4.268 12.043 2.060 24.717 5.926 37.361 11.552 0.482-14.128 1.018-27.894 1.578-41.862v-0.004c1.774-44.183 2.848-85.017 16.122-120.845v-0.004c2.15-5.802 7.978-35.967 31.018-62.58s68.238-43.232 119.673-32.209c36.236 7.765 82.414 21.781 113.035 65.381 30.303 43.146 43.972 104.962 46.659 205.264 0.679 5.392 1.512 10.054 2.341 14.35l7.195-0.633 0.906-0.043c38.7-1.761 80.685 3.772 115.761 20.063 31.077 14.42 54.583 28.966 71.691 54.77 4.277 6.451 8.972 14.154 10.247 27.47s-6.329 34.12-19.020 43.764c-25.382 19.288-41.354 11.966-58.495 8.428-22.62-4.666-38.751-6-51.286-6.245 49.339 83.117 84.743 171.36 104.917 249.467 11.914 46.128 18.628 88.607 19.2 125.785s-2.47 70.095-24.741 98.553v0.004c-69.594 88.923-167.444 113.505-243.15 114.409-2.366 0.028-4.712 0.038-7.040 0.025zM728.072 932.728c71.616 0.665 163.158-19.47 228.836-103.392 14.771-18.877 19.167-46.481 18.643-80.431s-6.813-74.595-18.298-119.058c-22.289-86.294-64.225-186.859-123.491-277.027 1.482-1.093 3.57-2.328 6.573-3.57 12.347-5.111 40.589-9.519 96.881 2.1 14.165 2.926 24.56 5.015 35.333-3.182 5.387-4.099 8.377-12.265 7.806-18.197s-2.886-10.256-5.598-14.346c-5.045-7.608-12.415-15.022-21.598-22.066 1.287-0.24 1.216-0.663-0.421-0.32-10.487-7.983-23.308-15.486-37.825-22.227h-0.004c-24.395-11.322-59.303-17.259-90.33-17.6-15.513-0.171-29.854 1.032-42.024 4.814-0.156 0.049-0.305 0.109-0.46 0.158-5.184-48.128-16.206-136.855-22.821-175.184v-0.004c-5.666-32.863-15.497-58.954-34.326-78.526s-45.373-31.351-81.172-39.026c-0.001-0.001-0.002-0.002-0.003-0.003l-0.001-0.001c-44.28-9.486-76.592 0.737-97.409 18.272s-30.34 40.716-36.038 54.957c0 0.001 0 0.002 0 0.004s0 0.003 0 0.004v0c-3.936 9.846-5.998 22.536-7.95 39.515s-3.406 37.765-4.412 61.203c-1.373 31.988-1.877 68.922-1.564 107.333-20.866-18.838-44.261-28.377-65.924-32.083-29.39-5.028-55.667-0.103-71.338 3.818-7.308 1.827-15.040 4.73-22.22 8.658s-14.128 8.336-18.783 16.967c-2.327 4.316-3.752 10.366-2.391 16.273s5.064 10.695 9.294 14.145c8.461 6.9 19.631 10.695 36.523 14.177 0.001 0 0.001 0 0.002 0s0.001 0 0.002 0v0c30.648 6.311 41.341 10.617 47.907 15.849 5.701 4.542 10.899 12.734 22.875 26.772-0.028 0.475-0.056 0.949-0.090 1.424-20.294 0.501-39.584 5.957-56.841 15.263-10.557-11.191-42.612-45.61-78.896-89.262 0-0.001 0-0.001 0-0.002s0-0.001 0-0.002v0c-16.716-20.096-35.279-31.566-54.821-32.396s-37.246 8.982-52.25 23.565c-30.008 29.166-53.976 79.304-74.815 135.989s-37.786 119.812-49.834 173.58c-12.047 53.769-19.188 97.155-20.232 118.040-4.445 88.874 16.311 148.757 51.98 186.542s84.593 52.081 132.243 54.813c11.912 0.683 23.812 0.666 35.52 0.115 68.028-3.202 128.851-24.253 147.782-31.389 31.665 21.512 72.51 34.845 123.437 34.010 25.843-0.424 49.789-3.722 71.932-9.23 0.244 0.116 0.473 0.224 0.629 0.291 0.415 0.178 0.72 0.292 1.064 0.424 1.376 0.527 3.258 1.182 5.954 2.046 5.392 1.728 13.74 4.165 24.503 6.68 21.526 5.032 52.652 10.386 88.46 10.718zM734.583 904.054c-2.095 0.017-4.177 0.016-6.245-0.004-28.254-0.262-53.598-3.952-72.827-7.924 53.325-23.522 93.4-60.056 121.729-96.273 23.29-29.775 38.93-59.332 48.345-81.956 4.708-11.312 7.855-20.825 9.654-28.225 0.899-3.7 1.5-6.751 1.679-10.075 0.089-1.662 0.204-3.315-0.482-6.166-0.022-0.092-0.055-0.2-0.079-0.295 1.361-37.668-8.149-62.863-9.291-98.679 0-0.001 0-0.002 0-0.004s0-0.003 0-0.004v0c-0.84-25.866 5.771-56.244 7.407-89.409 1.538-31.197-2.018-65.473-22.332-99.132 1.656-2.049 3.318-4.082 4.915-6.066 53.482 84.297 91.89 177.675 112.424 257.176 11.054 42.797 16.917 81.6 17.391 112.324s-5.283 53.020-12.556 62.314c-57.285 73.198-134.78 91.861-199.734 92.397zM530.132 893.152c-50.463-0.14-86.643-15.391-114.071-38.227-28.313-23.573-47.271-55.862-59.757-88.949-14.51-38.448-20.039-77.267-22.145-103.126 0.267 0.15 0.507 0.299 0.777 0.449 15.247 8.49 35.272 17.076 56.701 22.019 10.714 2.471 21.837 4.093 32.899 4.088s22.061-1.639 32.529-5.681c20.936-8.084 38.226-27.22 44.487-56.169 30.053-138.982-9.346-190.681-23.853-229.717v0.007c-6.079-16.383-11.324-30.933-14.317-43.089 1.899 0.489 3.788 0.822 5.656 0.985 10.245 0.895 18.285-2.6 23.058-4.577 0.001 0 0.001 0 0.002 0s0.001 0 0.002 0v0c14.59-6.048 24.667-18.768 30.055-33.305 1.46-3.94 2.541-8.134 3.157-12.44 0.46-1.345 0.726-2.894 0.726-4.506 0-0.193-0.004-0.386-0.011-0.577l0.001 0.027c-1.585-56.67-1.379-113.587 0.593-159.536 0.986-22.975 2.421-43.223 4.253-59.16 1.832-15.935 4.446-28.041 6.084-32.14v-0.004c5.458-13.644 13.452-31.515 27.883-43.671s35.11-20.263 72.924-12.164c32.788 7.029 53.015 16.83 66.517 30.864s21.563 33.574 26.725 63.518c0 0.001 0 0.001 0 0.002s0 0.001 0 0.002v0c7.702 44.624 23.144 173.634 25.1 198.875-0.897 18.604 1.877 32.852 7.817 43.739 6.079 11.143 15.45 17.898 23.587 21.562 4.009 1.806 7.797 3.051 10.938 3.973-2.45 3.549-5.904 8.182-10.38 13.836-8.684 10.966-19.735 25.873-28.404 46.893-0.926 2.244-5.29 10.426-10.973 20.62s-12.868 23.035-20.372 37.436c-15.009 28.802-31.366 63.728-39.845 97.722s-9.721 69.134 11.987 93.972c19.245 22.020 52.89 31.15 103.518 26.028-1.465 4.52-2.371 8.135-4.872 14.145-8.479 20.376-23.017 47.893-44.458 75.304-42.882 54.822-112.305 109.18-219.585 110.939-1.658 0.027-3.302 0.037-4.929 0.032zM247.5 890.88c-5.691 0.013-11.39-0.131-17.068-0.457-43.11-2.472-83.863-14.977-113.025-45.868s-48.39-81.561-44.196-165.415c0-0.001 0-0.001 0-0.002s0-0.001 0-0.002v0c0.793-15.861 7.743-60.359 19.581-113.194s28.572-115.029 48.766-169.96c20.194-54.931 44.61-102.701 67.883-125.321 11.637-11.31 21.798-15.864 31.040-15.471s20.382 5.73 33.978 22.073c32.812 39.475 63.162 72.519 77.045 87.371-35.876 30.738-57.161 80.509-49.611 134.497 4.406 31.509 4.997 60.996 4.473 84.315-0.516 22.958-2.157 38.653-2.15 48.047 0 0.147-0.008 0.327-0.007 0.471 0 0.001 0 0.001 0 0.002s0 0.001 0 0.002v0c0 0.010 0 0.018 0 0.029-0.069 2.719-1.581 72.982 25.262 144.111 12.015 31.838 29.838 64.112 56.561 90.298-29.135 9.481-83.515 24.354-138.531 24.475zM775.806 665.481c-28.963-0.398-45.245-7.919-53.753-17.654-12.101-13.845-13.223-38.176-5.746-68.153s22.915-63.522 37.447-91.409c7.266-13.944 14.284-26.501 19.984-36.724s9.893-17.477 12.44-23.651c2.386-5.786 4.966-10.934 7.633-15.669 11.309 23.736 13.211 47.111 12.013 71.41-1.478 29.978-8.438 60.664-7.428 91.747 1.164 36.481 8.823 59.872 9.377 88.104-9.548 1.187-18.217 1.836-26.006 1.981-2.045 0.038-4.031 0.044-5.961 0.018zM424.388 660.584c-8.306 0.004-17.275-1.134-26.308-3.218-18.067-4.167-36.171-11.877-49.194-19.128-6.511-3.626-11.794-7.182-14.9-9.708-0.524-0.426-0.526-0.489-0.913-0.841 0.216-6.239 1.467-21.349 1.967-43.599 0.547-24.338-0.046-55.346-4.742-88.931-10.205-72.974 42.731-133.395 104.971-133.48 3.62 14.975 9.596 30.126 15.54 46.145 0 0.002 0 0.004 0 0.005s0 0.004 0 0.006v0c17.35 46.686 51.451 80.718 22.706 213.656-4.695 21.709-13.99 30.538-26.779 35.477-6.395 2.469-14.041 3.612-22.346 3.617zM764.369 649.46c8.015-0.199 13.935-2.453 14.425-5.965 0.654-4.692-8.585-17.211-20.653-18.884-12.053-1.68-22.365 8.105-23.026 12.793-0.637 4.692 8.608 9.858 20.663 11.538 3.014 0.42 5.918 0.584 8.59 0.518zM426.355 639.896c2.672 0.066 5.577-0.097 8.59-0.518 12.069-1.68 21.31-6.85 20.656-11.542-0.654-4.687-10.96-14.469-23.004-12.789-12.065 1.673-21.319 14.192-20.656 18.884h0.004c0.478 3.51 6.396 5.767 14.411 5.965zM815.169 331.232c-0.030-0.011-0.071-0.028-0.101-0.040-6.292-2.218-11.456-3.145-15.784-5.095s-7.416-4.073-10.182-9.143c-2.684-4.92-5.002-13.591-4.325-28.412 0.755-0.592 2.798-1.845 6.289-2.93 7.33-2.278 19.58-3.673 33.197-3.524 27.233 0.299 60.749 6.67 78.569 14.939 16.963 7.878 31.399 18.296 40.176 26.229-59.455-12.271-93.075-9.027-113.647-0.511-5.916 2.449-10.414 5.412-14.191 8.485zM472.41 327.195c-0.303 0.008-0.594 0-0.877-0.025-2.27-0.198-5.561-0.929-11.88-8-0.035-0.055-0.037-0.058-0.040-0.062l0.032 0.051c-14.877-16.618-20.035-27.086-32.298-36.858s-28.196-14.964-59.998-21.512c-10.053-2.072-15.799-4.294-19.646-6.094 1.221-0.989 1.096-1.18 2.981-2.211 4.619-2.527 10.609-4.793 15.414-5.994 0.001 0 0.001 0 0.002 0s0.001 0 0.002 0v0c13.71-3.431 36.111-7.383 59.534-3.376s47.785 15.213 68.591 44.347c-0.079-0.036-0.077-0.035-0.075-0.034l0.082 0.038c3.574 5.003 3.975 12.46 1.021 20.43s-9.519 14.854-14.141 16.769c-3.943 1.633-6.586 2.479-8.705 2.531z" />
<glyph unicode="&#xe918;" glyph-name="mariadb" d="M391.987 392.707l153.578 49.852c0 0 70.758 26.534 98.097 48.646s39.4 37.389 39.4 37.389l30.515 43.284 28.144 47.191 16.488 27.575c0 0 30.703 56.857 77.893 82.726s101.489 22.743 101.489 22.743l8.244 0.569c0 0 45.485 18.763 65.101 20.468s5.117-57.709 1.706-64.532c-3.411-6.823-15.92-24.448-19.331-27.291s-53.729-37.81-65.954-49.465c-12.224-11.656-18.194-19.9-19.616-22.743s-7.96-19.616-7.96-19.616l-38.662-159.198c0 0-21.321-67.375-29.281-83.011s-28.713-53.445-45.485-71.071c-16.773-17.626-50.318-36.957-50.318-36.957l5.117 46.622c0 0 1.421 2.843-3.127 2.843s-22.467-71.649-72.208-117.977c-68.524-63.822-132.476-57.994-132.476-57.994s45.77 44.064 63.679 94.95c17.91 50.887 20.753 91.539 20.753 91.539s-4.549 4.833-17.057-30.134c-12.508-34.967-23.599-48.355-23.599-48.355-5.34-4.94-26.845-6.105-72.188-2.445s-114.298 15.691-152.96 13.843c-77.325-3.696-113.144-38.947-124.516-46.907s-98.93-60.268-134.181-68.512c-35.251-8.244-59.984-11.371-65.101-3.411s35.82 62.542 35.82 62.542l-62.258 44.064c0 0 11.94 18.194 29.281 22.174s95.235-7.391 95.235-7.391c0 0 35.535-7.676 53.445-1.706s42.927 44.632 42.927 44.632c0 0 31.555 47.76 81.021 78.462s88.347 36.598 88.347 36.598z" />
<glyph unicode="&#xe919;" glyph-name="oracle" d="M319.425 731.538c-9.669-0.082-19.328-0.576-28.948-1.48h-2.351v-0.263c-160.984-14.883-283.643-140.26-283.809-290.101 0.003-149.953 122.704-275.501 283.809-290.396v-1.449h393.871c9.11-0.791 18.252-1.215 27.401-1.269 174.029 0 315.108 130.663 315.108 291.844-0.208 155.863-132.617 284.067-300.729 291.179v0.454h-9.822c-1.518 0.080-3.037 0.151-4.557 0.211-2.144-0.050-4.288-0.121-6.43-0.211l-349.085 0.125c-10.507 0.984-23.898 1.353-34.459 1.355zM346.919 630.025c1.72-0.058 3.44-0.133 5.158-0.226l342.391-0.185c118.217-3.722 211.895-89.376 212.031-192.882 0-106.287-98.472-192.449-219.942-192.448-6.006 0.047-12.008 0.309-17.99 0.786l-324.797 0.197c-120.177 1.505-216.719 87.144-216.794 192.31 0 106.287 98.472 192.449 219.942 192.448z" />
<glyph unicode="&#xe964;" glyph-name="database" d="M512 960c-282.77 0-512-71.634-512-160v-128c0-88.366 229.23-160 512-160s512 71.634 512 160v128c0 88.366-229.23 160-512 160zM512 416c-282.77 0-512 71.634-512 160v-192c0-88.366 229.23-160 512-160s512 71.634 512 160v192c0-88.366-229.23-160-512-160zM512 128c-282.77 0-512 71.634-512 160v-192c0-88.366 229.23-160 512-160s512 71.634 512 160v192c0-88.366-229.23-160-512-160z" />
</font>
</defs>
</svg>
