<?xml version="1.0" encoding="UTF-8" standalone="no"?>
<!-- Created with Inkscape (http://www.inkscape.org/) -->

<svg
   xmlns:dc="http://purl.org/dc/elements/1.1/"
   xmlns:cc="http://creativecommons.org/ns#"
   xmlns:rdf="http://www.w3.org/1999/02/22-rdf-syntax-ns#"
   xmlns:svg="http://www.w3.org/2000/svg"
   xmlns="http://www.w3.org/2000/svg"
   xmlns:xlink="http://www.w3.org/1999/xlink"
   xmlns:sodipodi="http://sodipodi.sourceforge.net/DTD/sodipodi-0.dtd"
   xmlns:inkscape="http://www.inkscape.org/namespaces/inkscape"
   width="232.02837mm"
   height="28.767868mm"
   viewBox="0 0 822.14775 101.93339"
   id="svg2"
   version="1.1"
   inkscape:version="0.91 r13725"
   sodipodi:docname="logo-knowage8.svg">
  <defs
     id="defs4">
    <linearGradient
       id="linearGradient4392"
       inkscape:collect="always">
      <stop
         id="stop4394"
         offset="0"
         style="stop-color:#042d5f;stop-opacity:1" />
      <stop
         id="stop4396"
         offset="1"
         style="stop-color:#cf0752;stop-opacity:0.99607843" />
    </linearGradient>
    <linearGradient
       inkscape:collect="always"
       id="linearGradient4322">
      <stop
         style="stop-color:#000000;stop-opacity:1;"
         offset="0"
         id="stop4324" />
      <stop
         style="stop-color:#000000;stop-opacity:0;"
         offset="1"
         id="stop4326" />
    </linearGradient>
    <clipPath
       id="clipPath4156"
       clipPathUnits="userSpaceOnUse">
      <path
         inkscape:connector-curvature="0"
         id="path4158"
         d="m 0,159.261 1137.401,0 L 1137.401,0 0,0 0,159.261 Z" />
    </clipPath>
    <clipPath
       id="clipPath4164"
       clipPathUnits="userSpaceOnUse">
      <path
         inkscape:connector-curvature="0"
         id="path4166"
         d="m 33.8727,159.261 89.2973,0 0,-158.856932 -89.2973,0 0,158.856932 z" />
    </clipPath>
    <linearGradient
       inkscape:collect="always"
       xlink:href="#linearGradient4322"
       id="linearGradient4328"
       x1="0"
       y1="79.630501"
       x2="1137.4003"
       y2="79.630501"
       gradientUnits="userSpaceOnUse" />
    <linearGradient
       inkscape:collect="always"
       xlink:href="#linearGradient4392"
       id="linearGradient4360"
       x1="-0.51106572"
       y1="-126.97087"
       x2="-0.41868046"
       y2="-159.1187"
       gradientUnits="userSpaceOnUse" />
    <linearGradient
       inkscape:collect="always"
       xlink:href="#linearGradient4392"
       id="linearGradient4362"
       x1="66.335976"
       y1="28.454456"
       x2="66.916397"
       y2="-0.2622031"
       gradientUnits="userSpaceOnUse" />
    <linearGradient
       inkscape:collect="always"
       xlink:href="#linearGradient4392"
       id="linearGradient4364"
       x1="108.65376"
       y1="-130.52621"
       x2="107.91046"
       y2="-158.34543"
       gradientUnits="userSpaceOnUse" />
    <linearGradient
       inkscape:collect="always"
       xlink:href="#linearGradient4392"
       id="linearGradient4366"
       x1="1.7916622"
       y1="-106.86941"
       x2="0.52633864"
       y2="-135.46251"
       gradientUnits="userSpaceOnUse" />
    <linearGradient
       inkscape:collect="always"
       xlink:href="#linearGradient4392"
       id="linearGradient4368"
       x1="-38.241089"
       y1="-130.52631"
       x2="-38.32608"
       y2="-159.1194"
       gradientUnits="userSpaceOnUse" />
    <linearGradient
       inkscape:collect="always"
       xlink:href="#linearGradient4392"
       id="linearGradient4370"
       x1="-14.655223"
       y1="-130.93031"
       x2="-14.567671"
       y2="-159.52341"
       gradientUnits="userSpaceOnUse" />
    <linearGradient
       inkscape:collect="always"
       xlink:href="#linearGradient4392"
       id="linearGradient4372"
       x1="12.58096"
       y1="28.330889"
       x2="10.962038"
       y2="-0.2622031"
       gradientUnits="userSpaceOnUse" />
    <linearGradient
       inkscape:collect="always"
       xlink:href="#linearGradient4392"
       id="linearGradient4390"
       x1="45.748951"
       y1="-128.1152"
       x2="45.116879"
       y2="-159.11931"
       gradientUnits="userSpaceOnUse" />
    <linearGradient
       inkscape:collect="always"
       xlink:href="#linearGradient4322"
       id="linearGradient4400"
       gradientUnits="userSpaceOnUse"
       x1="0"
       y1="79.630501"
       x2="1137.4003"
       y2="79.630501" />
    <linearGradient
       inkscape:collect="always"
       xlink:href="#linearGradient4322"
       id="linearGradient4402"
       gradientUnits="userSpaceOnUse"
       x1="0"
       y1="79.630501"
       x2="1137.4003"
       y2="79.630501" />
    <linearGradient
       inkscape:collect="always"
       xlink:href="#linearGradient4322"
       id="linearGradient4404"
       gradientUnits="userSpaceOnUse"
       x1="0"
       y1="79.630501"
       x2="1137.4003"
       y2="79.630501" />
    <linearGradient
       inkscape:collect="always"
       xlink:href="#linearGradient4322"
       id="linearGradient4406"
       gradientUnits="userSpaceOnUse"
       x1="0"
       y1="79.630501"
       x2="1137.4003"
       y2="79.630501" />
    <linearGradient
       inkscape:collect="always"
       xlink:href="#linearGradient4322"
       id="linearGradient4408"
       gradientUnits="userSpaceOnUse"
       x1="0"
       y1="79.630501"
       x2="1137.4003"
       y2="79.630501" />
    <linearGradient
       inkscape:collect="always"
       xlink:href="#linearGradient4322"
       id="linearGradient4410"
       gradientUnits="userSpaceOnUse"
       x1="0"
       y1="79.630501"
       x2="1137.4003"
       y2="79.630501" />
    <linearGradient
       inkscape:collect="always"
       xlink:href="#linearGradient4322"
       id="linearGradient4412"
       gradientUnits="userSpaceOnUse"
       x1="0"
       y1="79.630501"
       x2="1137.4003"
       y2="79.630501" />
    <linearGradient
       inkscape:collect="always"
       xlink:href="#linearGradient4322"
       id="linearGradient4414"
       gradientUnits="userSpaceOnUse"
       x1="0"
       y1="79.630501"
       x2="1137.4003"
       y2="79.630501" />
    <linearGradient
       inkscape:collect="always"
       xlink:href="#linearGradient4322"
       id="linearGradient4416"
       gradientUnits="userSpaceOnUse"
       x1="0"
       y1="79.630501"
       x2="1137.4003"
       y2="79.630501" />
    <linearGradient
       inkscape:collect="always"
       xlink:href="#linearGradient4322"
       id="linearGradient4418"
       gradientUnits="userSpaceOnUse"
       x1="0"
       y1="79.630501"
       x2="1137.4003"
       y2="79.630501" />
    <linearGradient
       inkscape:collect="always"
       xlink:href="#linearGradient4322"
       id="linearGradient4420"
       gradientUnits="userSpaceOnUse"
       x1="0"
       y1="79.630501"
       x2="1137.4003"
       y2="79.630501" />
    <linearGradient
       inkscape:collect="always"
       xlink:href="#linearGradient4322"
       id="linearGradient4422"
       gradientUnits="userSpaceOnUse"
       x1="0"
       y1="79.630501"
       x2="1137.4003"
       y2="79.630501" />
    <linearGradient
       inkscape:collect="always"
       xlink:href="#linearGradient4322"
       id="linearGradient4424"
       gradientUnits="userSpaceOnUse"
       x1="0"
       y1="79.630501"
       x2="1137.4003"
       y2="79.630501" />
  </defs>
  <sodipodi:namedview
     id="base"
     pagecolor="#ffffff"
     bordercolor="#666666"
     borderopacity="1.0"
     inkscape:pageopacity="0.0"
     inkscape:pageshadow="2"
     inkscape:zoom="1.3660665"
     inkscape:cx="331.75312"
     inkscape:cy="28.109582"
     inkscape:document-units="px"
     inkscape:current-layer="layer1"
     showgrid="false"
     showguides="true"
     inkscape:guide-bbox="true"
     fit-margin-top="0"
     fit-margin-left="0"
     fit-margin-right="0"
     fit-margin-bottom="0"
     inkscape:window-width="1920"
     inkscape:window-height="1027"
     inkscape:window-x="-8"
     inkscape:window-y="-8"
     inkscape:window-maximized="1">
    <sodipodi:guide
       position="569.70505,102.3953"
       orientation="0,1"
       id="guide4226" />
    <sodipodi:guide
       position="814.7015,-0.16782044"
       orientation="0,1"
       id="guide4228" />
    <sodipodi:guide
       position="494.80492,18.1329"
       orientation="0,1"
       id="guide4398" />
  </sodipodi:namedview>
  <metadata
     id="metadata7">
    <rdf:RDF>
      <cc:Work
         rdf:about="">
        <dc:format>image/svg+xml</dc:format>
        <dc:type
           rdf:resource="http://purl.org/dc/dcmitype/StillImage" />
        <dc:title />
      </cc:Work>
    </rdf:RDF>
  </metadata>
  <g
     inkscape:label="Livello 1"
     inkscape:groupmode="layer"
     id="layer1"
     transform="translate(-10.294936,-201.39554)">
    <g
       transform="matrix(0.64003989,0,0,-0.64003989,10.294936,303.32893)"
       inkscape:label="logotipo_knowag"
       id="g4144"
       style="fill:url(#linearGradient4328);fill-opacity:1">
      <path
         inkscape:connector-curvature="0"
         id="path4146"
         style="fill:url(#linearGradient4372);fill-opacity:1;fill-rule:nonzero;stroke:none"
         d="m 0,0 23.543,0 0,158.314 L 0,158.314 0,0 Z" />
      <g
         transform="translate(248.3154,158.8572)"
         id="g4148"
         style="fill:url(#linearGradient4400);fill-opacity:1">
        <path
           inkscape:connector-curvature="0"
           id="path4150"
           style="fill:url(#linearGradient4368);fill-opacity:1;fill-rule:nonzero;stroke:none"
           d="M 0,0 0,-110.217 -73.959,0 l -22.612,0 0,-158.857 22.628,0 0,112.078 78.387,-112.078 18.991,0 L 23.435,0 0,0 Z" />
      </g>
      <g
         id="g4152"
         style="fill:url(#linearGradient4424);fill-opacity:1">
        <g
           clip-path="url(#clipPath4156)"
           id="g4154"
           style="fill:url(#linearGradient4422);fill-opacity:1">
          <g
             id="g4160"
             style="fill:url(#linearGradient4410);fill-opacity:1">
            <g
               id="g4162"
               style="fill:url(#linearGradient4402);fill-opacity:1" />
            <g
               id="g4168"
               style="fill:url(#linearGradient4408);fill-opacity:1">
              <g
                 style="opacity:0.99607801;fill:url(#linearGradient4406);fill-opacity:1"
                 id="g4170"
                 clip-path="url(#clipPath4164)">
                <g
                   id="g4172"
                   transform="translate(90.8453,159.2612)"
                   style="fill:url(#linearGradient4404);fill-opacity:1">
                  <path
                     inkscape:connector-curvature="0"
                     id="path4174"
                     style="fill:url(#linearGradient4370);fill-opacity:1;fill-rule:nonzero;stroke:none"
                     d="m 0,0 31.921,0 -57.377,-78.296 57.781,-80.561 -32.325,0 -56.973,79.753 L 0,0 Z" />
                </g>
              </g>
            </g>
          </g>
          <g
             transform="translate(380.669,135.2003)"
             id="g4176"
             style="fill:url(#linearGradient4412);fill-opacity:1">
            <path
               inkscape:connector-curvature="0"
               id="path4178"
               style="fill:url(#linearGradient4366);fill-opacity:1;fill-rule:nonzero;stroke:none"
               d="m 0,0 c 38.915,0 57.011,-28.304 57.011,-55.086 0,-30.782 -21.525,-58.286 -57.011,-58.286 -34.344,0 -57.013,31.503 -57.012,58.286 C -57.013,-26.017 -31.487,0 0,0 m 1.159,23.656 c -43.866,0 -79.427,-35.561 -79.428,-79.428 0.001,-43.867 35.562,-79.428 79.428,-79.428 43.867,0 79.428,35.561 79.428,79.428 0,43.867 -35.561,79.428 -79.428,79.428" />
          </g>
          <g
             transform="translate(494.4,158.8571)"
             id="g4180"
             style="fill:url(#linearGradient4414);fill-opacity:1">
            <path
               inkscape:connector-curvature="0"
               id="path4182"
               style="fill:url(#linearGradient4364);fill-opacity:1;fill-rule:nonzero;stroke:none"
               d="m 0,0 24.571,0 0,-126.286 L 109.143,0 l 0,-126.857 L 196.571,0 l 29.143,0 -108,-158.857 -30.857,0 0,82.286 -57.143,-82.286 -29.143,0 L 0,0 Z" />
          </g>
          <g
             transform="translate(664.6857,0)"
             id="g4184"
             style="fill:url(#linearGradient4416);fill-opacity:1">
            <path
               inkscape:connector-curvature="0"
               id="path4186"
               style="fill:url(#linearGradient4362);fill-opacity:1;fill-rule:nonzero;stroke:none"
               d="m 0,0 110.286,158.857 28.685,0 0,-158.857 -22.4,0 0,127.429 L 30.857,0 0,0 Z" />
          </g>
          <g
             transform="translate(924.2283,158.8565)"
             id="g4188"
             style="fill:url(#linearGradient4418);fill-opacity:1">
            <path
               inkscape:connector-curvature="0"
               id="path4190"
               style="fill:url(#linearGradient4360);fill-opacity:1;fill-rule:nonzero;stroke:none"
               d="m 0,0 c -43.867,0 -79.428,-35.561 -79.428,-79.428 0,-43.867 35.561,-79.428 79.428,-79.428 44.322,0 76.825,33.769 76.202,77.257 l -15.345,-0.114 -70.799,0.457 0,-24 60.019,0 c -8.628,-18.463 -26.552,-31.772 -51.236,-31.772 -34.345,-0.001 -57.013,31.503 -57.013,58.286 0,29.068 25.526,55.086 57.013,55.086 28.208,0 45.468,-14.874 52.836,-33.258 l 24.509,0 C 66.478,-24.014 36.046,0 0,0" />
          </g>
          <g
             transform="translate(1043.1033,158.8571)"
             id="g4192"
             style="fill:url(#linearGradient4420);fill-opacity:1">
            <path
               inkscape:connector-curvature="0"
               id="path4194"
               style="fill:url(#linearGradient4390);fill-opacity:1;fill-rule:nonzero;stroke:none"
               d="m 0,0 0,-158.857 94.077,0 0,19.581 -75.49,0 0,48.487 75.71,0 -0.571,21.011 -74.331,0 0,50.055 74.584,0 L 93.979,0 0,0 Z" />
          </g>
        </g>
      </g>
    </g>
    <g
       id="text4222">
      <path
         d="m 829.72171,229.99431 q 0,7.14259 -3.57129,12.66799 -3.57129,5.52539 -9.8379,8.82716 7.14258,3.43652 11.32032,9.50098 4.17774,5.99708 4.17774,14.15041 0,13.07228 -8.89454,20.68655 -8.89454,7.54688 -24.19046,7.54688 -15.29591,0 -24.25783,-7.61427 -8.96193,-7.61426 -8.96193,-20.61916 0,-8.15333 4.17774,-14.21779 4.17774,-6.06446 11.25294,-9.4336 -6.26661,-3.30177 -9.8379,-8.82716 -3.50391,-5.5254 -3.50391,-12.66799 0,-12.53321 8.35548,-19.94533 8.35548,-7.4795 22.70803,-7.4795 14.28517,0 22.64065,7.41212 8.42286,7.34473 8.42286,20.01271 z m -17.45216,43.7315 q 0,-6.40138 -3.70606,-10.2422 -3.70606,-3.84082 -9.97267,-3.84082 -6.19923,0 -9.90529,3.84082 -3.70605,3.77344 -3.70605,10.2422 0,6.26661 3.63867,10.10743 3.63868,3.84083 10.10743,3.84083 6.334,0 9.90529,-3.70606 3.63868,-3.70606 3.63868,-10.2422 z m -2.02149,-42.78813 q 0,-5.72755 -3.03223,-9.16408 -3.03223,-3.50391 -8.55763,-3.50391 -5.45801,0 -8.49024,3.36915 -3.03223,3.36914 -3.03223,9.29884 0,5.86231 3.03223,9.4336 3.03223,3.57129 8.55762,3.57129 5.5254,0 8.49025,-3.57129 3.03223,-3.57129 3.03223,-9.4336 z"
         style="font-style:normal;font-variant:normal;font-weight:bold;font-stretch:normal;font-size:138.00015259px;font-family:roboto;-inkscape-font-specification:'roboto Bold';fill:#cf0753;fill-opacity:0.99607843"
         id="path4193"
         inkscape:connector-curvature="0" />
    </g>
  </g>
</svg>
