<?xml version="1.0" encoding="UTF-8" standalone="no"?>
<svg
   xmlns:dc="http://purl.org/dc/elements/1.1/"
   xmlns:cc="http://creativecommons.org/ns#"
   xmlns:rdf="http://www.w3.org/1999/02/22-rdf-syntax-ns#"
   xmlns:svg="http://www.w3.org/2000/svg"
   xmlns="http://www.w3.org/2000/svg"
   xmlns:sodipodi="http://sodipodi.sourceforge.net/DTD/sodipodi-0.dtd"
   xmlns:inkscape="http://www.inkscape.org/namespaces/inkscape"
   height="512pt"
   viewBox="0 0 512 512"
   width="512pt"
   version="1.1"
   id="svg4"
   sodipodi:docname="dropdown.svg"
   inkscape:version="0.92.3 (2405546, 2018-03-11)">
  <sodipodi:namedview
     pagecolor="#ffffff"
     bordercolor="#666666"
     borderopacity="1"
     objecttolerance="10"
     gridtolerance="10"
     guidetolerance="10"
     inkscape:pageopacity="0"
     inkscape:pageshadow="2"
     inkscape:window-width="1920"
     inkscape:window-height="1027"
     id="namedview6"
     showgrid="false"
     showguides="false"
     inkscape:zoom="0.70710678"
     inkscape:cx="504.62733"
     inkscape:cy="408.85217"
     inkscape:window-x="-8"
     inkscape:window-y="-8"
     inkscape:window-maximized="1"
     inkscape:current-layer="svg4" />
  <metadata
     id="metadata10">
    <rdf:RDF>
      <cc:Work
         rdf:about="">
        <dc:format>image/svg+xml</dc:format>
        <dc:type
           rdf:resource="http://purl.org/dc/dcmitype/StillImage" />
        <dc:title />
      </cc:Work>
    </rdf:RDF>
  </metadata>
  <defs
     id="defs8" />
  <path
     id="path2"
     d="m 403.11215,210.49953 28.2539,28.3125 -66.55078,66.40234 -67.22656,-66.32031 28.09375,-28.47656 38.97266,38.44922 z M 39.635586,312.14406 v -121.5 c 0,-11.02734 8.972656,-20 20,-20 H 451.63559 c 11.02734,0 20,8.97266 20,20 v 124.5 c 0.12034,13.37352 -6.39932,19.5 -20.25,19.5 H 59.135594 c -10.737655,-0.64627 -19.125008,-6.77676 -19.500008,-22.5 z m 412.000004,-181.5 H 59.635586 c -33.085938,0 -60.00000006,26.91406 -60.00000006,60 v 122.00001 c 0,33.08594 26.91406206,60 60.00000006,60 H 451.63559 c 33.08593,0 60,-26.91406 60,-60 V 190.64406 c 0,-33.08594 -26.91407,-60 -60,-60 z"
     inkscape:connector-curvature="0"
     sodipodi:nodetypes="ccccccccssssccccsssssssss" />
</svg>
