<?xml version="1.0" encoding="UTF-8" standalone="no"?>
<svg
   xmlns:dc="http://purl.org/dc/elements/1.1/"
   xmlns:cc="http://creativecommons.org/ns#"
   xmlns:rdf="http://www.w3.org/1999/02/22-rdf-syntax-ns#"
   xmlns:svg="http://www.w3.org/2000/svg"
   xmlns="http://www.w3.org/2000/svg"
   xmlns:sodipodi="http://sodipodi.sourceforge.net/DTD/sodipodi-0.dtd"
   xmlns:inkscape="http://www.inkscape.org/namespaces/inkscape"
   height="512pt"
   viewBox="0 0 512 512"
   width="512pt"
   version="1.1"
   id="svg4">
  <metadata
     id="metadata10">
    <rdf:RDF>
      <cc:Work
         rdf:about="">
        <dc:format>image/svg+xml</dc:format>
        <dc:type
           rdf:resource="http://purl.org/dc/dcmitype/StillImage" />
        <dc:title />
      </cc:Work>
    </rdf:RDF>
  </metadata>
  <defs
     id="defs8" />
  <path
     id="path4631-1"
     style="color-interpolation:sRGB;stroke-width:3.01634884;color-rendering:auto;image-rendering:auto;shape-rendering:auto"
     d="m 245.69322,107.32202 c -7.50472,0 -13.59064,7.49457 -13.59064,16.73642 v 33.47284 c 0,9.24185 6.08592,16.73642 13.59064,16.73642 h 244.63187 c 7.5048,0 13.59064,-7.49457 13.59064,-16.73642 v -33.47284 c 0,-9.24185 -6.08584,-16.73642 -13.59064,-16.73642 z m 0.10848,234.30322 c -7.56462,0 -13.69912,7.49457 -13.69912,16.73641 v 33.47284 c 0,9.24186 6.1345,16.73643 13.69912,16.73643 h 246.5844 c 7.5647,0 13.69912,-7.49457 13.69912,-16.73643 v -33.47284 c 0,-9.24184 -6.13442,-16.73641 -13.69912,-16.73641 z M 104.49999,318.16948 c -33.085936,0 -59.999998,26.91406 -59.999998,60 0,33.08594 26.914062,60 59.999998,60 33.08595,0 60.00001,-26.91406 60.00001,-60 0,-33.08594 -26.91406,-60 -60.00001,-60 z m 0,160 c -55.140623,0 -99.999998,-44.85938 -99.999998,-100 0,-55.14063 44.859375,-100 99.999998,-100 55.14063,0 100.00001,44.85937 100.00001,100 0,55.14062 -44.85938,100 -100.00001,100 z m 0,-360 c -11.027342,0 -19.999998,8.97266 -19.999998,20 0,11.02734 8.972656,20 19.999998,20 11.02734,0 20,-8.97266 20,-20 0,-11.02734 -8.97266,-20 -20,-20 z m 0,-39.999997 c -33.085936,0 -59.999998,26.914067 -59.999998,59.999997 0,33.08594 26.914062,60 59.999998,60 33.08595,0 60.00001,-26.91406 60.00001,-60 0,-33.08593 -26.91406,-59.999997 -60.00001,-59.999997 z m 0,159.999997 c -55.140623,0 -99.999998,-44.85938 -99.999998,-100 0,-55.140622 44.859375,-99.999997 99.999998,-99.999997 55.14063,0 100.00001,44.859375 100.00001,99.999997 0,55.14062 -44.85938,100 -100.00001,100 z"
	 />
</svg>
