<?xml version="1.0" encoding="UTF-8" standalone="no"?>
<svg
   xmlns:dc="http://purl.org/dc/elements/1.1/"
   xmlns:cc="http://creativecommons.org/ns#"
   xmlns:rdf="http://www.w3.org/1999/02/22-rdf-syntax-ns#"
   xmlns:svg="http://www.w3.org/2000/svg"
   xmlns="http://www.w3.org/2000/svg"
   xmlns:sodipodi="http://sodipodi.sourceforge.net/DTD/sodipodi-0.dtd"
   xmlns:inkscape="http://www.inkscape.org/namespaces/inkscape"
   version="1.1"
   id="Capa_1"
   x="0px"
   y="0px"
   viewBox="0 0 56.967 56.967"
   style="enable-background:new 0 0 56.967 56.967;"
   xml:space="preserve"
   width="512px"
   height="512px"
   class=""
   sodipodi:docname="archive.svg"
   inkscape:version="0.92.3 (2405546, 2018-03-11)"><metadata
   id="metadata17"><rdf:RDF><cc:Work
       rdf:about=""><dc:format>image/svg+xml</dc:format><dc:type
         rdf:resource="http://purl.org/dc/dcmitype/StillImage" /></cc:Work></rdf:RDF></metadata><defs
   id="defs15" /><sodipodi:namedview
   pagecolor="#ffffff"
   bordercolor="#666666"
   borderopacity="1"
   objecttolerance="10"
   gridtolerance="10"
   guidetolerance="10"
   inkscape:pageopacity="0"
   inkscape:pageshadow="2"
   inkscape:window-width="1920"
   inkscape:window-height="1027"
   id="namedview13"
   showgrid="false"
   inkscape:zoom="1.3037281"
   inkscape:cx="316.72252"
   inkscape:cy="253.17958"
   inkscape:window-x="-8"
   inkscape:window-y="-8"
   inkscape:window-maximized="1"
   inkscape:current-layer="Capa_1" /><g
   transform="translate(0.66758202)"
   id="g10"><g
     id="g8">
	<path
   style="opacity:0.503"
   d="m 39,25.581908 v 7 H 17 v -7 H 0.052 c -0.028,0 -0.052,0.024 -0.052,0.053 v 19.563 c 0,1.317 1.067,2.384 2.384,2.384 h 51.231 c 1.317,0 2.384,-1.067 2.384,-2.384 v -19.563 c 0,-0.029 -0.024,-0.052 -0.052,-0.052 H 39 Z"
   data-original="#1081E0"
   class=""
   id="path2"
   inkscape:connector-curvature="0" />
	<path
   style="opacity:0.80800003"
   d="M 41,10.653381 21.106,10.581908 H 21 10 l -9.981,14.953 c -0.009,0.023 0.008,0.047 0.032,0.047 H 17 v 7 h 22 v -7 h 16.949 c 0.025,0 0.041,-0.025 0.032,-0.047 l -8.584685,-14.82491 z"
   data-original="#13649B"
   class=""
   id="path4"
   inkscape:connector-curvature="0"
   sodipodi:nodetypes="cccccsccccsccc" />
	
</g></g> </svg>