<?xml version="1.0" encoding="UTF-8" standalone="no"?>
<!-- Generator: Adobe Illustrator 25.4.1, SVG Export Plug-In . SVG Version: 6.00 Build 0)  -->

<svg
   xmlns:dc="http://purl.org/dc/elements/1.1/"
   xmlns:cc="http://creativecommons.org/ns#"
   xmlns:rdf="http://www.w3.org/1999/02/22-rdf-syntax-ns#"
   xmlns:svg="http://www.w3.org/2000/svg"
   xmlns="http://www.w3.org/2000/svg"
   xmlns:sodipodi="http://sodipodi.sourceforge.net/DTD/sodipodi-0.dtd"
   xmlns:inkscape="http://www.inkscape.org/namespaces/inkscape"
   version="1.1"
   id="svg2"
   sodipodi:docname="logoCover_2.0.svg"
   x="0px"
   y="0px"
   viewBox="0 0 1147.4 266.4"
   style="enable-background:new 0 0 1147.4 266.4;"
   xml:space="preserve"
   inkscape:version="0.91 r13725"
   inkscape:export-filename="C:\Users\Davide\Desktop\logoCover2.png"
   inkscape:export-xdpi="71"
   inkscape:export-ydpi="71"><metadata
     id="metadata21"><rdf:RDF><cc:Work
         rdf:about=""><dc:format>image/svg+xml</dc:format><dc:type
           rdf:resource="http://purl.org/dc/dcmitype/StillImage" /></cc:Work></rdf:RDF></metadata><defs
     id="defs19" /><style
     type="text/css"
     id="style3">
	.st0{fill:#042D57;}
	.st1{fill:#CF0753;}
	.st2{fill:#042D56;}
	.st3{fill:none;}
	.st4{font-family:'Roboto-Light';}
	.st5{font-size:53px;}
</style><sodipodi:namedview
     bordercolor="#666666"
     borderopacity="1"
     fit-margin-bottom="5"
     fit-margin-left="5"
     fit-margin-right="5"
     fit-margin-top="10"
     gridtolerance="10"
     guidetolerance="10"
     id="namedview82"
     inkscape:current-layer="svg2"
     inkscape:cx="-595.03335"
     inkscape:cy="130.72"
     inkscape:pageopacity="0"
     inkscape:pageshadow="2"
     inkscape:window-height="1027"
     inkscape:window-maximized="1"
     inkscape:window-width="1920"
     inkscape:window-x="-8"
     inkscape:window-y="-8"
     inkscape:zoom="0.31914893"
     objecttolerance="10"
     pagecolor="#ffffff"
     showgrid="false" /><g
     id="layer1"
     transform="translate(5,10)"><rect
       id="rect4147"
       y="0.9"
       class="st0"
       width="23.5"
       height="158.3" /><path
       id="path4159"
       inkscape:connector-curvature="0"
       class="st0"
       d="M151.7,159.3V0.4h22.6l74,110.2V0.4h23.4v158.9h-19   L174.4,47.2v112.1L151.7,159.3z" /><path
       id="path4163"
       inkscape:connector-curvature="0"
       class="st1"
       d="M90.8,0h31.9L65.4,78.3l57.8,80.6H90.8l-57-79.8L90.8,0z" /><path
       id="path4165"
       inkscape:connector-curvature="0"
       class="st2"
       d="M381.8,0.4c-43.9,0-79.4,35.6-79.4,79.4   c0,43.9,35.6,79.4,79.4,79.4c43.9,0,79.4-35.6,79.4-79.4S425.7,0.4,381.8,0.4C381.8,0.4,381.8,0.4,381.8,0.4z M380.7,24.1   c38.9,0,57,28.3,57,55.1c0,30.8-21.5,58.3-57,58.3c-34.4,0-57-31.5-57-58.3C323.7,50.1,349.2,24.1,380.7,24.1z" /><path
       id="path4170"
       inkscape:connector-curvature="0"
       class="st2"
       d="M494.4,0.4H519v126.3L603.5,0.4v126.9L691,0.4h29.1   l-108,158.9h-30.9V77l-57.2,82.3H495L494.4,0.4z" /><path
       id="path4172"
       inkscape:connector-curvature="0"
       class="st2"
       d="M664.7,159.3L775,0.4h28.7v158.9h-22.4V31.8l-85.8,127.4   H664.7z" /><path
       id="path4174"
       inkscape:connector-curvature="0"
       class="st2"
       d="M924.2,0.4c-43.9,0-79.4,35.6-79.4,79.5   c0,43.8,35.6,79.4,79.4,79.4c44.3,0,76.8-33.8,76.2-77.3l-15.3,0.1l-70.8-0.5v24h60c-8.6,18.5-26.5,31.8-51.2,31.8   c-34.3,0-57-31.5-57-58.3c0-29.1,25.5-55.1,57-55.1c28.2,0,45.5,14.9,52.8,33.3h24.5C990.4,23.6,959.4,0.4,924.2,0.4z" /><path
       id="path4182"
       inkscape:connector-curvature="0"
       class="st2"
       d="M1043.1,0.4v158.9h94.1v-19.6h-75.5V91.2h75.7l-0.6-21h-74.3   V20.1h74.6V0.4H1043.1z" /></g><rect
     x="4"
     y="202.3"
     class="st3"
     width="1138"
     height="65"
     id="rect15" /><g
     style="font-size:53.5909729px;font-family:Roboto-Light;fill:#042d57"
     id="text17"><path
       d="m 22.398739,211.4578 q -5.02366,0 -7.992186,3.74491 -2.945691,3.74491 -2.945691,10.20717 0,6.43941 2.945691,10.18432 2.968526,3.74491 7.992186,3.74491 5.02366,0 7.946516,-3.74491 2.945692,-3.74491 2.945692,-10.18432 0,-6.46226 -2.945692,-10.20717 -2.922856,-3.74491 -7.946516,-3.74491 z m 0,-3.74491 q 7.170133,0 11.463078,4.81815 4.292946,4.79531 4.292946,12.87884 0,8.06069 -4.292946,12.87883 -4.292945,4.79531 -11.463078,4.79531 -7.192967,0 -11.508748,-4.79531 -4.2929451,-4.79531 -4.2929451,-12.87883 0,-8.08353 4.2929451,-12.87884 4.315781,-4.81815 11.508748,-4.81815 z"
       style="font-size:46.76570511px"
       id="path4146" /><path
       d="m 49.252486,238.58556 0,13.56389 -4.224441,0 0,-35.30263 4.224441,0 0,3.88192 q 1.324419,-2.28348 3.333883,-3.37956 2.032299,-1.1189 4.840981,-1.1189 4.658303,0 7.558325,3.69924 2.922856,3.69924 2.922856,9.72763 0,6.02839 -2.922856,9.72763 -2.900022,3.69924 -7.558325,3.69924 -2.808682,0 -4.840981,-1.09607 -2.009464,-1.1189 -3.333883,-3.40239 z m 14.294595,-8.92841 q 0,-4.63547 -1.918124,-7.26147 -1.89529,-2.64884 -5.229174,-2.64884 -3.333883,0 -5.252007,2.64884 -1.89529,2.626 -1.89529,7.26147 0,4.63547 1.89529,7.28431 1.918124,2.626 5.252007,2.626 3.333884,0 5.229174,-2.626 1.918124,-2.64884 1.918124,-7.28431 z"
       style="font-size:46.76570511px"
       id="path4148" /><path
       d="m 96.748904,228.58391 0,2.05514 -19.318255,0 q 0.274017,4.33861 2.603169,6.6221 2.351986,2.26064 6.530757,2.26064 2.420491,0 4.681138,-0.5937 2.283482,-0.59371 4.521294,-1.78112 l 0,3.97326 q -2.260647,0.95906 -4.635468,1.46143 -2.374821,0.50236 -4.818147,0.50236 -6.119731,0 -9.704797,-3.56223 -3.562231,-3.56223 -3.562231,-9.63629 0,-6.27958 3.379553,-9.95598 3.402387,-3.69924 9.156761,-3.69924 5.160669,0 8.15203,3.33388 3.014196,3.31105 3.014196,9.01975 z m -4.201607,-1.23308 q -0.04567,-3.44805 -1.940959,-5.50319 -1.872455,-2.05513 -4.97799,-2.05513 -3.516562,0 -5.6402,1.98663 -2.100803,1.98663 -2.420491,5.59453 l 14.97964,-0.0228 z"
       style="font-size:46.76570511px"
       id="path4150" /><path
       d="m 124.90424,226.98548 0,15.43633 -4.20161,0 0,-15.29932 q 0,-3.63074 -1.41576,-5.43469 -1.41576,-1.80395 -4.24727,-1.80395 -3.40239,0 -5.36619,2.16931 -1.96379,2.1693 -1.96379,5.91421 l 0,14.45444 -4.22444,0 0,-25.57499 4.22444,0 0,3.97326 q 1.5071,-2.30632 3.5394,-3.44806 2.05513,-1.14174 4.7268,-1.14174 4.40712,0 6.66777,2.74018 2.26065,2.71734 2.26065,8.01502 z"
       style="font-size:46.76570511px"
       id="path4152" /><path
       d="m 168.83842,209.44834 0,4.49846 q -2.626,-1.25592 -4.95515,-1.87246 -2.32915,-0.61654 -4.49846,-0.61654 -3.76774,0 -5.82288,1.46143 -2.0323,1.46143 -2.0323,4.15594 0,2.26064 1.34726,3.42522 1.37009,1.14174 5.16067,1.84962 l 2.78584,0.57087 q 5.16067,0.9819 7.604,3.47089 2.46616,2.46616 2.46616,6.6221 0,4.95515 -3.33388,7.51265 -3.31105,2.5575 -9.72764,2.5575 -2.42049,0 -5.16067,-0.54803 -2.71734,-0.54804 -5.6402,-1.62127 l 0,-4.74965 q 2.80869,1.57561 5.5032,2.37483 2.6945,0.79921 5.29767,0.79921 3.95043,0 6.0969,-1.55276 2.14647,-1.55277 2.14647,-4.42996 0,-2.51183 -1.55277,-3.92759 -1.52993,-1.41576 -5.04649,-2.12363 l -2.80868,-0.54804 q -5.16067,-1.02757 -7.46699,-3.21971 -2.30631,-2.19214 -2.30631,-6.0969 0,-4.52129 3.17404,-7.12446 3.19687,-2.60317 8.7914,-2.60317 2.39766,0 4.88665,0.43386 2.489,0.43387 5.09216,1.30159 z"
       style="font-size:46.76570511px"
       id="path4154" /><path
       d="m 187.81415,219.79251 q -3.37955,0 -5.34334,2.64884 -1.9638,2.626 -1.9638,7.2158 0,4.5898 1.94096,7.23864 1.96379,2.626 5.36618,2.626 3.35672,0 5.32052,-2.64884 1.96379,-2.64884 1.96379,-7.2158 0,-4.54413 -1.96379,-7.19297 -1.9638,-2.67167 -5.32052,-2.67167 z m 0,-3.56223 q 5.48036,0 8.60873,3.56223 3.12837,3.56223 3.12837,9.86464 0,6.27958 -3.12837,9.86464 -3.12837,3.56223 -8.60873,3.56223 -5.50319,0 -8.63156,-3.56223 -3.10553,-3.58506 -3.10553,-9.86464 0,-6.30241 3.10553,-9.86464 3.12837,-3.56223 8.63156,-3.56223 z"
       style="font-size:46.76570511px"
       id="path4156" /><path
       d="m 206.05918,232.32882 0,-15.482 4.20161,0 0,15.32216 q 0,3.63074 1.41576,5.45752 1.41576,1.80395 4.24727,1.80395 3.40239,0 5.36619,-2.1693 1.98663,-2.16931 1.98663,-5.91422 l 0,-14.50011 4.2016,0 0,25.57499 -4.2016,0 0,-3.92758 q -1.52994,2.32915 -3.56224,3.47089 -2.00946,1.1189 -4.68113,1.1189 -4.40712,0 -6.6906,-2.74017 -2.28349,-2.74018 -2.28349,-8.01503 z m 10.57252,-16.09854 0,0 z"
       style="font-size:46.76570511px"
       id="path4158" /><path
       d="m 250.9981,220.77441 q -0.70788,-0.41103 -1.55277,-0.59371 -0.82205,-0.20551 -1.82678,-0.20551 -3.56224,0 -5.48036,2.32915 -1.89529,2.30632 -1.89529,6.64493 l 0,13.47254 -4.22444,0 0,-25.57499 4.22444,0 0,3.97326 q 1.32442,-2.32915 3.44806,-3.44806 2.12363,-1.14174 5.16067,-1.14174 0.43386,0 0.95906,0.0685 0.5252,0.0457 1.16457,0.15985 l 0.0228,4.31578 z"
       style="font-size:46.76570511px"
       id="path4160" /><path
       d="m 272.85102,217.82872 0,3.92758 q -1.78112,-0.98189 -3.58507,-1.46142 -1.78111,-0.50237 -3.6079,-0.50237 -4.08743,0 -6.34808,2.60317 -2.26065,2.58033 -2.26065,7.26147 0,4.68114 2.26065,7.28431 2.26065,2.58033 6.34808,2.58033 1.82679,0 3.6079,-0.47953 1.80395,-0.50236 3.58507,-1.48426 l 0,3.88192 q -1.75828,0.82205 -3.65357,1.23308 -1.87246,0.41102 -3.9961,0.41102 -5.77721,0 -9.17959,-3.63073 -3.40239,-3.63074 -3.40239,-9.79614 0,-6.25674 3.42522,-9.8418 3.44806,-3.58507 9.43078,-3.58507 1.94096,0 3.79058,0.41103 1.84962,0.38819 3.58507,1.18741 z"
       style="font-size:46.76570511px"
       id="path4162" /><path
       d="m 302.07957,228.58391 0,2.05514 -19.31826,0 q 0.27402,4.33861 2.60317,6.6221 2.35199,2.26064 6.53076,2.26064 2.42049,0 4.68114,-0.5937 2.28348,-0.59371 4.52129,-1.78112 l 0,3.97326 q -2.26064,0.95906 -4.63547,1.46143 -2.37482,0.50236 -4.81814,0.50236 -6.11973,0 -9.7048,-3.56223 -3.56223,-3.56223 -3.56223,-9.63629 0,-6.27958 3.37955,-9.95598 3.40239,-3.69924 9.15676,-3.69924 5.16067,0 8.15203,3.33388 3.0142,3.31105 3.0142,9.01975 z m -4.20161,-1.23308 q -0.0457,-3.44805 -1.94096,-5.50319 -1.87245,-2.05513 -4.97799,-2.05513 -3.51656,0 -5.6402,1.98663 -2.1008,1.98663 -2.42049,5.59453 l 14.97964,-0.0228 z"
       style="font-size:46.76570511px"
       id="path4164" /><path
       d="m 335.44125,212.87356 -6.25674,16.96627 12.53632,0 -6.27958,-16.96627 z m -2.60317,-4.54413 5.22918,0 12.99301,34.09238 -4.79531,0 -3.10554,-8.74573 -15.36783,0 -3.10554,8.74573 -4.86381,0 13.01584,-34.09238 z"
       style="font-size:46.76570511px"
       id="path4166" /><path
       d="m 377.09197,226.98548 0,15.43633 -4.20161,0 0,-15.29932 q 0,-3.63074 -1.41576,-5.43469 -1.41576,-1.80395 -4.24727,-1.80395 -3.40239,0 -5.36619,2.16931 -1.96379,2.1693 -1.96379,5.91421 l 0,14.45444 -4.22444,0 0,-25.57499 4.22444,0 0,3.97326 q 1.5071,-2.30632 3.5394,-3.44806 2.05513,-1.14174 4.7268,-1.14174 4.40712,0 6.66777,2.74018 2.26065,2.71734 2.26065,8.01502 z"
       style="font-size:46.76570511px"
       id="path4168" /><path
       d="m 397.14091,229.56581 q -5.09216,0 -7.05595,1.16458 -1.9638,1.16457 -1.9638,3.97326 0,2.23781 1.46143,3.56223 1.48426,1.30158 4.01893,1.30158 3.49373,0 5.59453,-2.46616 2.12364,-2.48899 2.12364,-6.59926 l 0,-0.93623 -4.17878,0 z m 8.38038,-1.73544 0,14.59144 -4.2016,0 0,-3.88191 q -1.4386,2.32915 -3.58507,3.44805 -2.14647,1.09607 -5.25201,1.09607 -3.92759,0 -6.25674,-2.19214 -2.30631,-2.21498 -2.30631,-5.91422 0,-4.31578 2.87718,-6.50792 2.90002,-2.19214 8.63156,-2.19214 l 5.89139,0 0,-0.41103 q 0,-2.90002 -1.91813,-4.47562 -1.89529,-1.59844 -5.34335,-1.59844 -2.19214,0 -4.27011,0.5252 -2.07796,0.5252 -3.99609,1.5756 l 0,-3.88192 q 2.30632,-0.89055 4.47563,-1.32441 2.1693,-0.4567 4.22444,-0.4567 5.54886,0 8.28903,2.87719 2.74018,2.87718 2.74018,8.7229 z"
       style="font-size:46.76570511px"
       id="path4171" /><path
       d="m 414.19854,206.89084 4.2016,0 0,35.53097 -4.2016,0 0,-35.53097 z"
       style="font-size:46.76570511px"
       id="path4173" /><path
       d="m 437.80974,244.79663 q -1.78111,4.56697 -3.47089,5.95989 -1.68977,1.39293 -4.52129,1.39293 l -3.35672,0 0,-3.51657 2.46616,0 q 1.73545,0 2.69451,-0.82205 0.95906,-0.82205 2.12364,-3.88192 l 0.75355,-1.91812 -10.34418,-25.16397 4.45279,0 7.99219,20.0033 7.99218,-20.0033 4.45279,0 -11.23473,27.94981 z"
       style="font-size:46.76570511px"
       id="path4175" /><path
       d="m 459.00044,209.58535 0,7.26147 8.65439,0 0,3.26538 -8.65439,0 0,13.88357 q 0,3.12837 0.84489,4.01892 0.86772,0.89056 3.49372,0.89056 l 4.31578,0 0,3.51656 -4.31578,0 q -4.86381,0 -6.71343,-1.80395 -1.84962,-1.82678 -1.84962,-6.62209 l 0,-13.88357 -3.0827,0 0,-3.26538 3.0827,0 0,-7.26147 4.22444,0 z"
       style="font-size:46.76570511px"
       id="path4177" /><path
       d="m 473.20369,216.84682 4.20161,0 0,25.57499 -4.20161,0 0,-25.57499 z m 0,-9.95598 4.20161,0 0,5.32051 -4.20161,0 0,-5.32051 z"
       style="font-size:46.76570511px"
       id="path4179" /><path
       d="m 504.57874,217.82872 0,3.92758 q -1.78112,-0.98189 -3.58507,-1.46142 -1.78111,-0.50237 -3.6079,-0.50237 -4.08743,0 -6.34808,2.60317 -2.26064,2.58033 -2.26064,7.26147 0,4.68114 2.26064,7.28431 2.26065,2.58033 6.34808,2.58033 1.82679,0 3.6079,-0.47953 1.80395,-0.50236 3.58507,-1.48426 l 0,3.88192 q -1.75828,0.82205 -3.65357,1.23308 -1.87246,0.41102 -3.99609,0.41102 -5.77721,0 -9.1796,-3.63073 -3.40239,-3.63074 -3.40239,-9.79614 0,-6.25674 3.42522,-9.8418 3.44806,-3.58507 9.43078,-3.58507 1.94096,0 3.79058,0.41103 1.84962,0.38819 3.58507,1.18741 z"
       style="font-size:46.76570511px"
       id="path4181" /><path
       d="m 528.2356,217.60037 0,3.97326 q -1.78112,-0.9134 -3.69924,-1.37009 -1.91813,-0.4567 -3.97326,-0.4567 -3.12837,0 -4.70397,0.95906 -1.55277,0.95907 -1.55277,2.87719 0,1.46143 1.1189,2.30632 1.11891,0.82205 4.49846,1.5756 l 1.4386,0.31969 q 4.47562,0.95906 6.34808,2.71734 1.89529,1.73545 1.89529,4.86382 0,3.56223 -2.83152,5.6402 -2.80868,2.07796 -7.74101,2.07796 -2.05513,0 -4.29294,-0.41102 -2.21498,-0.38819 -4.68114,-1.18741 l 0,-4.33862 q 2.32915,1.21025 4.5898,1.82679 2.26065,0.5937 4.47562,0.5937 2.96853,0 4.56697,-1.00473 1.59843,-1.02757 1.59843,-2.87719 0,-1.71261 -1.16457,-2.626 -1.14174,-0.91339 -5.0465,-1.75828 l -1.46142,-0.34252 q -3.90476,-0.82206 -5.6402,-2.51183 -1.73545,-1.71262 -1.73545,-4.68114 0,-3.6079 2.5575,-5.5717 2.5575,-1.96379 7.26147,-1.96379 2.32915,0 4.38429,0.34252 2.05513,0.34252 3.79058,1.02757 z"
       style="font-size:46.76570511px"
       id="path4183" /><path
       d="m 562.83037,229.56581 q -5.09217,0 -7.05596,1.16458 -1.96379,1.16457 -1.96379,3.97326 0,2.23781 1.46142,3.56223 1.48427,1.30158 4.01893,1.30158 3.49373,0 5.59453,-2.46616 2.12364,-2.48899 2.12364,-6.59926 l 0,-0.93623 -4.17877,0 z m 8.38038,-1.73544 0,14.59144 -4.20161,0 0,-3.88191 q -1.43859,2.32915 -3.58507,3.44805 -2.14647,1.09607 -5.252,1.09607 -3.92759,0 -6.25674,-2.19214 -2.30632,-2.21498 -2.30632,-5.91422 0,-4.31578 2.87719,-6.50792 2.90002,-2.19214 8.63156,-2.19214 l 5.89138,0 0,-0.41103 q 0,-2.90002 -1.91813,-4.47562 -1.89528,-1.59844 -5.34334,-1.59844 -2.19214,0 -4.27011,0.5252 -2.07797,0.5252 -3.9961,1.5756 l 0,-3.88192 q 2.30632,-0.89055 4.47563,-1.32441 2.16931,-0.4567 4.22444,-0.4567 5.54886,0 8.28904,2.87719 2.74018,2.87718 2.74018,8.7229 z"
       style="font-size:46.76570511px"
       id="path4185" /><path
       d="m 601.1472,226.98548 0,15.43633 -4.2016,0 0,-15.29932 q 0,-3.63074 -1.41576,-5.43469 -1.41576,-1.80395 -4.24728,-1.80395 -3.40239,0 -5.36618,2.16931 -1.96379,2.1693 -1.96379,5.91421 l 0,14.45444 -4.22445,0 0,-25.57499 4.22445,0 0,3.97326 q 1.50709,-2.30632 3.53939,-3.44806 2.05514,-1.14174 4.72681,-1.14174 4.40712,0 6.66777,2.74018 2.26064,2.71734 2.26064,8.01502 z"
       style="font-size:46.76570511px"
       id="path4187" /><path
       d="m 626.40249,220.72874 0,-13.8379 4.20161,0 0,35.53097 -4.20161,0 0,-3.83625 q -1.32442,2.28349 -3.35672,3.40239 -2.00946,1.09607 -4.84098,1.09607 -4.63547,0 -7.55832,-3.69924 -2.90003,-3.69924 -2.90003,-9.72763 0,-6.02839 2.90003,-9.72763 2.92285,-3.69924 7.55832,-3.69924 2.83152,0 4.84098,1.1189 2.0323,1.09608 3.35672,3.37956 z m -14.31743,8.92841 q 0,4.63547 1.89529,7.28431 1.91812,2.626 5.25201,2.626 3.33388,0 5.25201,-2.626 1.91812,-2.64884 1.91812,-7.28431 0,-4.63547 -1.91812,-7.26147 -1.91813,-2.64884 -5.25201,-2.64884 -3.33389,0 -5.25201,2.64884 -1.89529,2.626 -1.89529,7.26147 z"
       style="font-size:46.76570511px"
       id="path4189" /><path
       d="m 658.94209,226.14059 0,12.49064 7.39848,0 q 3.72207,0 5.50319,-1.52993 1.80395,-1.55277 1.80395,-4.72681 0,-3.19687 -1.80395,-4.70397 -1.78112,-1.52993 -5.50319,-1.52993 l -7.39848,0 z m 0,-14.02058 0,10.27567 6.82761,0 q 3.37955,0 5.02366,-1.25592 1.66694,-1.27875 1.66694,-3.88191 0,-2.58034 -1.66694,-3.85909 -1.64411,-1.27875 -5.02366,-1.27875 l -6.82761,0 z m -4.61263,-3.79058 11.78276,0 q 5.27484,0 8.1292,2.19214 2.85435,2.19215 2.85435,6.23391 0,3.12837 -1.46143,4.97799 -1.46143,1.84962 -4.29295,2.30632 3.40239,0.73071 5.27485,3.05986 1.89529,2.30632 1.89529,5.77721 0,4.56696 -3.10554,7.05596 -3.10553,2.48899 -8.83707,2.48899 l -12.23946,0 0,-34.09238 z"
       style="font-size:46.76570511px"
       id="path4191" /><path
       d="m 685.77304,232.32882 0,-15.482 4.2016,0 0,15.32216 q 0,3.63074 1.41576,5.45752 1.41576,1.80395 4.24728,1.80395 3.40238,0 5.36618,-2.1693 1.98663,-2.16931 1.98663,-5.91422 l 0,-14.50011 4.2016,0 0,25.57499 -4.2016,0 0,-3.92758 q -1.52994,2.32915 -3.56223,3.47089 -2.00947,1.1189 -4.68114,1.1189 -4.40712,0 -6.6906,-2.74017 -2.28348,-2.74018 -2.28348,-8.01503 z m 10.57252,-16.09854 0,0 z"
       style="font-size:46.76570511px"
       id="path4193" /><path
       d="m 732.1962,217.60037 0,3.97326 q -1.78112,-0.9134 -3.69924,-1.37009 -1.91813,-0.4567 -3.97326,-0.4567 -3.12837,0 -4.70397,0.95906 -1.55277,0.95907 -1.55277,2.87719 0,1.46143 1.11891,2.30632 1.1189,0.82205 4.49845,1.5756 l 1.4386,0.31969 q 4.47562,0.95906 6.34808,2.71734 1.89529,1.73545 1.89529,4.86382 0,3.56223 -2.83152,5.6402 -2.80868,2.07796 -7.741,2.07796 -2.05514,0 -4.29295,-0.41102 -2.21498,-0.38819 -4.68114,-1.18741 l 0,-4.33862 q 2.32915,1.21025 4.5898,1.82679 2.26065,0.5937 4.47563,0.5937 2.96852,0 4.56696,-1.00473 1.59844,-1.02757 1.59844,-2.87719 0,-1.71261 -1.16458,-2.626 -1.14174,-0.91339 -5.04649,-1.75828 l -1.46143,-0.34252 q -3.90476,-0.82206 -5.6402,-2.51183 -1.73545,-1.71262 -1.73545,-4.68114 0,-3.6079 2.5575,-5.5717 2.5575,-1.96379 7.26147,-1.96379 2.32915,0 4.38429,0.34252 2.05513,0.34252 3.79058,1.02757 z"
       style="font-size:46.76570511px"
       id="path4195" /><path
       d="m 740.27971,216.84682 4.20161,0 0,25.57499 -4.20161,0 0,-25.57499 z m 0,-9.95598 4.20161,0 0,5.32051 -4.20161,0 0,-5.32051 z"
       style="font-size:46.76570511px"
       id="path4197" /><path
       d="m 774.50914,226.98548 0,15.43633 -4.20161,0 0,-15.29932 q 0,-3.63074 -1.41575,-5.43469 -1.41576,-1.80395 -4.24728,-1.80395 -3.40239,0 -5.36618,2.16931 -1.9638,2.1693 -1.9638,5.91421 l 0,14.45444 -4.22444,0 0,-25.57499 4.22444,0 0,3.97326 q 1.5071,-2.30632 3.5394,-3.44806 2.05513,-1.14174 4.72681,-1.14174 4.40712,0 6.66776,2.74018 2.26065,2.71734 2.26065,8.01502 z"
       style="font-size:46.76570511px"
       id="path4199" /><path
       d="m 804.81092,228.58391 0,2.05514 -19.31825,0 q 0.27402,4.33861 2.60317,6.6221 2.35198,2.26064 6.53075,2.26064 2.4205,0 4.68114,-0.5937 2.28348,-0.59371 4.5213,-1.78112 l 0,3.97326 q -2.26065,0.95906 -4.63547,1.46143 -2.37482,0.50236 -4.81815,0.50236 -6.11973,0 -9.7048,-3.56223 -3.56223,-3.56223 -3.56223,-9.63629 0,-6.27958 3.37956,-9.95598 3.40238,-3.69924 9.15676,-3.69924 5.16067,0 8.15203,3.33388 3.01419,3.31105 3.01419,9.01975 z m -4.2016,-1.23308 q -0.0457,-3.44805 -1.94096,-5.50319 -1.87246,-2.05513 -4.97799,-2.05513 -3.51656,0 -5.6402,1.98663 -2.10081,1.98663 -2.42049,5.59453 l 14.97964,-0.0228 z"
       style="font-size:46.76570511px"
       id="path4201" /><path
       d="m 828.01108,217.60037 0,3.97326 q -1.78112,-0.9134 -3.69924,-1.37009 -1.91813,-0.4567 -3.97326,-0.4567 -3.12837,0 -4.70397,0.95906 -1.55277,0.95907 -1.55277,2.87719 0,1.46143 1.11891,2.30632 1.1189,0.82205 4.49845,1.5756 l 1.4386,0.31969 q 4.47562,0.95906 6.34808,2.71734 1.89529,1.73545 1.89529,4.86382 0,3.56223 -2.83152,5.6402 -2.80868,2.07796 -7.741,2.07796 -2.05514,0 -4.29295,-0.41102 -2.21498,-0.38819 -4.68114,-1.18741 l 0,-4.33862 q 2.32916,1.21025 4.5898,1.82679 2.26065,0.5937 4.47563,0.5937 2.96852,0 4.56696,-1.00473 1.59844,-1.02757 1.59844,-2.87719 0,-1.71261 -1.16458,-2.626 -1.14174,-0.91339 -5.04649,-1.75828 l -1.46143,-0.34252 q -3.90476,-0.82206 -5.6402,-2.51183 -1.73545,-1.71262 -1.73545,-4.68114 0,-3.6079 2.5575,-5.5717 2.5575,-1.96379 7.26147,-1.96379 2.32916,0 4.38429,0.34252 2.05513,0.34252 3.79058,1.02757 z"
       style="font-size:46.76570511px"
       id="path4203" /><path
       d="m 852.39865,217.60037 0,3.97326 q -1.78111,-0.9134 -3.69924,-1.37009 -1.91812,-0.4567 -3.97326,-0.4567 -3.12837,0 -4.70397,0.95906 -1.55277,0.95907 -1.55277,2.87719 0,1.46143 1.11891,2.30632 1.11891,0.82205 4.49846,1.5756 l 1.43859,0.31969 q 4.47563,0.95906 6.34808,2.71734 1.89529,1.73545 1.89529,4.86382 0,3.56223 -2.83152,5.6402 -2.80868,2.07796 -7.741,2.07796 -2.05513,0 -4.29295,-0.41102 -2.21497,-0.38819 -4.68113,-1.18741 l 0,-4.33862 q 2.32915,1.21025 4.5898,1.82679 2.26064,0.5937 4.47562,0.5937 2.96853,0 4.56696,-1.00473 1.59844,-1.02757 1.59844,-2.87719 0,-1.71261 -1.16458,-2.626 -1.14174,-0.91339 -5.04649,-1.75828 l -1.46143,-0.34252 q -3.90475,-0.82206 -5.6402,-2.51183 -1.73544,-1.71262 -1.73544,-4.68114 0,-3.6079 2.5575,-5.5717 2.55749,-1.96379 7.26147,-1.96379 2.32915,0 4.38428,0.34252 2.05514,0.34252 3.79058,1.02757 z"
       style="font-size:46.76570511px"
       id="path4205" /><path
       d="m 875.55315,208.32943 4.61263,0 0,34.09238 -4.61263,0 0,-34.09238 z"
       style="font-size:46.76570511px"
       id="path4207" /><path
       d="m 910.42192,226.98548 0,15.43633 -4.2016,0 0,-15.29932 q 0,-3.63074 -1.41576,-5.43469 -1.41576,-1.80395 -4.24728,-1.80395 -3.40239,0 -5.36618,2.16931 -1.9638,2.1693 -1.9638,5.91421 l 0,14.45444 -4.22444,0 0,-25.57499 4.22444,0 0,3.97326 q 1.5071,-2.30632 3.5394,-3.44806 2.05514,-1.14174 4.72681,-1.14174 4.40712,0 6.66777,2.74018 2.26064,2.71734 2.26064,8.01502 z"
       style="font-size:46.76570511px"
       id="path4209" /><path
       d="m 923.00395,209.58535 0,7.26147 8.65439,0 0,3.26538 -8.65439,0 0,13.88357 q 0,3.12837 0.84489,4.01892 0.86772,0.89056 3.49372,0.89056 l 4.31578,0 0,3.51656 -4.31578,0 q -4.86381,0 -6.71343,-1.80395 -1.84962,-1.82678 -1.84962,-6.62209 l 0,-13.88357 -3.0827,0 0,-3.26538 3.0827,0 0,-7.26147 4.22444,0 z"
       style="font-size:46.76570511px"
       id="path4211" /><path
       d="m 959.08296,228.58391 0,2.05514 -19.31826,0 q 0.27402,4.33861 2.60317,6.6221 2.35199,2.26064 6.53076,2.26064 2.42049,0 4.68114,-0.5937 2.28348,-0.59371 4.52129,-1.78112 l 0,3.97326 q -2.26065,0.95906 -4.63547,1.46143 -2.37482,0.50236 -4.81814,0.50236 -6.11974,0 -9.7048,-3.56223 -3.56223,-3.56223 -3.56223,-9.63629 0,-6.27958 3.37955,-9.95598 3.40239,-3.69924 9.15676,-3.69924 5.16067,0 8.15203,3.33388 3.0142,3.31105 3.0142,9.01975 z m -4.20161,-1.23308 q -0.0457,-3.44805 -1.94096,-5.50319 -1.87245,-2.05513 -4.97799,-2.05513 -3.51656,0 -5.6402,1.98663 -2.1008,1.98663 -2.42049,5.59453 l 14.97964,-0.0228 z"
       style="font-size:46.76570511px"
       id="path4213" /><path
       d="m 965.97905,206.89084 4.20161,0 0,35.53097 -4.20161,0 0,-35.53097 z"
       style="font-size:46.76570511px"
       id="path4215" /><path
       d="m 978.94921,206.89084 4.2016,0 0,35.53097 -4.2016,0 0,-35.53097 z"
       style="font-size:46.76570511px"
       id="path4217" /><path
       d="m 991.91942,216.84682 4.20161,0 0,25.57499 -4.20161,0 0,-25.57499 z m 0,-9.95598 4.20161,0 0,5.32051 -4.20161,0 0,-5.32051 z"
       style="font-size:46.76570511px"
       id="path4219" /><path
       d="m 1021.7188,229.33746 q 0,-4.56696 -1.8953,-7.07879 -1.8724,-2.51183 -5.2748,-2.51183 -3.3796,0 -5.2748,2.51183 -1.8725,2.51183 -1.8725,7.07879 0,4.54413 1.8725,7.05596 1.8952,2.51183 5.2748,2.51183 3.4024,0 5.2748,-2.51183 1.8953,-2.51183 1.8953,-7.05596 z m 4.2016,9.91031 q 0,6.53076 -2.9,9.7048 -2.9,3.19688 -8.8827,3.19688 -2.215,0 -4.1788,-0.34253 -1.9638,-0.31968 -3.8134,-1.00473 l 0,-4.08743 q 1.8496,1.00473 3.6536,1.48426 1.8039,0.47953 3.6764,0.47953 4.1331,0 6.1882,-2.1693 2.0551,-2.14648 2.0551,-6.50793 l 0,-2.07796 q -1.3015,2.26064 -3.3338,3.37955 -2.0323,1.1189 -4.8639,1.1189 -4.7039,0 -7.5811,-3.58506 -2.8772,-3.58507 -2.8772,-9.49929 0,-5.93705 2.8772,-9.52211 2.8772,-3.58507 7.5811,-3.58507 2.8316,0 4.8639,1.1189 2.0323,1.11891 3.3338,3.37956 l 0,-3.88192 4.2016,0 0,22.40095 z"
       style="font-size:46.76570511px"
       id="path4221" /><path
       d="m 1056.4506,228.58391 0,2.05514 -19.3183,0 q 0.274,4.33861 2.6032,6.6221 2.352,2.26064 6.5307,2.26064 2.4205,0 4.6812,-0.5937 2.2835,-0.59371 4.5213,-1.78112 l 0,3.97326 q -2.2607,0.95906 -4.6355,1.46143 -2.3748,0.50236 -4.8181,0.50236 -6.1198,0 -9.7048,-3.56223 -3.5623,-3.56223 -3.5623,-9.63629 0,-6.27958 3.3796,-9.95598 3.4024,-3.69924 9.1567,-3.69924 5.1607,0 8.1521,3.33388 3.0142,3.31105 3.0142,9.01975 z m -4.2016,-1.23308 q -0.046,-3.44805 -1.941,-5.50319 -1.8724,-2.05513 -4.978,-2.05513 -3.5165,0 -5.6402,1.98663 -2.1008,1.98663 -2.4205,5.59453 l 14.9797,-0.0228 z"
       style="font-size:46.76570511px"
       id="path4223" /><path
       d="m 1084.6059,226.98548 0,15.43633 -4.2016,0 0,-15.29932 q 0,-3.63074 -1.4158,-5.43469 -1.4157,-1.80395 -4.2473,-1.80395 -3.4023,0 -5.3661,2.16931 -1.9638,2.1693 -1.9638,5.91421 l 0,14.45444 -4.2245,0 0,-25.57499 4.2245,0 0,3.97326 q 1.5071,-2.30632 3.5394,-3.44806 2.0551,-1.14174 4.7268,-1.14174 4.4071,0 6.6677,2.74018 2.2607,2.71734 2.2607,8.01502 z"
       style="font-size:46.76570511px"
       id="path4225" /><path
       d="m 1111.4368,217.82872 0,3.92758 q -1.7811,-0.98189 -3.585,-1.46142 -1.7811,-0.50237 -3.6079,-0.50237 -4.0875,0 -6.3481,2.60317 -2.2607,2.58033 -2.2607,7.26147 0,4.68114 2.2607,7.28431 2.2606,2.58033 6.3481,2.58033 1.8268,0 3.6079,-0.47953 1.8039,-0.50236 3.585,-1.48426 l 0,3.88192 q -1.7582,0.82205 -3.6535,1.23308 -1.8725,0.41102 -3.9961,0.41102 -5.7772,0 -9.1796,-3.63073 -3.4024,-3.63074 -3.4024,-9.79614 0,-6.25674 3.4252,-9.8418 3.4481,-3.58507 9.4308,-3.58507 1.9409,0 3.7906,0.41103 1.8496,0.38819 3.585,1.18741 z"
       style="font-size:46.76570511px"
       id="path4227" /><path
       d="m 1140.6654,228.58391 0,2.05514 -19.3182,0 q 0.274,4.33861 2.6031,6.6221 2.352,2.26064 6.5308,2.26064 2.4205,0 4.6811,-0.5937 2.2835,-0.59371 4.5213,-1.78112 l 0,3.97326 q -2.2606,0.95906 -4.6354,1.46143 -2.3749,0.50236 -4.8182,0.50236 -6.1197,0 -9.7048,-3.56223 -3.5622,-3.56223 -3.5622,-9.63629 0,-6.27958 3.3795,-9.95598 3.4024,-3.69924 9.1568,-3.69924 5.1607,0 8.152,3.33388 3.0142,3.31105 3.0142,9.01975 z m -4.2016,-1.23308 q -0.046,-3.44805 -1.941,-5.50319 -1.8724,-2.05513 -4.9779,-2.05513 -3.5166,0 -5.6402,1.98663 -2.1008,1.98663 -2.4205,5.59453 l 14.9796,-0.0228 z"
       style="font-size:46.76570511px"
       id="path4229" /></g></svg>