<?xml version="1.0" encoding="UTF-8" standalone="no"?>
<svg
   xmlns:dc="http://purl.org/dc/elements/1.1/"
   xmlns:cc="http://creativecommons.org/ns#"
   xmlns:rdf="http://www.w3.org/1999/02/22-rdf-syntax-ns#"
   xmlns:svg="http://www.w3.org/2000/svg"
   xmlns="http://www.w3.org/2000/svg"
   xmlns:sodipodi="http://sodipodi.sourceforge.net/DTD/sodipodi-0.dtd"
   xmlns:inkscape="http://www.inkscape.org/namespaces/inkscape"
   id="svg2"
   viewBox="0 0 1147.4 266.44"
   version="1.1"
   sodipodi:docname="vettoriale KNW nuovo payoff.svg"
   width="1147.4"
   height="266.44"
   inkscape:version="0.92.3 (2405546, 2018-03-11)">
  <metadata
     id="metadata84">
    <rdf:RDF>
      <cc:Work
         rdf:about="">
        <dc:format>image/svg+xml</dc:format>
        <dc:type
           rdf:resource="http://purl.org/dc/dcmitype/StillImage" />
        <dc:title>vettoriale KNW nuovo payoff</dc:title>
      </cc:Work>
    </rdf:RDF>
  </metadata>
  <sodipodi:namedview
     pagecolor="#ffffff"
     bordercolor="#666666"
     borderopacity="1"
     objecttolerance="10"
     gridtolerance="10"
     guidetolerance="10"
     inkscape:pageopacity="0"
     inkscape:pageshadow="2"
     inkscape:window-width="1920"
     inkscape:window-height="1027"
     id="namedview82"
     showgrid="false"
     fit-margin-top="10"
     fit-margin-left="5"
     fit-margin-bottom="5"
     fit-margin-right="5"
     inkscape:zoom="0.31914893"
     inkscape:cx="573.70001"
     inkscape:cy="130.72"
     inkscape:window-x="-8"
     inkscape:window-y="-8"
     inkscape:window-maximized="1"
     inkscape:current-layer="svg2" />
  <defs
     id="defs4">
    <style
       id="style2">.cls-1{fill:#042d57;}.cls-2{fill:#cf0753;fill-opacity:1;}.cls-3{fill:#042d56;}</style>
  </defs>
  <title
     id="title6">vettoriale KNW nuovo payoff</title>
  <g
     id="layer1"
     transform="translate(5,10)">
    <rect
       id="rect4147"
       class="cls-1"
       y="0.94999999"
       width="23.540001"
       height="158.31"
       x="0"
       style="fill:#042d57" />
    <path
       id="path4159"
       class="cls-1"
       d="M 151.74,159.26 V 0.4 h 22.62 l 74,110.22 V 0.4 h 23.43 v 158.86 h -19 L 174.37,47.18 v 112.08 z"
       inkscape:connector-curvature="0"
       style="fill:#042d57" />
    <path
       id="path4163"
       class="cls-2"
       d="m 90.85,0 h 31.92 l -57.38,78.3 57.78,80.56 H 90.85 l -57,-79.76 z"
       inkscape:connector-curvature="0"
       style="fill:#cf0753;fill-opacity:1" />
    <path
       id="path4165"
       class="cls-3"
       d="M 381.83,0.4 A 79.43,79.43 0 1 0 461.26,79.83 79.43,79.43 0 0 0 381.83,0.4 Z m -1.16,23.66 c 38.91,0 57,28.3 57,55.09 0,30.78 -21.52,58.28 -57,58.28 -34.35,0 -57,-31.5 -57,-58.28 -0.01,-29.07 25.51,-55.09 57,-55.09 z"
       inkscape:connector-curvature="0"
       style="fill:#042d56" />
    <path
       id="path4170"
       class="cls-3"
       d="M 494.4,0.4 H 519 V 126.69 L 603.54,0.4 V 127.26 L 691,0.4 h 29.14 l -108,158.86 H 581.26 V 77 l -57.15,82.28 H 495 Z"
       inkscape:connector-curvature="0"
       style="fill:#042d56" />
    <path
       id="path4172"
       class="cls-3"
       d="M 664.69,159.26 775,0.4 h 28.69 v 158.86 h -22.4 V 31.83 l -85.75,127.43 z"
       inkscape:connector-curvature="0"
       style="fill:#042d56" />
    <path
       id="path4174"
       class="cls-3"
       d="m 924.23,0.4 a 79.43,79.43 0 0 0 0,158.86 c 44.32,0 76.82,-33.77 76.2,-77.26 l -15.34,0.12 -70.8,-0.46 v 24 h 60 c -8.62,18.46 -26.55,31.77 -51.23,31.77 -34.35,0 -57,-31.5 -57,-58.28 0,-29.07 25.52,-55.09 57,-55.09 28.21,0 45.47,14.88 52.83,33.26 h 24.51 A 79.46,79.46 0 0 0 924.23,0.4 Z"
       inkscape:connector-curvature="0"
       style="fill:#042d56" />
    <path
       id="path4182"
       class="cls-3"
       d="m 1043.1,0.4 v 158.86 h 94.08 v -19.58 h -75.49 V 91.19 h 75.71 l -0.57,-21 H 1062.5 V 20.13 h 74.58 V 0.4 Z"
       inkscape:connector-curvature="0"
       style="fill:#042d56" />
  </g>
  <path
     class="cls-1"
     d="m 45.53,224.32 a 28.77,28.77 0 0 1 -2.38,12.06 18.07,18.07 0 0 1 -6.78,8 18.58,18.58 0 0 1 -10.19,2.8 A 17.7,17.7 0 0 1 12.1,241 Q 6.73,234.76 6.73,224.16 V 219 a 28.67,28.67 0 0 1 2.41,-12.05 18.43,18.43 0 0 1 6.86,-8.08 18.42,18.42 0 0 1 10.15,-2.82 18.58,18.58 0 0 1 10.14,2.77 18.19,18.19 0 0 1 6.71,7.83 28.1,28.1 0 0 1 2.5,11.72 z m -4.21,-5.4 q 0,-9 -4.06,-14.09 a 13.52,13.52 0 0 0 -11.15,-5.09 13.47,13.47 0 0 0 -11,5.11 q -4.18,5.15 -4.17,14.27 v 5.2 q 0,8.85 4.1,14 a 13.46,13.46 0 0 0 11.14,5.18 q 7.14,0 11.14,-5.11 4,-5.11 4,-14.24 z"
     id="path17"
     inkscape:connector-curvature="0"
     style="fill:#042d57" />
  <path
     class="cls-1"
     d="m 85.18,228.38 q 0,8.66 -3.83,13.73 a 12.19,12.19 0 0 1 -10.25,5.07 q -7.59,0 -11.62,-5.33 v 18.87 h -4.07 v -51.2 h 3.8 l 0.2,5.23 a 13.14,13.14 0 0 1 11.59,-5.92 12.28,12.28 0 0 1 10.4,5 q 3.78,5 3.78,13.94 z m -4.1,-0.71 q 0,-7.08 -2.91,-11.18 a 9.36,9.36 0 0 0 -8.1,-4.1 10.78,10.78 0 0 0 -10.59,7.07 v 17.74 a 10.9,10.9 0 0 0 4.2,4.86 12.21,12.21 0 0 0 6.46,1.67 9.27,9.27 0 0 0 8,-4.12 q 2.95,-4.11 2.94,-11.94 z"
     id="path19"
     inkscape:connector-curvature="0"
     style="fill:#042d57" />
  <path
     class="cls-1"
     d="m 108.84,247.18 a 16.06,16.06 0 0 1 -8.53,-2.32 15.9,15.9 0 0 1 -5.93,-6.48 20.22,20.22 0 0 1 -2.12,-9.31 v -1.47 a 21.76,21.76 0 0 1 2.07,-9.6 16.51,16.51 0 0 1 5.76,-6.71 14.21,14.21 0 0 1 8,-2.45 13.36,13.36 0 0 1 10.68,4.6 q 3.95,4.6 4,12.56 v 2.29 H 96.33 v 0.79 a 15.44,15.44 0 0 0 3.61,10.47 11.44,11.44 0 0 0 9.07,4.19 13.47,13.47 0 0 0 5.8,-1.19 13,13 0 0 0 4.56,-3.83 l 2.56,1.95 q -4.51,6.52 -13.09,6.51 z m -0.75,-34.86 a 10.25,10.25 0 0 0 -7.78,3.38 15.66,15.66 0 0 0 -3.84,9.1 h 22.18 v -0.45 a 13.57,13.57 0 0 0 -3,-8.68 9.44,9.44 0 0 0 -7.56,-3.35 z"
     id="path21"
     inkscape:connector-curvature="0"
     style="fill:#042d57" />
  <path
     class="cls-1"
     d="m 134.86,209.52 0.13,6.32 a 14.66,14.66 0 0 1 5.2,-5.21 13.45,13.45 0 0 1 6.87,-1.8 c 4,0 6.92,1.12 8.85,3.35 1.93,2.23 2.92,5.59 2.94,10 v 24.32 h -4.07 v -24.3 q 0,-5 -2.1,-7.38 -2.1,-2.38 -6.61,-2.43 a 10.37,10.37 0 0 0 -6.72,2.37 13.9,13.9 0 0 0 -4.32,6.41 V 246.5 H 131 v -37 z"
     id="path23"
     inkscape:connector-curvature="0"
     style="fill:#042d57" />
  <path
     class="cls-1"
     d="m 209.14,237.1 a 5.82,5.82 0 0 0 -2.44,-4.89 18.9,18.9 0 0 0 -7.37,-2.89 33.17,33.17 0 0 1 -7.64,-2.39 10.19,10.19 0 0 1 -4,-3.3 8.2,8.2 0 0 1 -1.31,-4.71 8.78,8.78 0 0 1 3.65,-7.23 14.8,14.8 0 0 1 9.37,-2.86 q 6.18,0 9.93,3.06 a 9.83,9.83 0 0 1 3.74,8 h -4.1 a 6.64,6.64 0 0 0 -2.72,-5.4 12.26,12.26 0 0 0 -13.33,-0.35 5.52,5.52 0 0 0 -2.44,4.66 5,5 0 0 0 2,4.29 q 2,1.52 7.42,2.79 a 34.34,34.34 0 0 1 8.06,2.7 10.39,10.39 0 0 1 4,3.45 9.48,9.48 0 0 1 -2.48,12.37 q -3.78,2.81 -9.86,2.8 -6.47,0 -10.48,-3.12 a 9.63,9.63 0 0 1 -4,-7.92 h 4.1 a 7.09,7.09 0 0 0 3,5.59 12.39,12.39 0 0 0 7.37,2 11.55,11.55 0 0 0 6.9,-1.88 5.63,5.63 0 0 0 2.63,-4.77 z"
     id="path25"
     inkscape:connector-curvature="0"
     style="fill:#042d57" />
  <path
     class="cls-1"
     d="m 220.46,227.46 a 21.74,21.74 0 0 1 2.07,-9.6 15.56,15.56 0 0 1 14.41,-9 15.21,15.21 0 0 1 12,5.18 q 4.57,5.18 4.58,13.73 v 0.85 a 22,22 0 0 1 -2.07,9.66 15.47,15.47 0 0 1 -5.82,6.61 16,16 0 0 1 -8.58,2.32 15.24,15.24 0 0 1 -11.99,-5.21 q -4.59,-5.19 -4.6,-13.73 z m 4.11,1.13 a 16.8,16.8 0 0 0 3.43,10.89 11.63,11.63 0 0 0 18,0 q 3.44,-4.26 3.43,-11.23 v -0.79 a 18.82,18.82 0 0 0 -1.57,-7.76 12.71,12.71 0 0 0 -4.41,-5.45 11.23,11.23 0 0 0 -6.49,-1.93 10.92,10.92 0 0 0 -8.92,4.29 q -3.45,4.29 -3.45,11.23 z"
     id="path27"
     inkscape:connector-curvature="0"
     style="fill:#042d57" />
  <path
     class="cls-1"
     d="m 286,241.82 q -3.69,5.37 -11.79,5.36 -5.91,0 -9,-3.43 -3.09,-3.43 -3.14,-10.17 v -24.06 h 4.06 v 23.55 q 0,10.56 8.55,10.56 8.88,0 11.24,-7.35 V 209.52 H 290 v 37 h -4 z"
     id="path29"
     inkscape:connector-curvature="0"
     style="fill:#042d57" />
  <path
     class="cls-1"
     d="m 318,213 a 15.28,15.28 0 0 0 -2.77,-0.24 10,10 0 0 0 -6.48,2.14 11.75,11.75 0 0 0 -3.78,6.2 v 25.4 h -4.06 v -37 h 4 l 0.06,5.88 a 10.88,10.88 0 0 1 10.43,-6.57 6.65,6.65 0 0 1 2.7,0.45 z"
     id="path31"
     inkscape:connector-curvature="0"
     style="fill:#042d57" />
  <path
     class="cls-1"
     d="m 337.79,243.73 a 10.79,10.79 0 0 0 7.16,-2.41 8.5,8.5 0 0 0 3.13,-6.24 H 352 a 11.59,11.59 0 0 1 -2.12,6.17 13.31,13.31 0 0 1 -5.18,4.36 15.57,15.57 0 0 1 -6.92,1.57 14.29,14.29 0 0 1 -11.54,-5.05 Q 322,237.06 322,228.52 v -1.23 a 23.05,23.05 0 0 1 1.91,-9.67 14.84,14.84 0 0 1 5.49,-6.5 15.17,15.17 0 0 1 8.35,-2.29 14.27,14.27 0 0 1 10,3.63 13.23,13.23 0 0 1 4.25,9.54 h -3.93 a 10.65,10.65 0 0 0 -18.92,-5.67 q -3.06,4 -3.06,11.21 v 1.2 q 0,7.07 3.06,11 a 10.27,10.27 0 0 0 8.64,3.99 z"
     id="path33"
     inkscape:connector-curvature="0"
     style="fill:#042d57" />
  <path
     class="cls-1"
     d="m 374.78,247.18 a 16,16 0 0 1 -8.53,-2.32 15.83,15.83 0 0 1 -5.93,-6.48 20.22,20.22 0 0 1 -2.12,-9.31 v -1.47 a 21.76,21.76 0 0 1 2.07,-9.61 16.51,16.51 0 0 1 5.76,-6.71 14.18,14.18 0 0 1 8,-2.45 13.4,13.4 0 0 1 10.69,4.6 q 3.94,4.6 3.94,12.56 v 2.29 h -26.39 v 0.79 a 15.49,15.49 0 0 0 3.6,10.47 11.46,11.46 0 0 0 9.08,4.19 13.4,13.4 0 0 0 5.79,-1.19 12.81,12.81 0 0 0 4.56,-3.83 l 2.57,1.95 q -4.51,6.53 -13.09,6.52 z M 374,212.32 a 10.24,10.24 0 0 0 -7.77,3.38 15.67,15.67 0 0 0 -3.85,9.1 h 22.19 v -0.45 a 13.58,13.58 0 0 0 -3,-8.68 9.43,9.43 0 0 0 -7.57,-3.35 z"
     id="path35"
     inkscape:connector-curvature="0"
     style="fill:#042d57" />
  <path
     class="cls-1"
     d="m 444,228.38 q 0,8.66 -3.83,13.73 a 12.23,12.23 0 0 1 -10.29,5.07 q -7.73,0 -11.69,-5.74 L 418,246.5 h -3.82 V 194 h 4.06 v 20.88 q 3.9,-6 11.56,-6 a 12.34,12.34 0 0 1 10.37,5 q 3.81,5 3.81,13.93 z m -4.1,-0.71 q 0,-7.32 -2.84,-11.3 a 9.26,9.26 0 0 0 -8,-4 11.22,11.22 0 0 0 -6.66,1.93 11.73,11.73 0 0 0 -4.14,5.66 v 16.68 q 3.07,7 10.87,7 a 9.17,9.17 0 0 0 7.91,-4 q 2.84,-4.01 2.83,-11.97 z"
     id="path37"
     inkscape:connector-curvature="0"
     style="fill:#042d57" />
  <path
     class="cls-1"
     d="m 477.06,241.82 q -3.69,5.37 -11.79,5.36 -5.91,0 -9,-3.43 -3.09,-3.43 -3.14,-10.17 v -24.06 h 4.06 v 23.55 q 0,10.56 8.55,10.56 8.88,0 11.24,-7.35 v -26.76 h 4.11 v 37 h -4 z"
     id="path39"
     inkscape:connector-curvature="0"
     style="fill:#042d57" />
  <path
     class="cls-1"
     d="m 514.15,237.1 a 5.82,5.82 0 0 0 -2.44,-4.89 18.9,18.9 0 0 0 -7.37,-2.89 32.9,32.9 0 0 1 -7.63,-2.39 10.15,10.15 0 0 1 -4,-3.3 8.2,8.2 0 0 1 -1.31,-4.71 8.78,8.78 0 0 1 3.65,-7.23 14.8,14.8 0 0 1 9.37,-2.86 q 6.18,0 9.93,3.06 a 9.83,9.83 0 0 1 3.74,8 H 514 a 6.64,6.64 0 0 0 -2.72,-5.4 12.26,12.26 0 0 0 -13.33,-0.35 5.52,5.52 0 0 0 -2.44,4.66 5,5 0 0 0 2,4.29 q 2,1.52 7.42,2.79 a 34.34,34.34 0 0 1 8.06,2.7 10.39,10.39 0 0 1 4,3.45 9.48,9.48 0 0 1 -2.48,12.37 q -3.78,2.81 -9.86,2.8 -6.47,0 -10.48,-3.12 a 9.63,9.63 0 0 1 -4,-7.92 h 4.1 a 7.09,7.09 0 0 0 3,5.59 12.39,12.39 0 0 0 7.37,2 11.55,11.55 0 0 0 6.9,-1.88 5.63,5.63 0 0 0 2.61,-4.77 z"
     id="path41"
     inkscape:connector-curvature="0"
     style="fill:#042d57" />
  <path
     class="cls-1"
     d="m 527.49,198.84 a 2.78,2.78 0 0 1 0.75,-2 2.7,2.7 0 0 1 2,-0.8 2.69,2.69 0 0 1 2.84,2.76 2.65,2.65 0 0 1 -0.77,1.93 2.77,2.77 0 0 1 -2.07,0.78 2.72,2.72 0 0 1 -2,-0.78 2.67,2.67 0 0 1 -0.75,-1.89 z m 4.82,47.66 h -4.1 v -37 h 4.1 z"
     id="path43"
     inkscape:connector-curvature="0"
     style="fill:#042d57" />
  <path
     class="cls-1"
     d="m 547.59,209.52 0.14,6.32 a 14.58,14.58 0 0 1 5.2,-5.21 13.45,13.45 0 0 1 6.87,-1.8 q 5.94,0 8.85,3.35 2.91,3.35 2.94,10 v 24.32 h -4.07 v -24.3 q 0,-5 -2.1,-7.38 -2.1,-2.38 -6.61,-2.43 a 10.37,10.37 0 0 0 -6.72,2.37 13.9,13.9 0 0 0 -4.32,6.41 v 25.33 h -4.07 v -37 z"
     id="path45"
     inkscape:connector-curvature="0"
     style="fill:#042d57" />
  <path
     class="cls-1"
     d="m 596.75,247.18 a 16.06,16.06 0 0 1 -8.53,-2.32 15.9,15.9 0 0 1 -5.93,-6.48 20.22,20.22 0 0 1 -2.12,-9.31 v -1.47 a 21.76,21.76 0 0 1 2.07,-9.61 16.51,16.51 0 0 1 5.76,-6.71 14.21,14.21 0 0 1 8,-2.45 13.36,13.36 0 0 1 10.68,4.6 q 3.95,4.6 4,12.56 v 2.29 h -26.44 v 0.79 a 15.44,15.44 0 0 0 3.61,10.47 11.44,11.44 0 0 0 9.07,4.19 13.47,13.47 0 0 0 5.8,-1.19 13,13 0 0 0 4.56,-3.83 l 2.56,1.95 q -4.51,6.53 -13.09,6.52 z M 596,212.32 a 10.25,10.25 0 0 0 -7.78,3.38 15.66,15.66 0 0 0 -3.84,9.1 h 22.18 v -0.45 a 13.57,13.57 0 0 0 -3,-8.68 9.43,9.43 0 0 0 -7.56,-3.35 z"
     id="path47"
     inkscape:connector-curvature="0"
     style="fill:#042d57" />
  <path
     class="cls-1"
     d="m 641,237.1 a 5.82,5.82 0 0 0 -2.44,-4.89 19,19 0 0 0 -7.37,-2.89 33,33 0 0 1 -7.64,-2.39 10.19,10.19 0 0 1 -4,-3.3 8.2,8.2 0 0 1 -1.32,-4.71 8.79,8.79 0 0 1 3.66,-7.23 14.8,14.8 0 0 1 9.37,-2.86 q 6.18,0 9.93,3.06 a 9.83,9.83 0 0 1 3.74,8 h -4.1 a 6.64,6.64 0 0 0 -2.72,-5.4 12.26,12.26 0 0 0 -13.33,-0.35 5.52,5.52 0 0 0 -2.44,4.66 5,5 0 0 0 2,4.29 c 1.35,1 3.83,1.94 7.42,2.79 a 34.51,34.51 0 0 1 8.06,2.7 10.28,10.28 0 0 1 4,3.45 9.49,9.49 0 0 1 -2.47,12.37 q -3.78,2.81 -9.86,2.8 -6.47,0 -10.48,-3.12 a 9.64,9.64 0 0 1 -4,-7.92 h 4.1 a 7.1,7.1 0 0 0 3,5.59 12.39,12.39 0 0 0 7.37,2 11.59,11.59 0 0 0 6.9,-1.88 5.65,5.65 0 0 0 2.62,-4.77 z"
     id="path49"
     inkscape:connector-curvature="0"
     style="fill:#042d57" />
  <path
     class="cls-1"
     d="m 676.75,237.1 a 5.83,5.83 0 0 0 -2.45,-4.89 18.91,18.91 0 0 0 -7.36,-2.89 33,33 0 0 1 -7.64,-2.39 10.22,10.22 0 0 1 -4,-3.3 8.27,8.27 0 0 1 -1.31,-4.71 8.79,8.79 0 0 1 3.66,-7.23 14.77,14.77 0 0 1 9.36,-2.86 q 6.18,0 9.93,3.06 a 9.83,9.83 0 0 1 3.74,8 h -4.1 a 6.64,6.64 0 0 0 -2.72,-5.4 12.26,12.26 0 0 0 -13.33,-0.35 5.52,5.52 0 0 0 -2.44,4.66 5,5 0 0 0 2,4.29 q 2,1.52 7.42,2.79 a 34.61,34.61 0 0 1 8.07,2.7 10.35,10.35 0 0 1 4,3.45 9.48,9.48 0 0 1 -2.48,12.37 q -3.78,2.81 -9.86,2.8 -6.47,0 -10.48,-3.12 a 9.66,9.66 0 0 1 -4,-7.92 h 4.1 a 7.12,7.12 0 0 0 3,5.59 12.41,12.41 0 0 0 7.37,2 11.55,11.55 0 0 0 6.9,-1.88 5.64,5.64 0 0 0 2.62,-4.77 z"
     id="path51"
     inkscape:connector-curvature="0"
     style="fill:#042d57" />
  <path
     class="cls-1"
     d="m 731,246.5 a 19.13,19.13 0 0 1 -0.79,-5.16 14.16,14.16 0 0 1 -5.48,4.32 16.76,16.76 0 0 1 -7.06,1.52 12.4,12.4 0 0 1 -8.63,-3 9.68,9.68 0 0 1 -3.3,-7.52 9.89,9.89 0 0 1 4.49,-8.54 q 4.5,-3.15 12.53,-3.15 h 7.42 v -4.2 a 8.1,8.1 0 0 0 -2.45,-6.24 c -1.63,-1.52 -4,-2.27 -7.12,-2.27 a 11.21,11.21 0 0 0 -7.08,2.18 6.51,6.51 0 0 0 -2.8,5.27 h -4.1 c 0,-2.94 1.36,-5.48 4.1,-7.64 a 15.79,15.79 0 0 1 10.08,-3.23 q 6.19,0 9.76,3.1 a 11.07,11.07 0 0 1 3.67,8.63 v 17.5 a 21.73,21.73 0 0 0 1.13,8 v 0.41 z m -12.85,-2.94 a 13.77,13.77 0 0 0 7.33,-2 11.68,11.68 0 0 0 4.7,-5.3 v -8.13 h -7.32 c -4.08,0 -7.27,0.79 -9.57,2.23 a 6.73,6.73 0 0 0 -3.45,6 6.62,6.62 0 0 0 2.31,5.16 8.69,8.69 0 0 0 5.97,2.04 z"
     id="path53"
     inkscape:connector-curvature="0"
     style="fill:#042d57" />
  <path
     class="cls-1"
     d="m 749.29,209.52 0.14,6.32 a 14.58,14.58 0 0 1 5.2,-5.21 13.45,13.45 0 0 1 6.87,-1.8 q 5.94,0 8.85,3.35 2.91,3.35 2.94,10 v 24.32 h -4.07 v -24.3 q 0,-5 -2.1,-7.38 -2.1,-2.38 -6.61,-2.43 a 10.37,10.37 0 0 0 -6.72,2.37 13.9,13.9 0 0 0 -4.32,6.41 v 25.33 h -4.07 v -37 z"
     id="path55"
     inkscape:connector-curvature="0"
     style="fill:#042d57" />
  <path
     class="cls-1"
     d="m 807.48,246.5 a 19.13,19.13 0 0 1 -0.79,-5.16 14.19,14.19 0 0 1 -5.49,4.32 16.68,16.68 0 0 1 -7.05,1.52 12.38,12.38 0 0 1 -8.63,-3 9.68,9.68 0 0 1 -3.3,-7.52 9.87,9.87 0 0 1 4.49,-8.54 q 4.5,-3.15 12.53,-3.15 h 7.42 v -4.2 a 8.1,8.1 0 0 0 -2.45,-6.24 c -1.63,-1.52 -4,-2.27 -7.13,-2.27 a 11.2,11.2 0 0 0 -7.07,2.18 6.51,6.51 0 0 0 -2.8,5.27 h -4.1 c 0,-2.94 1.36,-5.48 4.1,-7.64 a 15.79,15.79 0 0 1 10.08,-3.23 q 6.18,0 9.76,3.1 a 11.1,11.1 0 0 1 3.67,8.63 v 17.5 a 21.73,21.73 0 0 0 1.13,8 v 0.41 z m -12.86,-2.94 a 13.78,13.78 0 0 0 7.34,-2 11.74,11.74 0 0 0 4.7,-5.3 v -8.13 h -7.32 c -4.08,0 -7.27,0.79 -9.57,2.23 a 6.73,6.73 0 0 0 -3.45,6 6.62,6.62 0 0 0 2.31,5.16 8.64,8.64 0 0 0 5.99,2.04 z"
     id="path57"
     inkscape:connector-curvature="0"
     style="fill:#042d57" />
  <path
     class="cls-1"
     d="m 826.49,246.5 h -4.11 V 194 h 4.11 z"
     id="path59"
     inkscape:connector-curvature="0"
     style="fill:#042d57" />
  <path
     class="cls-1"
     d="m 849.6,240.62 10.8,-31.1 h 4.41 l -15.81,43.27 -0.82,1.91 q -3,6.74 -9.4,6.74 a 11.5,11.5 0 0 1 -3.15,-0.48 v -3.39 l 2.12,0.21 a 7.59,7.59 0 0 0 4.87,-1.49 11.3,11.3 0 0 0 3.16,-5.11 l 1.81,-5 -13.94,-36.67 h 4.47 z"
     id="path61"
     inkscape:connector-curvature="0"
     style="fill:#042d57" />
  <path
     class="cls-1"
     d="m 877.77,200.05 v 9.47 h 7.65 v 3.35 h -7.65 v 24.67 a 7.71,7.71 0 0 0 1.11,4.58 4.3,4.3 0 0 0 3.71,1.51 24.88,24.88 0 0 0 3.31,-0.34 l 0.17,3.32 a 13.48,13.48 0 0 1 -4.37,0.57 q -4.2,0 -6.12,-2.44 c -1.28,-1.63 -1.91,-4 -1.91,-7.2 v -24.67 h -6.8 v -3.35 h 6.8 v -9.47 z"
     id="path63"
     inkscape:connector-curvature="0"
     style="fill:#042d57" />
  <path
     class="cls-1"
     d="m 893.94,198.84 a 2.78,2.78 0 0 1 0.75,-2 2.7,2.7 0 0 1 2,-0.8 2.74,2.74 0 0 1 2.07,0.8 2.71,2.71 0 0 1 0.77,2 2.61,2.61 0 0 1 -0.77,1.93 2.77,2.77 0 0 1 -2.07,0.78 2.72,2.72 0 0 1 -2,-0.78 2.67,2.67 0 0 1 -0.75,-1.93 z m 4.82,47.66 h -4.1 v -37 h 4.1 z"
     id="path65"
     inkscape:connector-curvature="0"
     style="fill:#042d57" />
  <path
     class="cls-1"
     d="m 923.82,243.73 a 10.77,10.77 0 0 0 7.16,-2.41 8.47,8.47 0 0 0 3.13,-6.24 H 938 a 11.51,11.51 0 0 1 -2.12,6.17 13.24,13.24 0 0 1 -5.18,4.36 15.57,15.57 0 0 1 -6.92,1.57 14.27,14.27 0 0 1 -11.53,-5.05 Q 908,237.06 908,228.52 v -1.23 a 23.21,23.21 0 0 1 1.91,-9.67 14.84,14.84 0 0 1 5.49,-6.5 15.21,15.21 0 0 1 8.36,-2.29 14.25,14.25 0 0 1 10,3.63 13.19,13.19 0 0 1 4.24,9.54 h -3.93 a 9.91,9.91 0 0 0 -10.32,-9.67 10.2,10.2 0 0 0 -8.6,4 q -3.06,4 -3.06,11.21 v 1.2 q 0,7.07 3.06,11 a 10.28,10.28 0 0 0 8.67,3.99 z"
     id="path67"
     inkscape:connector-curvature="0"
     style="fill:#042d57" />
  <path
     class="cls-1"
     d="m 968.64,237.1 a 5.83,5.83 0 0 0 -2.45,-4.89 18.91,18.91 0 0 0 -7.36,-2.89 33,33 0 0 1 -7.64,-2.39 10.12,10.12 0 0 1 -4,-3.3 8.2,8.2 0 0 1 -1.32,-4.71 8.79,8.79 0 0 1 3.66,-7.23 14.77,14.77 0 0 1 9.36,-2.86 q 6.2,0 9.93,3.06 a 9.8,9.8 0 0 1 3.74,8 h -4.1 a 6.63,6.63 0 0 0 -2.71,-5.4 10.75,10.75 0 0 0 -6.86,-2.15 10.63,10.63 0 0 0 -6.47,1.8 5.53,5.53 0 0 0 -2.45,4.66 5,5 0 0 0 2,4.29 q 2,1.52 7.41,2.79 a 34.61,34.61 0 0 1 8.07,2.7 10.35,10.35 0 0 1 4,3.45 9.48,9.48 0 0 1 -2.45,12.35 q -3.78,2.81 -9.86,2.8 -6.47,0 -10.47,-3.12 a 9.64,9.64 0 0 1 -4,-7.92 h 4.1 a 7.1,7.1 0 0 0 3,5.59 12.36,12.36 0 0 0 7.36,2 11.6,11.6 0 0 0 6.91,-1.88 5.65,5.65 0 0 0 2.6,-4.75 z"
     id="path69"
     inkscape:connector-curvature="0"
     style="fill:#042d57" />
  <path
     class="cls-1"
     d="m 1021.66,237.1 a 5.82,5.82 0 0 0 -2.44,-4.89 19,19 0 0 0 -7.37,-2.89 33.17,33.17 0 0 1 -7.64,-2.39 10.19,10.19 0 0 1 -4,-3.3 8.2,8.2 0 0 1 -1.31,-4.71 8.78,8.78 0 0 1 3.65,-7.23 14.8,14.8 0 0 1 9.37,-2.86 q 6.18,0 9.93,3.06 a 9.83,9.83 0 0 1 3.74,8 h -4.1 a 6.64,6.64 0 0 0 -2.72,-5.4 12.26,12.26 0 0 0 -13.33,-0.35 5.52,5.52 0 0 0 -2.44,4.66 5,5 0 0 0 2,4.29 q 2,1.52 7.42,2.79 a 34.51,34.51 0 0 1 8.06,2.7 10.39,10.39 0 0 1 4,3.45 9.51,9.51 0 0 1 -2.48,12.37 q -3.78,2.81 -9.86,2.8 -6.46,0 -10.48,-3.12 a 9.64,9.64 0 0 1 -4,-7.92 h 4.11 a 7.09,7.09 0 0 0 3,5.59 12.39,12.39 0 0 0 7.37,2 11.57,11.57 0 0 0 6.9,-1.88 5.63,5.63 0 0 0 2.62,-4.77 z"
     id="path71"
     inkscape:connector-curvature="0"
     style="fill:#042d57" />
  <path
     class="cls-1"
     d="m 1059,241.82 q -3.69,5.37 -11.79,5.36 -5.92,0 -9,-3.43 -3.08,-3.43 -3.15,-10.17 v -24.06 h 4.07 v 23.55 q 0,10.56 8.54,10.56 8.89,0 11.25,-7.35 v -26.76 h 4.1 v 37 h -4 z"
     id="path73"
     inkscape:connector-curvature="0"
     style="fill:#042d57" />
  <path
     class="cls-1"
     d="m 1073.73,198.84 a 2.78,2.78 0 0 1 0.75,-2 2.83,2.83 0 0 1 4.89,2 2.61,2.61 0 0 1 -0.77,1.93 3.11,3.11 0 0 1 -4.12,0 2.67,2.67 0 0 1 -0.75,-1.93 z m 4.82,47.66 h -4.1 v -37 h 4.1 z"
     id="path75"
     inkscape:connector-curvature="0"
     style="fill:#042d57" />
  <path
     class="cls-1"
     d="m 1096.3,200.05 v 9.47 h 7.7 v 3.35 h -7.65 v 24.67 a 7.71,7.71 0 0 0 1.11,4.58 4.28,4.28 0 0 0 3.71,1.51 25,25 0 0 0 3.31,-0.34 l 0.17,3.32 a 13.48,13.48 0 0 1 -4.37,0.57 q -4.21,0 -6.12,-2.44 c -1.28,-1.63 -1.91,-4 -1.91,-7.2 v -24.67 h -6.81 v -3.35 h 6.81 v -9.47 z"
     id="path77"
     inkscape:connector-curvature="0"
     style="fill:#042d57" />
  <path
     class="cls-1"
     d="m 1127,247.18 a 16.06,16.06 0 0 1 -8.53,-2.32 15.9,15.9 0 0 1 -5.93,-6.48 20.22,20.22 0 0 1 -2.12,-9.31 v -1.47 a 21.76,21.76 0 0 1 2.07,-9.61 16.51,16.51 0 0 1 5.76,-6.71 14.21,14.21 0 0 1 8,-2.45 13.36,13.36 0 0 1 10.68,4.6 q 3.94,4.6 4,12.56 v 2.29 h -26.39 v 0.79 a 15.44,15.44 0 0 0 3.61,10.47 11.44,11.44 0 0 0 9.07,4.19 13.47,13.47 0 0 0 5.8,-1.19 13,13 0 0 0 4.56,-3.83 l 2.56,1.95 q -4.53,6.53 -13.14,6.52 z m -0.75,-34.86 a 10.25,10.25 0 0 0 -7.78,3.38 15.66,15.66 0 0 0 -3.84,9.1 h 22.18 v -0.45 a 13.57,13.57 0 0 0 -3,-8.68 9.44,9.44 0 0 0 -7.53,-3.35 z"
     id="path79"
     inkscape:connector-curvature="0"
     style="fill:#042d57" />
</svg>
