<?xml version="1.0" encoding="UTF-8" standalone="no"?>
<svg
   xmlns:dc="http://purl.org/dc/elements/1.1/"
   xmlns:cc="http://creativecommons.org/ns#"
   xmlns:rdf="http://www.w3.org/1999/02/22-rdf-syntax-ns#"
   xmlns:svg="http://www.w3.org/2000/svg"
   xmlns="http://www.w3.org/2000/svg"
   xmlns:sodipodi="http://sodipodi.sourceforge.net/DTD/sodipodi-0.dtd"
   xmlns:inkscape="http://www.inkscape.org/namespaces/inkscape"
   id="svg2"
   viewBox="0 0 1154.8591 266.43652"
   version="1.1"
   sodipodi:docname="logoCover.svg"
   width="1154.8591"
   height="266.43652"
   inkscape:version="0.92.3 (2405546, 2018-03-11)">
  <metadata
     id="metadata26">
    <rdf:RDF>
      <cc:Work
         rdf:about="">
        <dc:format>image/svg+xml</dc:format>
        <dc:type
           rdf:resource="http://purl.org/dc/dcmitype/StillImage" />
        <dc:title>vettoriale KNW nuovo payoff</dc:title>
      </cc:Work>
    </rdf:RDF>
  </metadata>
  <sodipodi:namedview
     pagecolor="#ffffff"
     bordercolor="#666666"
     borderopacity="1"
     objecttolerance="10"
     gridtolerance="10"
     guidetolerance="10"
     inkscape:pageopacity="0"
     inkscape:pageshadow="2"
     inkscape:window-width="1920"
     inkscape:window-height="1027"
     id="namedview24"
     showgrid="false"
     fit-margin-top="10"
     fit-margin-left="5"
     fit-margin-bottom="5"
     fit-margin-right="5"
     inkscape:zoom="0.31914893"
     inkscape:cx="573.70001"
     inkscape:cy="124.93652"
     inkscape:window-x="-8"
     inkscape:window-y="-8"
     inkscape:window-maximized="1"
     inkscape:current-layer="svg2" />
  <defs
     id="defs4">
    <style
       id="style2">.cls-1,.cls-4{fill:#042d57;}.cls-2{fill:#cf0753;fill-opacity:1;}.cls-3{fill:#042d56;}.cls-4{font-size:70px;font-family:Roboto-Light, Roboto;letter-spacing:0em;}.cls-5{letter-spacing:-0.01em;}</style>
  </defs>
  <title
     id="title6">vettoriale KNW nuovo payoff</title>
  <g
     id="layer1"
     transform="translate(9,10)">
    <rect
       id="rect4147"
       class="cls-1"
       y="0.94999999"
       width="23.540001"
       height="158.31"
       x="0"
       style="fill:#042d57" />
    <path
       id="path4159"
       class="cls-1"
       d="M 151.74,159.26 V 0.4 h 22.62 l 74,110.22 V 0.4 h 23.43 v 158.86 h -19 L 174.37,47.18 v 112.08 z"
       inkscape:connector-curvature="0"
       style="fill:#042d57" />
    <path
       id="path4163"
       class="cls-2"
       d="m 90.85,0 h 31.92 l -57.38,78.3 57.78,80.56 H 90.85 l -57,-79.76 z"
       inkscape:connector-curvature="0"
       style="fill:#cf0753;fill-opacity:1" />
    <path
       id="path4165"
       class="cls-3"
       d="M 381.83,0.4 A 79.43,79.43 0 1 0 461.26,79.83 79.43,79.43 0 0 0 381.83,0.4 Z m -1.16,23.66 c 38.91,0 57,28.3 57,55.09 0,30.78 -21.52,58.28 -57,58.28 -34.35,0 -57,-31.5 -57,-58.28 -0.01,-29.07 25.51,-55.09 57,-55.09 z"
       inkscape:connector-curvature="0"
       style="fill:#042d56" />
    <path
       id="path4170"
       class="cls-3"
       d="M 494.4,0.4 H 519 V 126.69 L 603.54,0.4 V 127.26 L 691,0.4 h 29.14 l -108,158.86 H 581.26 V 77 l -57.15,82.28 H 495 Z"
       inkscape:connector-curvature="0"
       style="fill:#042d56" />
    <path
       id="path4172"
       class="cls-3"
       d="M 664.69,159.26 775,0.4 h 28.69 v 158.86 h -22.4 V 31.83 l -85.75,127.43 z"
       inkscape:connector-curvature="0"
       style="fill:#042d56" />
    <path
       id="path4174"
       class="cls-3"
       d="m 924.23,0.4 a 79.43,79.43 0 0 0 0,158.86 c 44.32,0 76.82,-33.77 76.2,-77.26 l -15.34,0.12 -70.8,-0.46 v 24 h 60 c -8.62,18.46 -26.55,31.77 -51.23,31.77 -34.35,0 -57,-31.5 -57,-58.28 0,-29.07 25.52,-55.09 57,-55.09 28.21,0 45.47,14.88 52.83,33.26 h 24.51 A 79.46,79.46 0 0 0 924.23,0.4 Z"
       inkscape:connector-curvature="0"
       style="fill:#042d56" />
    <path
       id="path4182"
       class="cls-3"
       d="m 1043.1,0.4 v 158.86 h 94.08 v -19.58 h -75.49 V 91.19 h 75.71 l -0.57,-21 H 1062.5 V 20.13 h 74.58 V 0.4 Z"
       inkscape:connector-curvature="0"
       style="fill:#042d56" />
  </g>
  <text
     class="cls-4"
     id="text21"
     style="font-size:70px;font-family:Roboto-Light, Roboto;letter-spacing:0em;fill:#042d57"
     x="2.46"
     y="246.5">Open sou<tspan
   class="cls-5"
   x="295.60001"
   y="246.5"
   id="tspan17"
   style="letter-spacing:-0.01em">r</tspan>
<tspan
   x="318.78"
   y="246.5"
   id="tspan19">ce business analytics suite</tspan>
</text>
</svg>
