<?xml version="1.0" encoding="UTF-8" standalone="no"?>
<!-- Generator: Adobe Illustrator 25.4.1, SVG Export Plug-In . SVG Version: 6.00 Build 0)  -->

<svg
   xmlns:dc="http://purl.org/dc/elements/1.1/"
   xmlns:cc="http://creativecommons.org/ns#"
   xmlns:rdf="http://www.w3.org/1999/02/22-rdf-syntax-ns#"
   xmlns:svg="http://www.w3.org/2000/svg"
   xmlns="http://www.w3.org/2000/svg"
   xmlns:sodipodi="http://sodipodi.sourceforge.net/DTD/sodipodi-0.dtd"
   xmlns:inkscape="http://www.inkscape.org/namespaces/inkscape"
   version="1.1"
   id="svg2"
   sodipodi:docname="logoCover (1).svg"
   x="0px"
   y="0px"
   viewBox="0 0 1147.4 266.4"
   style="enable-background:new 0 0 1147.4 266.4;"
   xml:space="preserve"
   inkscape:version="0.91 r13725"
   inkscape:export-filename="C:\Users\Davide\Desktop\logoCover2.png"
   inkscape:export-xdpi="71"
   inkscape:export-ydpi="71"><metadata
     id="metadata21"><rdf:RDF><cc:Work
         rdf:about=""><dc:format>image/svg+xml</dc:format><dc:type
           rdf:resource="http://purl.org/dc/dcmitype/StillImage" /></cc:Work></rdf:RDF></metadata><defs
     id="defs19" /><style
     type="text/css"
     id="style3">
	.st0{fill:#042D57;}
	.st1{fill:#CF0753;}
	.st2{fill:#042D56;}
	.st3{fill:none;}
	.st4{font-family:'Roboto-Light';}
	.st5{font-size:53px;}
</style><sodipodi:namedview
     bordercolor="#666666"
     borderopacity="1"
     fit-margin-bottom="5"
     fit-margin-left="5"
     fit-margin-right="5"
     fit-margin-top="10"
     gridtolerance="10"
     guidetolerance="10"
     id="namedview82"
     inkscape:current-layer="svg2"
     inkscape:cx="-10.666668"
     inkscape:cy="130.72"
     inkscape:pageopacity="0"
     inkscape:pageshadow="2"
     inkscape:window-height="1027"
     inkscape:window-maximized="1"
     inkscape:window-width="1920"
     inkscape:window-x="-8"
     inkscape:window-y="-8"
     inkscape:zoom="0.31914893"
     objecttolerance="10"
     pagecolor="#ffffff"
     showgrid="false" /><g
     id="layer1"
     transform="translate(5,10)"><rect
       id="rect4147"
       y="0.9"
       class="st0"
       width="23.5"
       height="158.3" /><path
       id="path4159"
       inkscape:connector-curvature="0"
       class="st0"
       d="M151.7,159.3V0.4h22.6l74,110.2V0.4h23.4v158.9h-19   L174.4,47.2v112.1L151.7,159.3z" /><path
       id="path4163"
       inkscape:connector-curvature="0"
       class="st1"
       d="M90.8,0h31.9L65.4,78.3l57.8,80.6H90.8l-57-79.8L90.8,0z" /><path
       id="path4165"
       inkscape:connector-curvature="0"
       class="st2"
       d="M381.8,0.4c-43.9,0-79.4,35.6-79.4,79.4   c0,43.9,35.6,79.4,79.4,79.4c43.9,0,79.4-35.6,79.4-79.4S425.7,0.4,381.8,0.4C381.8,0.4,381.8,0.4,381.8,0.4z M380.7,24.1   c38.9,0,57,28.3,57,55.1c0,30.8-21.5,58.3-57,58.3c-34.4,0-57-31.5-57-58.3C323.7,50.1,349.2,24.1,380.7,24.1z" /><path
       id="path4170"
       inkscape:connector-curvature="0"
       class="st2"
       d="M494.4,0.4H519v126.3L603.5,0.4v126.9L691,0.4h29.1   l-108,158.9h-30.9V77l-57.2,82.3H495L494.4,0.4z" /><path
       id="path4172"
       inkscape:connector-curvature="0"
       class="st2"
       d="M664.7,159.3L775,0.4h28.7v158.9h-22.4V31.8l-85.8,127.4   H664.7z" /><path
       id="path4174"
       inkscape:connector-curvature="0"
       class="st2"
       d="M924.2,0.4c-43.9,0-79.4,35.6-79.4,79.5   c0,43.8,35.6,79.4,79.4,79.4c44.3,0,76.8-33.8,76.2-77.3l-15.3,0.1l-70.8-0.5v24h60c-8.6,18.5-26.5,31.8-51.2,31.8   c-34.3,0-57-31.5-57-58.3c0-29.1,25.5-55.1,57-55.1c28.2,0,45.5,14.9,52.8,33.3h24.5C990.4,23.6,959.4,0.4,924.2,0.4z" /><path
       id="path4182"
       inkscape:connector-curvature="0"
       class="st2"
       d="M1043.1,0.4v158.9h94.1v-19.6h-75.5V91.2h75.7l-0.6-21h-74.3   V20.1h74.6V0.4H1043.1z" /></g><rect
     x="4"
     y="202.3"
     class="st3"
     width="1138"
     height="65"
     id="rect15" /><text
     class="st0 st4 st5"
     id="text17"
     x="3.9710419"
     y="242.42181"
     style="font-size:53.5909729px;font-family:Roboto-Light;fill:#042d57"><tspan
       style="font-size:46.76570511px"
       id="tspan4149">Open Source Analytics and Business Intelligence </tspan></text>
</svg>