<?xml version="1.0" encoding="iso-8859-1"?>
<!-- Generator: Adobe Illustrator 19.0.0, SVG Export Plug-In . SVG Version: 6.00 Build 0)  -->
<svg version="1.1" id="Capa_1" xmlns="http://www.w3.org/2000/svg" xmlns:xlink="http://www.w3.org/1999/xlink" x="0px" y="0px"
	 viewBox="0 0 512 512" style="enable-background:new 0 0 512 512;" xml:space="preserve">
<g>
	<g>
		<g>
			<path d="M320,118.272c-0.005-5.047-4.095-9.138-9.143-9.143H201.143c-5.047,0.005-9.138,4.095-9.143,9.143v271.085l128-128
				V118.272z"/>
			<path d="M466.286,9.143c-0.005-5.047-4.095-9.138-9.143-9.143H347.429c-5.047,0.005-9.138,4.095-9.143,9.143v380.214l128-128
				V9.143z"/>
			<polygon points="320,287.214 192,415.214 192,448 320,448 			"/>
			<polygon points="466.286,287.214 338.286,415.214 338.286,448 466.286,448 			"/>
			<path d="M502.857,466.286H9.143c-5.047,0.005-9.138,4.096-9.143,9.143v27.429c0.005,5.047,4.095,9.138,9.143,9.143h493.714
				c5.047-0.005,9.138-4.095,9.143-9.143v-27.429C511.995,470.381,507.905,466.291,502.857,466.286z"/>
			<path d="M173.714,206.902c-0.005-5.047-4.096-9.138-9.143-9.143H54.857c-5.047,0.005-9.138,4.095-9.143,9.143v182.455l128-128
				V206.902z"/>
			<polygon points="173.714,287.214 45.714,415.214 45.714,448 173.714,448 			"/>
		</g>
	</g>
</g>
<g>
</g>
<g>
</g>
<g>
</g>
<g>
</g>
<g>
</g>
<g>
</g>
<g>
</g>
<g>
</g>
<g>
</g>
<g>
</g>
<g>
</g>
<g>
</g>
<g>
</g>
<g>
</g>
<g>
</g>
</svg>
