<?xml version="1.0" encoding="UTF-8" standalone="no"?>
<svg
   xmlns:dc="http://purl.org/dc/elements/1.1/"
   xmlns:cc="http://creativecommons.org/ns#"
   xmlns:rdf="http://www.w3.org/1999/02/22-rdf-syntax-ns#"
   xmlns:svg="http://www.w3.org/2000/svg"
   xmlns="http://www.w3.org/2000/svg"
   xmlns:sodipodi="http://sodipodi.sourceforge.net/DTD/sodipodi-0.dtd"
   xmlns:inkscape="http://www.inkscape.org/namespaces/inkscape"
   enable-background="new 0 0 32 32"
   height="32px"
   id="Layer_1"
   version="1.1"
   viewBox="0 0 32 32"
   width="32px"
   xml:space="preserve"
   inkscape:version="0.91 r13725"
   sodipodi:docname="kn_flag.svg"
   inkscape:export-filename="/Users/Redjaw/Desktop/kn_iconset/png/kn_flag.png"
   inkscape:export-xdpi="1406"
   inkscape:export-ydpi="1406"><metadata
     id="metadata17"><rdf:RDF><cc:Work
         rdf:about=""><dc:format>image/svg+xml</dc:format><dc:type
           rdf:resource="http://purl.org/dc/dcmitype/StillImage" /><dc:title></dc:title></cc:Work></rdf:RDF></metadata><defs
     id="defs15" /><sodipodi:namedview
     pagecolor="#ffffff"
     bordercolor="#666666"
     borderopacity="1"
     objecttolerance="10"
     gridtolerance="10"
     guidetolerance="10"
     inkscape:pageopacity="0"
     inkscape:pageshadow="2"
     inkscape:window-width="1254"
     inkscape:window-height="689"
     id="namedview13"
     showgrid="false"
     inkscape:zoom="7.375"
     inkscape:cx="3.6610169"
     inkscape:cy="16"
     inkscape:window-x="0"
     inkscape:window-y="0"
     inkscape:window-maximized="0"
     inkscape:current-layer="layer1" /><g
     id="g3"><polyline
       fill="none"
       points="   649,137.999 675,137.999 675,155.999 661,155.999  "
       stroke="#FFFFFF"
       stroke-linecap="round"
       stroke-linejoin="round"
       stroke-miterlimit="10"
       stroke-width="2"
       id="polyline5" /><polyline
       fill="none"
       points="   653,155.999 649,155.999 649,141.999  "
       stroke="#FFFFFF"
       stroke-linecap="round"
       stroke-linejoin="round"
       stroke-miterlimit="10"
       stroke-width="2"
       id="polyline7" /><polyline
       fill="none"
       points="   661,156 653,162 653,156  "
       stroke="#FFFFFF"
       stroke-linecap="round"
       stroke-linejoin="round"
       stroke-miterlimit="10"
       stroke-width="2"
       id="polyline9" /></g><g
     inkscape:groupmode="layer"
     id="layer1"
     inkscape:label="Layer 1"
     style="display:inline"><path
       id="path4145"
       d="M 7,16 7,12 7,7 C 7,6.448 6.552,6 6,6 5.448,6 5,6.448 5,7 l 0,5 0,5 0,11 -1,0 c -0.552,0 -1,0.447 -1,1 0,0.553 0.448,1 1,1 l 4,0 C 8.552,30 9,29.553 9,29 9,28.447 8.552,28 8,28 L 7,28 7,18 Z"
       inkscape:connector-curvature="0"
       sodipodi:nodetypes="ccssscccssssssccc"
       style="fill:#042c56;fill-opacity:1" /></g><g
     inkscape:groupmode="layer"
     id="layer2"
     inkscape:label="Layer 2"
     style="display:inline"><path
       d="M 23.317,10 28.758,3.651 C 29.013,3.355 29.071,2.937 28.907,2.582 28.745,2.228 28.391,2 28,2 L 4,2 C 3.448,2 3,2.448 3,3 3,3.552 3.448,4 4,4 l 21.826,0 -4.585,5.349 c -0.321,0.375 -0.321,0.927 0,1.302 L 25.826,16 7,16 l 0,2 21,0 c 0.391,0 0.745,-0.228 0.908,-0.582 0.163,-0.354 0.105,-0.772 -0.149,-1.069 z"
       id="path11"
       inkscape:connector-curvature="0"
       sodipodi:nodetypes="cccssssccccccsscc"
       style="fill:#c8054f;fill-opacity:1" /></g></svg>