<?xml version="1.0" encoding="UTF-8" standalone="no"?>
<!-- Uploaded to: SVG Repo, www.svgrepo.com, Generator: SVG Repo Mixer Tools -->

<svg
   width="800px"
   height="800px"
   viewBox="0 0 24 24"
   fill="none"
   version="1.1"
   id="svg4"
   sodipodi:docname="image.svg"
   xml:space="preserve"
   inkscape:version="1.2 (dc2aedaf03, 2022-05-15)"
   xmlns:inkscape="http://www.inkscape.org/namespaces/inkscape"
   xmlns:sodipodi="http://sodipodi.sourceforge.net/DTD/sodipodi-0.dtd"
   xmlns="http://www.w3.org/2000/svg"
   xmlns:svg="http://www.w3.org/2000/svg"><defs
     id="defs8"><path
       id="SVGID_1_"
       d="M61.44,82.3C27.51,82.3,0,63.87,0,41.15C0,18.42,27.51,0,61.44,0c33.93,0,61.44,18.42,61.44,41.15 C122.88,63.87,95.37,82.3,61.44,82.3L61.44,82.3z M70.84,16.09c-25.79,0-46.7,12.59-46.7,28.13s20.91,28.13,46.7,28.13 c25.79,0,44.83-8.61,44.83-28.13C115.67,24.7,96.64,16.09,70.84,16.09L70.84,16.09z" /><rect
       id="SVGID_3_"
       width="122.88"
       height="82.3" /><path
       id="SVGID_5_"
       d="M93.57,63.73c0,0,3.72,1.12,5.88,2.22c0.75,0.38,2.05,1.14,2.98,2.13c0.92,0.97,1.36,1.96,1.36,1.96 l14.65,24.71l-23.69,0.01l-11.08-20.8c0,0-2.27-3.9-3.66-5.03c-1.16-0.94-1.66-1.28-2.81-1.28c-0.8,0-5.63,0-5.63,0l0,27.09 l-20.96,0.01v-69.2h42.09c0,0,19.17,0.35,19.17,18.59S93.57,63.73,93.57,63.73L93.57,63.73z M84.45,40.56l-12.69-0.01 l-0.01,11.77l12.7,0c0,0,5.88-0.02,5.88-5.99C90.33,40.24,84.45,40.56,84.45,40.56L84.45,40.56z" /><rect
       id="SVGID_7_"
       x="50.63"
       y="25.55"
       width="67.82"
       height="69.21" /></defs><sodipodi:namedview
     id="namedview6"
     pagecolor="#ffffff"
     bordercolor="#000000"
     borderopacity="0.25"
     inkscape:showpageshadow="2"
     inkscape:pageopacity="0.0"
     inkscape:pagecheckerboard="0"
     inkscape:deskcolor="#d1d1d1"
     showgrid="false"
     inkscape:zoom="1.05875"
     inkscape:cx="507.67414"
     inkscape:cy="445.80874"
     inkscape:window-width="1920"
     inkscape:window-height="1027"
     inkscape:window-x="-8"
     inkscape:window-y="-8"
     inkscape:window-maximized="1"
     inkscape:current-layer="svg4" /><style
     type="text/css"
     id="style1155">.st0{clip-path:url(#SVGID_2_);} .st1{clip-path:url(#SVGID_6_);}</style><path
     id="path1754"
     style="opacity:1;fill-opacity:1;fill-rule:nonzero;stroke-width:0.324326;fill:#000000"
     d="m 12.01418,3.2302148 c -5.4772042,4.5e-6 -9.9173506,3.4316109 -9.9173441,7.6647072 1.497e-4,3.684073 3.3916143,6.846909 8.0755081,7.531113 V 16.204922 C 7.5927373,15.334157 5.9505897,13.494734 5.9504297,11.47582 c -2e-7,-2.8950879 3.3237576,-5.2420228 7.4238283,-5.2420309 4.100071,8.2e-6 7.423828,2.346943 7.423828,5.2420309 -1.6e-5,1.548323 -0.96941,3.017438 -2.648262,4.013438 0.218323,0.11197 0.365556,0.303843 0.482051,0.443437 0.05126,0.06143 0.15306,0.232828 0.288164,0.477832 1.888428,-1.440214 3.011466,-3.465162 3.011484,-5.515605 7e-6,-4.2330959 -4.440139,-7.6647022 -9.917343,-7.6647072 z M 15.209297,16.66418 c -0.549918,0.102507 -1.054697,0.04005 -1.623223,0.0515 v 1.746972 c 0.841319,-0.104355 1.421728,-0.232073 2.200957,-0.498515 0,0 -0.207427,-0.565609 -0.3327,-0.827696 -0.08082,-0.16908 -0.245034,-0.472261 -0.245034,-0.472261 z"
     sodipodi:nodetypes="ccccccccscccccccsc" /><path
     id="path1813"
     style="opacity:1;fill-opacity:1;fill-rule:nonzero;stroke-width:0.340158;fill:#000000"
     d="M 10.222383,7.9622461 V 20.684766 h 3.258574 v -4.873653 h 1.133379 l 0.821719,1.048418 1.728457,3.853594 h 3.768633 c 0,0 -2.206848,-4.502012 -2.518536,-4.870371 -0.311687,-0.368359 -1.363418,-0.740039 -1.363418,-0.740039 0,0 2.975215,-0.311668 2.975215,-3.626895 0,-3.3152267 -3.031875,-3.5135739 -3.031875,-3.5135739 z m 3.315234,2.8334769 2.353125,0.01019 c 0,0 0.664561,0.152344 0.650391,1.186582 -0.01242,0.906644 -0.963399,1.013379 -0.963399,1.013379 h -2.040117 z"
     sodipodi:nodetypes="ccccccccscsccccsccc" /></svg>
