<?xml version="1.0" encoding="utf-8"?>
<!-- Uploaded to: SVG Repo, www.svgrepo.com, Generator: SVG Repo Mixer Tools -->
<svg width="800px" height="800px" viewBox="0 0 24 24" fill="none" xmlns="http://www.w3.org/2000/svg">
<g id="Environment / Puzzle">
<path id="Vector" d="M20 7H17.8486C17.3511 7 17 6.49751 17 6C17 4.34315 15.6569 3 14 3C12.3431 3 11 4.34315 11 6C11 6.49751 10.6488 7 10.1513 7H8C7.44771 7 7 7.44772 7 8V10.1513C7 10.6488 6.49751 11 6 11C4.34315 11 3 12.3431 3 14C3 15.6569 4.34315 17 6 17C6.49751 17 7 17.3511 7 17.8486V20C7 20.5523 7.44771 21 8 21L20 21C20.5523 21 21 20.5523 21 20V17.8486C21 17.3511 20.4975 17 20 17C18.3431 17 17 15.6569 17 14C17 12.3431 18.3431 11 20 11C20.4975 11 21 10.6488 21 10.1513L21 8C21 7.44772 20.5523 7 20 7Z" stroke="#000000" stroke-width="2" stroke-linecap="round" stroke-linejoin="round"/>
</g>
</svg>