<?xml version="1.0" encoding="iso-8859-1"?>
<!-- Generator: Adobe Illustrator 19.0.0, SVG Export Plug-In . SVG Version: 6.00 Build 0)  -->
<svg version="1.1" id="Layer_1" xmlns="http://www.w3.org/2000/svg" xmlns:xlink="http://www.w3.org/1999/xlink" x="0px" y="0px"
	 viewBox="0 0 504.123 504.123" style="enable-background:new 0 0 504.123 504.123;" xml:space="preserve">
<path style="fill:#C2C2C2;" d="M94.523,145.723v-23.631H23.631c0,0-23.631,10.634-23.631,23.631v292.628
	c0.788,25.6,21.662,45.686,47.262,45.686h47.262L94.523,145.723L94.523,145.723z"/>
<path style="fill:#DADADA;" d="M94.523,66.954H70.892c-12.997,0-23.631,10.634-23.631,23.631v346.585
	c0,17.329-9.452,32.689-23.631,40.96c7.089,3.938,14.966,6.302,23.631,6.302h47.262C94.523,484.431,94.523,66.954,94.523,66.954z"/>
<path style="fill:#EFEFEF;" d="M480.492,19.692H118.154c-11.422,0-23.631,12.997-23.631,23.631v393.846
	c0,25.994-21.268,47.262-47.262,47.262h409.6c25.994,0,47.262-21.268,47.262-47.262V43.323
	C504.123,31.902,491.126,19.692,480.492,19.692z"/>
<path style="fill:#D6D9DB;" d="M157.538,279.631h78.769c8.665,0,15.754-7.089,15.754-15.754v-86.646
	c0-8.665-7.089-15.754-15.754-15.754h-78.769c-8.665,0-15.754,7.089-15.754,15.754v86.646
	C141.785,272.542,148.874,279.631,157.538,279.631z M157.538,185.108c0-4.332,3.545-7.877,7.877-7.877h63.015
	c4.332,0,7.877,3.545,7.877,7.877V256c0,4.332-3.545,7.877-7.877,7.877h-63.015c-4.332,0-7.877-3.545-7.877-7.877V185.108z
	 M448.985,370.215H149.662c-4.332,0-7.877,3.545-7.877,7.877s3.545,7.877,7.877,7.877h299.323c4.332,0,7.877-3.545,7.877-7.877
	S453.317,370.215,448.985,370.215z M448.985,307.2H149.662c-4.332,0-7.877,3.545-7.877,7.877s3.545,7.877,7.877,7.877h299.323
	c4.332,0,7.877-3.545,7.877-7.877C456.862,310.745,453.317,307.2,448.985,307.2z M448.985,338.708H149.662
	c-4.332,0-7.877,3.545-7.877,7.877s3.545,7.877,7.877,7.877h299.323c4.332,0,7.877-3.545,7.877-7.877
	S453.317,338.708,448.985,338.708z M448.985,224.492H291.446c-4.332,0-7.877,3.545-7.877,7.877s3.545,7.877,7.877,7.877h157.538
	c4.332,0,7.877-3.545,7.877-7.877S453.317,224.492,448.985,224.492z M448.985,161.477H291.446c-4.332,0-7.877,3.545-7.877,7.877
	s3.545,7.877,7.877,7.877h157.538c4.332,0,7.877-3.545,7.877-7.877C456.862,165.022,453.317,161.477,448.985,161.477z M448.985,256
	H291.446c-4.332,0-7.877,3.545-7.877,7.877s3.545,7.877,7.877,7.877h157.538c4.332,0,7.877-3.545,7.877-7.877
	S453.317,256,448.985,256z M448.985,66.954H149.662c-4.332,0-7.877,3.545-7.877,7.877v39.385c0,4.332,3.545,7.877,7.877,7.877
	h299.323c4.332,0,7.877-3.545,7.877-7.877V74.831C456.862,70.498,453.317,66.954,448.985,66.954z M448.985,192.985H291.446
	c-4.332,0-7.877,3.545-7.877,7.877s3.545,7.877,7.877,7.877h157.538c4.332,0,7.877-3.545,7.877-7.877
	S453.317,192.985,448.985,192.985z M409.6,401.723H149.662c-4.332,0-7.877,3.545-7.877,7.877s3.545,7.877,7.877,7.877H409.6
	c4.332,0,7.877-3.545,7.877-7.877S413.932,401.723,409.6,401.723z"/>
<g>
</g>
<g>
</g>
<g>
</g>
<g>
</g>
<g>
</g>
<g>
</g>
<g>
</g>
<g>
</g>
<g>
</g>
<g>
</g>
<g>
</g>
<g>
</g>
<g>
</g>
<g>
</g>
<g>
</g>
</svg>
