<?xml version="1.0" encoding="UTF-8" standalone="no"?>
<svg
   xmlns:dc="http://purl.org/dc/elements/1.1/"
   xmlns:cc="http://creativecommons.org/ns#"
   xmlns:rdf="http://www.w3.org/1999/02/22-rdf-syntax-ns#"
   xmlns:svg="http://www.w3.org/2000/svg"
   xmlns="http://www.w3.org/2000/svg"
   xmlns:sodipodi="http://sodipodi.sourceforge.net/DTD/sodipodi-0.dtd"
   xmlns:inkscape="http://www.inkscape.org/namespaces/inkscape"
   height="512pt"
   viewBox="0 0 512 512"
   width="512pt"
   version="1.1"
   id="svg4">
  <metadata
     id="metadata10">
    <rdf:RDF>
      <cc:Work
         rdf:about="">
        <dc:format>image/svg+xml</dc:format>
        <dc:type
           rdf:resource="http://purl.org/dc/dcmitype/StillImage" />
        <dc:title />
      </cc:Work>
    </rdf:RDF>
  </metadata>
  <defs
     id="defs8">
	</defs>
  <path
     id="path2"
     d="m 39.635586,312.14406 v -121.5 c 0,-11.02734 8.972656,-20 20,-20 H 451.63559 c 11.02734,0 20,8.97266 20,20 v 124.5 c 0.12034,13.37352 -6.39932,19.5 -20.25,19.5 H 59.135594 c -10.737655,-0.64627 -19.125008,-6.77676 -19.500008,-22.5 z m 412.000004,-181.5 H 59.635586 c -33.085938,0 -60.00000006,26.91406 -60.00000006,60 v 122.00001 c 0,33.08594 26.91406206,60 60.00000006,60 H 451.63559 c 33.08593,0 60,-26.91406 60,-60 V 190.64406 c 0,-33.08594 -26.91407,-60 -60,-60 z"/>
  <path
     id="path828"
     style="stroke-width:0.26517147"
     d="m 414.75835,220.45401 h 7.91067 c 2.39954,0 4.34639,-1.98717 4.34639,-4.44163 v -25.9536 c 2.6e-4,-2.45474 -1.94659,-4.44325 -4.34639,-4.44325 h -7.91067 c -2.40086,0 -4.34771,1.98851 -4.34771,4.44325 v 25.9536 c 0,2.45446 1.94685,4.44163 4.34771,4.44163 z m -69.478,0 h 7.91068 c 2.40111,0 4.34796,-1.98717 4.34796,-4.44163 v -25.9536 c 0,-2.45474 -1.94685,-4.44325 -4.34796,-4.44325 h -7.91068 c -2.40137,0 -4.34796,1.98851 -4.34796,4.44325 v 25.9536 c 0,2.45446 1.94659,4.44163 4.34796,4.44163 z m 90.25501,-20.26608 v 15.83142 c 0,7.15563 -5.67875,12.92197 -12.67776,12.92197 h -7.99749 c -6.99955,0 -12.75356,-5.76634 -12.75356,-12.92197 V 200.1311 h -36.04683 v 15.88825 c 0,7.15563 -5.75375,12.92197 -12.75224,12.92197 h -7.99907 c -6.99875,0 -12.67723,-5.76634 -12.67723,-12.92197 v -15.83142 c -6.117,0.18848 -11.14346,5.36258 -11.14346,11.72221 v 92.77958 c 0,6.47922 5.1374,11.80051 11.47576,11.80051 h 102.23931 c 6.32892,0 11.47576,-5.33228 11.47576,-11.80051 v -92.77958 c 0,-6.35963 -5.0262,-11.53373 -11.14319,-11.72221 z m -3.71458,98.72421 c 0,2.80005 -2.22093,5.07167 -4.96116,5.07167 h -85.77144 c -2.74023,0 -4.96116,-2.27162 -4.96116,-5.07167 v -47.92401 c 0,-2.80112 2.22067,-5.07276 4.96116,-5.07276 h 85.77118 c 2.74023,0 4.96116,2.27164 4.96116,5.07276 z m -14.41821,-15.18476 c 0,-1.64212 -1.30113,-2.96922 -2.90309,-2.96922 h -10.1421 c -1.60512,0 -2.90599,1.3271 -2.90599,2.96922 v 10.36294 c 0,1.64051 1.30087,2.96896 2.90599,2.96896 h 10.1421 c 1.60196,0 2.90309,-1.32871 2.90309,-2.96896 z m -25.3445,0 c 0,-1.64212 -1.30113,-2.96922 -2.90309,-2.96922 h -10.14211 c -1.60328,0 -2.90441,1.3271 -2.90441,2.96922 v 10.36294 c 0,1.64051 1.30113,2.96896 2.90441,2.96896 h 10.14211 c 1.60196,0 2.90309,-1.32871 2.90309,-2.96896 z m -25.34319,0 c 0,-1.64212 -1.30087,-2.96922 -2.90598,-2.96922 h -10.14079 c -1.60328,0 -2.90441,1.3271 -2.90441,2.96922 v 10.36294 c 0,1.64051 1.30113,2.96896 2.90441,2.96896 h 10.14079 c 1.60511,0 2.90598,-1.32871 2.90598,-2.96896 z m 50.68769,-25.90909 c 0,-1.63944 -1.30113,-2.96762 -2.90441,-2.96762 h -10.14078 c -1.60512,0 -2.90599,1.32818 -2.90599,2.96762 v 10.36481 c 0,1.64159 1.30087,2.9703 2.90599,2.9703 h 10.14078 c 1.60328,0 2.90441,-1.32871 2.90441,-2.9703 z m -25.3445,0 c 0,-1.63944 -1.30113,-2.96762 -2.90309,-2.96762 h -10.14211 c -1.60328,0 -2.90441,1.32818 -2.90441,2.96762 v 10.36481 c 0,1.64159 1.30113,2.9703 2.90441,2.9703 h 10.14211 c 1.60196,0 2.90309,-1.32871 2.90309,-2.9703 z m -25.34319,0 c 0,-1.63944 -1.30087,-2.96762 -2.90598,-2.96762 h -10.14079 c -1.60328,0 -2.90441,1.32818 -2.90441,2.96762 v 10.36481 c 0,1.64159 1.30113,2.9703 2.90441,2.9703 h 10.14079 c 1.60511,0 2.90598,-1.32871 2.90598,-2.9703 z" />
</svg>
