<?xml version="1.0" encoding="UTF-8" standalone="no"?>
<!-- Created with Inkscape (http://www.inkscape.org/) -->

<svg
   xmlns:dc="http://purl.org/dc/elements/1.1/"
   xmlns:cc="http://creativecommons.org/ns#"
   xmlns:rdf="http://www.w3.org/1999/02/22-rdf-syntax-ns#"
   xmlns:svg="http://www.w3.org/2000/svg"
   xmlns="http://www.w3.org/2000/svg"
   xmlns:sodipodi="http://sodipodi.sourceforge.net/DTD/sodipodi-0.dtd"
   xmlns:inkscape="http://www.inkscape.org/namespaces/inkscape"
   width="401.24969mm"
   height="56.183815mm"
   viewBox="0 0 1421.7509 199.07651"
   id="svg2"
   version="1.1"
   inkscape:version="0.91 r13725"
   sodipodi:docname="logo_knowage_vector.svg"
   inkscape:export-filename="C:\Users\vernassa\Desktop\logo_knowage_vector_500px.png"
   inkscape:export-xdpi="31.651115"
   inkscape:export-ydpi="31.651115">
  <defs
     id="defs4" />
  <sodipodi:namedview
     id="base"
     pagecolor="#ffffff"
     bordercolor="#666666"
     borderopacity="1.0"
     inkscape:pageopacity="0.0"
     inkscape:pageshadow="2"
     inkscape:zoom="0.49497475"
     inkscape:cx="884.83835"
     inkscape:cy="75.475895"
     inkscape:document-units="px"
     inkscape:current-layer="layer1"
     showgrid="false"
     showguides="true"
     inkscape:guide-bbox="true"
     fit-margin-top="0"
     fit-margin-left="0"
     fit-margin-right="0"
     fit-margin-bottom="0"
     inkscape:window-width="1366"
     inkscape:window-height="716"
     inkscape:window-x="-8"
     inkscape:window-y="-8"
     inkscape:window-maximized="1">
    <sodipodi:guide
       position="288,198.57143"
       orientation="0,1"
       id="guide4149" />
    <sodipodi:guide
       position="222.28572,4.065442e-006"
       orientation="0,1"
       id="guide4151" />
    <sodipodi:guide
       position="1420.8572,117.14286"
       orientation="1,0"
       id="guide4184" />
  </sodipodi:namedview>
  <metadata
     id="metadata7">
    <rdf:RDF>
      <cc:Work
         rdf:about="">
        <dc:format>image/svg+xml</dc:format>
        <dc:type
           rdf:resource="http://purl.org/dc/dcmitype/StillImage" />
        <dc:title></dc:title>
      </cc:Work>
    </rdf:RDF>
  </metadata>
  <g
     inkscape:label="Livello 1"
     inkscape:groupmode="layer"
     id="layer1"
     transform="translate(335.14285,-208.99998)">
    <rect
       style="opacity:1;fill:#042d57;fill-opacity:1;stroke:none"
       id="rect4147"
       width="29.428566"
       height="197.89256"
       x="-335.14285"
       y="210.18393" />
    <path
       style="fill:#042d57;fill-opacity:1;fill-rule:evenodd;stroke:none;stroke-width:1px;stroke-linecap:butt;stroke-linejoin:miter;stroke-opacity:1"
       d="m -145.46197,408.07649 0,-198.57143 28.26397,0 92.449263,137.77067 0,-137.77067 29.2944235,0 0,198.57143 -23.7385845,0 -97.984802,-140.09774 0,140.09774 z"
       id="path4159"
       inkscape:connector-curvature="0"
       sodipodi:nodetypes="ccccccccccc" />
    <path
       style="fill:#cf0753;fill-opacity:0.99607843;fill-rule:evenodd;stroke:none;stroke-width:1px;stroke-linecap:butt;stroke-linejoin:miter;stroke-opacity:1"
       d="m -221.58635,208.99998 39.90103,0 -71.72083,97.86964 72.2259,100.70179 -40.4061,0 -71.21575,-99.69164 z"
       id="path4163"
       inkscape:connector-curvature="0" />
    <path
       style="opacity:1;fill:#042d56;fill-opacity:1;stroke:none"
       d="m 142.14258,209.50586 c -54.833552,3.1e-4 -99.284853,44.45161 -99.285158,99.28516 3.11e-4,54.83355 44.451609,99.28484 99.285158,99.28515 54.83355,-3.1e-4 99.28484,-44.4516 99.28515,-99.28515 -3.1e-4,-54.83355 -44.4516,-99.28485 -99.28515,-99.28516 z m -1.44922,29.57031 c 48.64376,1.7e-4 71.26388,35.37953 71.26367,68.85742 2.8e-4,38.4779 -26.90562,72.85724 -71.26367,72.85743 -42.930249,6.9e-4 -71.265871,-39.37896 -71.265626,-72.85743 -2.56e-4,-36.33561 31.906816,-68.85805 71.265626,-68.85742 z"
       id="path4165"
       inkscape:connector-curvature="0"
       sodipodi:nodetypes="cccccccccc" />
    <path
       style="fill:#042d56;fill-opacity:1;fill-rule:evenodd;stroke:none;stroke-width:1px;stroke-linecap:butt;stroke-linejoin:miter;stroke-opacity:1"
       d="m 282.85714,209.50506 30.71429,0 0,157.85714 105.71428,-157.85714 0,158.57143 109.28572,-158.57143 36.42857,0 -135,198.57143 -38.57143,0 0,-102.85714 L 320,408.07649 l -36.42857,0 z"
       id="path4170"
       inkscape:connector-curvature="0" />
    <path
       style="fill:#042d56;fill-opacity:1;fill-rule:evenodd;stroke:none;stroke-width:1px;stroke-linecap:butt;stroke-linejoin:miter;stroke-opacity:1"
       d="m 495.71429,408.07649 137.85714,-198.57143 35.85714,0 0,198.57143 -28,0 0,-159.28571 -107.14286,159.28571 z"
       id="path4172"
       inkscape:connector-curvature="0"
       sodipodi:nodetypes="cccccccc" />
    <path
       style="opacity:1;fill:#042d56;fill-opacity:1;stroke:none"
       d="m 820.14258,209.50586 c -54.83355,3.1e-4 -99.28485,44.45161 -99.28516,99.28516 3.1e-4,54.83355 44.45161,99.28484 99.28516,99.28515 55.40272,3.2e-4 96.03123,-42.21212 95.25195,-96.57198 l -19.18052,0.14313 -88.49917,-0.57115 0,30 75.02344,0 c -10.78393,23.07816 -33.1895,39.71471 -64.04492,39.71485 -42.93025,6.9e-4 -71.26587,-39.37896 -71.26563,-72.85743 -2.5e-4,-36.33561 31.90682,-68.85805 71.26563,-68.85742 35.25997,1.3e-4 56.83564,18.5927 66.04492,41.57227 l 30.63672,0 c -12.13502,-41.12493 -50.17544,-71.14233 -95.23242,-71.14258 z"
       id="path4174"
       inkscape:connector-curvature="0"
       sodipodi:nodetypes="cccccccccccccc" />
    <path
       style="fill:#042d56;fill-opacity:1;fill-rule:evenodd;stroke:none;stroke-width:1px;stroke-linecap:butt;stroke-linejoin:miter;stroke-opacity:1"
       d="m 968.73629,209.50506 0,198.57143 117.59611,0 0,-24.47588 -94.3626,0 0,-60.60915 94.6382,0 -0.7143,-26.26397 -92.91375,0 0,-62.56854 93.22985,0 0,-24.65389 z"
       id="path4182"
       inkscape:connector-curvature="0"
       sodipodi:nodetypes="ccccccccccccc" />
  </g>
</svg>
