<svg id="svg2" xmlns="http://www.w3.org/2000/svg" viewBox="0 0 1137.4 159.26"><defs><style>.cls-1{fill-opacity:1;}</style></defs><title>vettoriale KNW black</title><g id="layer1"><rect id="rect4147" y="0.95" width="23.54" height="158.31"/><path id="path4159" d="M151.74,159.26V.4h22.61l74,110.22V.4h23.44V159.26h-19L174.37,47.18V159.26Z" transform="translate(0)"/><path id="path4163" class="cls-1" d="M90.85,0h31.92L65.39,78.3l57.78,80.56H90.85l-57-79.75Z" transform="translate(0)"/><path id="path4165" d="M381.83.4a79.43,79.43,0,1,0,79.43,79.43A79.43,79.43,0,0,0,381.83.4Zm-1.16,23.66c38.92,0,57,28.3,57,55.09,0,30.78-21.52,58.29-57,58.29-34.34,0-57-31.5-57-58.29C323.66,50.08,349.18,24.06,380.67,24.06Z" transform="translate(0)"/><path id="path4170" d="M494.4.4H519V126.69L603.54.4V127.26L691,.4h29.14l-108,158.86H581.26V77l-57.14,82.29H495Z" transform="translate(0)"/><path id="path4172" d="M664.69,159.26,775,.4h28.69V159.26h-22.4V31.83L695.54,159.26Z" transform="translate(0)"/><path id="path4174" d="M924.23.4a79.43,79.43,0,1,0,0,158.86c44.32,0,76.82-33.77,76.2-77.26l-15.34.11-70.8-.46v24h60c-8.63,18.46-26.55,31.77-51.24,31.77-34.34,0-57-31.5-57-58.29,0-29.07,25.53-55.09,57-55.09,28.21,0,45.47,14.87,52.84,33.26h24.51A79.46,79.46,0,0,0,924.23.4Z" transform="translate(0)"/><path id="path4182" d="M1043.1.4V159.26h94.08V139.68h-75.49V91.19h75.71l-.57-21H1062.5V20.13h74.58V.4Z" transform="translate(0)"/></g></svg>