<?xml version="1.0" encoding="UTF-8" standalone="no"?>
<!-- Created with Inkscape (http://www.inkscape.org/) -->
<svg xmlns:dc="http://purl.org/dc/elements/1.1/" xmlns:cc="http://creativecommons.org/ns#" xmlns:rdf="http://www.w3.org/1999/02/22-rdf-syntax-ns#" xmlns:svg="http://www.w3.org/2000/svg" xmlns="http://www.w3.org/2000/svg" xmlns:sodipodi="http://sodipodi.sourceforge.net/DTD/sodipodi-0.dtd" xmlns:inkscape="http://www.inkscape.org/namespaces/inkscape" width="603.52332mm" height="56.183819mm" viewBox="0 0 603.52332 56.183819" version="1.1" id="svg923">
  <defs id="defs917"/>
  
  <metadata id="metadata920">
    
  </metadata>
  <g id="layer1">
    <g id="layer1-7" transform="matrix(0.28222223,0,0,0.28222223,202.69086,0.4938881)">
      <rect y="2.0589297" x="0.48214701" height="197.89256" width="29.428566" id="rect4147" style="opacity:1;fill:#042d57;fill-opacity:1;stroke:none"/>
      <path id="path4159" d="M 190.16303,199.95149 V 1.3800603 H 218.427 L 310.87626,139.15073 V 1.3800603 h 29.29443 V 199.95149 H 316.4321 L 218.4473,59.85375 v 140.09774 z" style="fill:#042d57;fill-opacity:1;fill-rule:evenodd;stroke:none;stroke-width:1px;stroke-linecap:butt;stroke-linejoin:miter;stroke-opacity:1"/>
      <path id="path4163" d="m 114.03865,0.87498033 h 39.90103 L 82.218849,98.74462 154.44475,199.44641 h -40.4061 L 42.822899,99.75477 Z" style="fill:#cf0753;fill-opacity:0.99607843;fill-rule:evenodd;stroke:none;stroke-width:1px;stroke-linecap:butt;stroke-linejoin:miter;stroke-opacity:1"/>
      <path id="path4165" d="m 477.76758,1.3808603 c -54.83355,3.1e-4 -99.28485,44.4516097 -99.28516,99.2851597 3.1e-4,54.83355 44.45161,99.28484 99.28516,99.28515 54.83355,-3.1e-4 99.28484,-44.4516 99.28515,-99.28515 C 577.05242,45.83247 532.60113,1.3811703 477.76758,1.3808603 Z M 476.31836,30.95117 c 48.64376,1.7e-4 71.26388,35.37953 71.26367,68.85742 2.8e-4,38.4779 -26.90562,72.85724 -71.26367,72.85743 -42.93025,6.9e-4 -71.26587,-39.37896 -71.26563,-72.85743 -2.5e-4,-36.33561 31.90682,-68.85805 71.26563,-68.85742 z" style="opacity:1;fill:#042d56;fill-opacity:1;stroke:none"/>
      <path id="path4170" d="m 618.48214,1.3800603 h 30.71429 V 159.2372 L 754.91071,1.3800603 V 159.95149 L 864.19643,1.3800603 H 900.625 l -135,198.5714297 H 727.05357 V 97.09435 L 655.625,199.95149 h -36.42857 z" style="fill:#042d56;fill-opacity:1;fill-rule:evenodd;stroke:none;stroke-width:1px;stroke-linecap:butt;stroke-linejoin:miter;stroke-opacity:1"/>
      <path id="path4172" d="M 831.33929,199.95149 969.19643,1.3800603 h 35.85717 V 199.95149 H 977.05357 V 40.66578 L 869.91071,199.95149 Z" style="fill:#042d56;fill-opacity:1;fill-rule:evenodd;stroke:none;stroke-width:1px;stroke-linecap:butt;stroke-linejoin:miter;stroke-opacity:1"/>
      <path id="path4174" d="m 1155.7676,1.3808603 c -54.8336,3.1e-4 -99.2849,44.4516097 -99.2852,99.2851597 3e-4,54.83355 44.4516,99.28484 99.2852,99.28515 55.4027,3.2e-4 96.0312,-42.21212 95.2519,-96.57198 l -19.1805,0.14313 -88.4992,-0.57115 v 30 h 75.0235 c -10.784,23.07816 -33.1895,39.71471 -64.0449,39.71485 -42.9303,6.9e-4 -71.2659,-39.37896 -71.2657,-72.85743 -2e-4,-36.33561 31.9068,-68.85805 71.2657,-68.85742 35.2599,1.3e-4 56.8356,18.5927 66.0449,41.57227 H 1251 C 1238.865,31.39851 1200.8246,1.3811103 1155.7676,1.3808603 Z" style="opacity:1;fill:#042d56;fill-opacity:1;stroke:none"/>
      <path id="path4182" d="M 1304.3613,1.3800603 V 199.95149 h 117.5961 v -24.47588 h -94.3626 v -60.60915 h 94.6382 l -0.7143,-26.26397 h -92.9138 V 26.03395 h 93.2299 V 1.3800603 Z" style="fill:#042d56;fill-opacity:1;fill-rule:evenodd;stroke:none;stroke-width:1px;stroke-linecap:butt;stroke-linejoin:miter;stroke-opacity:1"/>
    </g>
    <text xml:space="preserve" style="font-style:normal;font-weight:normal;font-size:10.58333302px;line-height:1.25;font-family:sans-serif;letter-spacing:0px;word-spacing:0px;fill:#000000;fill-opacity:1;stroke:none;stroke-width:0.26458332" x="-2.1166391" y="38.29813" id="text1599"><tspan id="tspan1597" x="-2.1166391" y="38.29813" style="font-style:normal;font-variant:normal;font-weight:300;font-stretch:normal;font-size:35.27777863px;font-family:roboto;-inkscape-font-specification:'roboto Light';stroke-width:0.26458332">powered by</tspan></text>
  </g>
</svg>
