<?xml version="1.0" encoding="UTF-8" standalone="no"?>
<svg
   xmlns:dc="http://purl.org/dc/elements/1.1/"
   xmlns:cc="http://creativecommons.org/ns#"
   xmlns:rdf="http://www.w3.org/1999/02/22-rdf-syntax-ns#"
   xmlns:svg="http://www.w3.org/2000/svg"
   xmlns="http://www.w3.org/2000/svg"
   xmlns:sodipodi="http://sodipodi.sourceforge.net/DTD/sodipodi-0.dtd"
   xmlns:inkscape="http://www.inkscape.org/namespaces/inkscape"
   enable-background="new 0 0 32 32"
   height="32px"
   id="Layer_1"
   version="1.1"
   viewBox="0 0 32 32"
   width="32px"
   xml:space="preserve"
   inkscape:version="0.91 r13725"
   sodipodi:docname="kn_arrow_right.svg"><metadata
     id="metadata25"><rdf:RDF><cc:Work
         rdf:about=""><dc:format>image/svg+xml</dc:format><dc:type
           rdf:resource="http://purl.org/dc/dcmitype/StillImage" /><dc:title></dc:title></cc:Work></rdf:RDF></metadata><defs
     id="defs23" /><sodipodi:namedview
     pagecolor="#ffffff"
     bordercolor="#666666"
     borderopacity="1"
     objecttolerance="10"
     gridtolerance="10"
     guidetolerance="10"
     inkscape:pageopacity="0"
     inkscape:pageshadow="2"
     inkscape:window-width="796"
     inkscape:window-height="480"
     id="namedview21"
     showgrid="false"
     inkscape:zoom="7.375"
     inkscape:cx="16"
     inkscape:cy="16"
     inkscape:window-x="109"
     inkscape:window-y="153"
     inkscape:window-maximized="0"
     inkscape:current-layer="Layer_1" /><g
     id="g3"><polyline
       fill="none"
       points="   649,137.999 675,137.999 675,155.999 661,155.999  "
       stroke="#FFFFFF"
       stroke-linecap="round"
       stroke-linejoin="round"
       stroke-miterlimit="10"
       stroke-width="2"
       id="polyline5" /><polyline
       fill="none"
       points="   653,155.999 649,155.999 649,141.999  "
       stroke="#FFFFFF"
       stroke-linecap="round"
       stroke-linejoin="round"
       stroke-miterlimit="10"
       stroke-width="2"
       id="polyline7" /><polyline
       fill="none"
       points="   661,156 653,162 653,156  "
       stroke="#FFFFFF"
       stroke-linecap="round"
       stroke-linejoin="round"
       stroke-miterlimit="10"
       stroke-width="2"
       id="polyline9" /></g><g
     id="g11"><g
       id="g13"><path
         d="M2.982,17h26.035c0.397,0,0.756-0.244,0.908-0.617c0.152-0.374,0.068-0.804-0.213-1.09l-11.789-12    c-0.384-0.391-1.005-0.391-1.389,0s-0.384,1.023,0,1.414L26.646,15H2.982C2.439,15,2,15.448,2,16S2.439,17,2.982,17z"
         id="path15"
         style="fill:#042c56;fill-opacity:1" /></g><g
       id="g17"><path
         d="M17.228,29c0.251,0,0.503-0.098,0.695-0.293l7.86-8c0.384-0.391,0.384-1.023,0-1.414s-1.005-0.391-1.389,0l-7.86,8    c-0.384,0.391-0.384,1.023,0,1.414C16.725,28.902,16.977,29,17.228,29z"
         id="path19"
         style="fill:#042c56;fill-opacity:1" /></g></g></svg>